<svg id="Layer_1" data-name="Layer 1" xmlns="http://www.w3.org/2000/svg" viewBox="0 0 360 200"><defs><style>.cls-1{fill:#f2f2f2;}</style></defs><path class="cls-1" d="M182.73,75.55,179.29,64.7h2.2V61.93h-10.7V64.7H173l-3.19,10.85h-2v2.77H175V75.55h-2.19l.87-2.81h4.25l.78,2.81h-2.1v2.77h8.06V75.55Zm-8.3-5.22,1.48-4.93,1.36,4.93Z"/><path class="cls-1" d="M192.34,64.09c.44,0,.77.41,1,1.23L196,63.25a4.32,4.32,0,0,0-3.81-1.6,4,4,0,0,0-4.43,4.22v1h-1.53v2.63h1.53v6.14H186.1v2.63h7.08V75.69h-1.79V69.55h1.79V66.92h-1.79V65.67C191.39,64.62,191.71,64.09,192.34,64.09Z"/><path class="cls-1" d="M202.36,66.92v1.4a4.09,4.09,0,0,0-3.29-1.58,4.51,4.51,0,0,0-3.51,1.64,6.2,6.2,0,0,0-1.44,4.23,6.32,6.32,0,0,0,1.4,4.22,4.27,4.27,0,0,0,3.37,1.66,5.3,5.3,0,0,0,3.47-1.59v.87a2.92,2.92,0,0,1-.83,2.43,3.37,3.37,0,0,1-2.05.62,5.23,5.23,0,0,1-2.77-.85L195,82.39A8.58,8.58,0,0,0,200,83.62q6,0,6-5.65V69.55h1.88V66.92Zm-.66,7.87a2.05,2.05,0,0,1-1.62.76,1.92,1.92,0,0,1-1.63-.81,3.52,3.52,0,0,1-.59-2.12,3.66,3.66,0,0,1,.57-2.12,1.89,1.89,0,0,1,1.65-.83,2,2,0,0,1,1.68.81,3.55,3.55,0,0,1,.61,2.18A3.09,3.09,0,0,1,201.7,74.79Z"/><path class="cls-1" d="M221.49,75.69V70.84c0-2.8-1.16-4.21-3.5-4.21a5.71,5.71,0,0,0-3.24,1.21V61.93h-5.46v2.63h1.84V75.69h-1.84v2.63h7.09V75.69h-1.63V70.32a3.85,3.85,0,0,1,1.95-.72,1.14,1.14,0,0,1,.86.3,1.56,1.56,0,0,1,.29,1.1v7.32h5.32V75.69Z"/><path class="cls-1" d="M235.42,75.69V71.54a8.7,8.7,0,0,0-.21-2.28,3.52,3.52,0,0,0-.75-1.29,3.71,3.71,0,0,0-1.62-1,8.43,8.43,0,0,0-2.73-.38q-4.26,0-5.53,2.7l2.94.53a2.84,2.84,0,0,1,2.1-.89,2.14,2.14,0,0,1,1.57.56,1.86,1.86,0,0,1,.59,1.43v.69a7.44,7.44,0,0,0-2.62-.57,5,5,0,0,0-3.35,1.1,3.5,3.5,0,0,0-1.3,2.75,3.1,3.1,0,0,0,1.24,2.59,4.61,4.61,0,0,0,2.92,1,5.23,5.23,0,0,0,3.11-1.07v.9h5.48V75.69ZM231.78,75a3.56,3.56,0,0,1-2.28,1.19,1.36,1.36,0,0,1-1.06-.44A1.53,1.53,0,0,1,228,74.7a1.24,1.24,0,0,1,.52-1.06,1.92,1.92,0,0,1,1.13-.36,4.37,4.37,0,0,1,2.11.82Z"/><path class="cls-1" d="M250.82,75.69V71.15q0-4.41-3.46-4.41A5.5,5.5,0,0,0,244,68V66.92h-5.39v2.63h1.75v6.14h-1.75v2.63h7.14V75.69H244V70.55a3.61,3.61,0,0,1,2.07-.75,1,1,0,0,1,.83.34,2.28,2.28,0,0,1,.26,1.28v6.9h5.36V75.69Z"/><path class="cls-1" d="M258.88,62.24a2,2,0,1,0-2.82,2.81,2,2,0,0,0,3.39-1.4A2,2,0,0,0,258.88,62.24Zm.36,13.45V66.92h-5.37v2.63h1.73v6.14h-1.73v2.63h7.07V75.69Z"/><path class="cls-1" d="M271.86,72.76a3.39,3.39,0,0,0-1.68-1.21,20.29,20.29,0,0,0-3.15-.73,8,8,0,0,1-1.66-.41.54.54,0,0,1-.32-.5c0-.58.52-.87,1.58-.87,1.43,0,2.26.39,2.49,1.19h2.61V66.92h-2.61v.39a7.26,7.26,0,0,0-2.88-.57,4.59,4.59,0,0,0-3.07,1A3,3,0,0,0,262,70.1a2.89,2.89,0,0,0,1.22,2.42,9.41,9.41,0,0,0,4,1.36,7,7,0,0,1,1.8.47.77.77,0,0,1,.46.7.92.92,0,0,1-.5.79,2.62,2.62,0,0,1-1.4.31,3.09,3.09,0,0,1-1.74-.47,1.57,1.57,0,0,1-.74-1.28h-2.66v3.92h2.66v-.57a3.7,3.7,0,0,0,2.79.83,4.89,4.89,0,0,0,3.39-1.07,3.52,3.52,0,0,0,1.19-2.74A3.25,3.25,0,0,0,271.86,72.76Z"/><path class="cls-1" d="M281,69.55V66.92h-2.1V62.51l-3.64,2.62v1.79h-1.45v2.63h1.45v6c0,2,1,3,3,3a7.3,7.3,0,0,0,2.75-.58V75.39a3.54,3.54,0,0,1-1.14.23c-.41,0-.67-.07-.79-.23a1.66,1.66,0,0,1-.17-.9V69.55Z"/><path class="cls-1" d="M293.37,75.69V71.54a8.7,8.7,0,0,0-.21-2.28,3.52,3.52,0,0,0-.75-1.29,3.65,3.65,0,0,0-1.62-1,8.43,8.43,0,0,0-2.73-.38c-2.83,0-4.68.9-5.52,2.7l2.93.53a2.84,2.84,0,0,1,2.1-.89,2.14,2.14,0,0,1,1.57.56,1.86,1.86,0,0,1,.59,1.43v.69a7.44,7.44,0,0,0-2.62-.57,5,5,0,0,0-3.35,1.1,3.5,3.5,0,0,0-1.3,2.75,3.13,3.13,0,0,0,1.24,2.59,4.61,4.61,0,0,0,2.92,1,5.21,5.21,0,0,0,3.11-1.07v.9h5.48V75.69ZM289.73,75a3.54,3.54,0,0,1-2.28,1.19,1.36,1.36,0,0,1-1.06-.44A1.52,1.52,0,0,1,286,74.7a1.23,1.23,0,0,1,.51-1.06,1.92,1.92,0,0,1,1.13-.36,4.37,4.37,0,0,1,2.11.82Z"/><path class="cls-1" d="M308.77,75.69V71.15q0-4.41-3.45-4.41A5.52,5.52,0,0,0,302,68V66.92h-5.38v2.63h1.74v6.14h-1.74v2.63h7.14V75.69H302V70.55A3.61,3.61,0,0,1,304,69.8a1,1,0,0,1,.84.34,2.39,2.39,0,0,1,.25,1.28v6.9h5.36V75.69Z"/><path class="cls-1" d="M183.33,104.51l-2.66-5a4.27,4.27,0,0,0,2.84-4.08,4.72,4.72,0,0,0-1.24-3.18,5.08,5.08,0,0,0-4-1.41h-9.88v2.77h2.25v10.85h-2.25v2.77h8.56v-2.77h-2.05V100.1h1.88l3.7,7.18h5v-2.77Zm-7-7h-1.46V93.66h1.85a2.7,2.7,0,0,1,1.7.47,1.65,1.65,0,0,1,.62,1.42C179.05,96.84,178.15,97.49,176.34,97.49Z"/><path class="cls-1" d="M193.16,105.18a3.21,3.21,0,0,1-1.9-.65,2.73,2.73,0,0,1-1-2.2h8.5a9.27,9.27,0,0,0-.56-3.29,5.21,5.21,0,0,0-2-2.46,5.78,5.78,0,0,0-3.38-1,6,6,0,0,0-6.18,6.17,5.44,5.44,0,0,0,1.69,4.18,6.53,6.53,0,0,0,4.7,1.6,6.11,6.11,0,0,0,5.56-2.8l-2.82-.9A3.83,3.83,0,0,1,193.16,105.18Zm-.5-7.17a2.16,2.16,0,0,1,1.69.67,2.81,2.81,0,0,1,.75,1.62h-4.77C190.55,98.77,191.33,98,192.66,98Z"/><path class="cls-1" d="M209.87,101.71a3.45,3.45,0,0,0-1.68-1.21,21.41,21.41,0,0,0-3.16-.73,7.37,7.37,0,0,1-1.65-.41.53.53,0,0,1-.32-.5c0-.58.52-.87,1.57-.87,1.43,0,2.27.4,2.5,1.19h2.61V95.87h-2.61v.4a7.26,7.26,0,0,0-2.88-.58,4.6,4.6,0,0,0-3.07,1A3,3,0,0,0,200,99.05a2.88,2.88,0,0,0,1.22,2.42,9.41,9.41,0,0,0,4,1.36,6.55,6.55,0,0,1,1.8.48.74.74,0,0,1,.46.69.94.94,0,0,1-.5.8,2.64,2.64,0,0,1-1.4.31,3,3,0,0,1-1.74-.48,1.55,1.55,0,0,1-.74-1.28h-2.67v3.93h2.67v-.58a3.66,3.66,0,0,0,2.79.84,4.94,4.94,0,0,0,3.39-1.07,3.52,3.52,0,0,0,1.19-2.74A3.28,3.28,0,0,0,209.87,101.71Z"/><path class="cls-1" d="M218.43,105.18a3.21,3.21,0,0,1-1.9-.65,2.7,2.7,0,0,1-1-2.2H224a9.27,9.27,0,0,0-.56-3.29,5.21,5.21,0,0,0-2-2.46,5.76,5.76,0,0,0-3.38-1,6,6,0,0,0-6.18,6.17,5.44,5.44,0,0,0,1.69,4.18,6.53,6.53,0,0,0,4.7,1.6,6.11,6.11,0,0,0,5.56-2.8l-2.82-.9A3.83,3.83,0,0,1,218.43,105.18Zm-.5-7.17a2.2,2.2,0,0,1,1.7.67,2.86,2.86,0,0,1,.74,1.62H215.6C215.82,98.77,216.6,98,217.93,98Z"/><path class="cls-1" d="M236.39,104.65v-4.16a8.28,8.28,0,0,0-.22-2.28,3.36,3.36,0,0,0-.74-1.29,3.91,3.91,0,0,0-1.62-1,8.45,8.45,0,0,0-2.73-.37q-4.26,0-5.53,2.7l2.94.53a2.81,2.81,0,0,1,2.09-.9,2.21,2.21,0,0,1,1.58.56,1.86,1.86,0,0,1,.59,1.43v.7a7.26,7.26,0,0,0-2.63-.58,5,5,0,0,0-3.34,1.11,3.45,3.45,0,0,0-1.3,2.74,3.14,3.14,0,0,0,1.23,2.6,4.63,4.63,0,0,0,2.93,1,5.21,5.21,0,0,0,3.11-1.06v.9h5.48v-2.63Zm-3.64-.66a3.61,3.61,0,0,1-2.29,1.19,1.35,1.35,0,0,1-1.05-.45,1.5,1.5,0,0,1-.42-1.07,1.21,1.21,0,0,1,.52-1.06,1.93,1.93,0,0,1,1.13-.37,4.41,4.41,0,0,1,2.11.83Z"/><path class="cls-1" d="M246.05,100.8a2.75,2.75,0,0,1,1.44-1.35,7,7,0,0,1,2.25-.3V95.71l-.59,0a3.86,3.86,0,0,0-2.57.92,4,4,0,0,0-1.4,2.16v-2.9h-5.31V98.5h2v6.15h-2.11v2.63h8v-2.63h-2.27v-1.4A5,5,0,0,1,246.05,100.8Z"/><path class="cls-1" d="M260.4,102.85a3.74,3.74,0,0,1-1.24,1.32,3,3,0,0,1-1.65.5,2.5,2.5,0,0,1-1.85-.77,3.27,3.27,0,0,1-.76-2.39,3.09,3.09,0,0,1,.71-2.12,2.47,2.47,0,0,1,1.92-.8,2.91,2.91,0,0,1,2.77,1.91h2.59V95.87H260.4v.94A5.92,5.92,0,0,0,257,95.69a5.81,5.81,0,0,0-4,1.58,5.5,5.5,0,0,0-1.74,4.29,5.61,5.61,0,0,0,1.77,4.35,6.78,6.78,0,0,0,4.75,1.63,5.61,5.61,0,0,0,5.54-3.45Z"/><path class="cls-1" d="M276.53,104.65V99.8q0-4.22-3.5-4.21a5.71,5.71,0,0,0-3.24,1.2v-5.9h-5.47v2.62h1.84v11.14h-1.84v2.63h7.09v-2.63h-1.62V99.28a3.79,3.79,0,0,1,1.94-.72,1.16,1.16,0,0,1,.87.3,1.62,1.62,0,0,1,.28,1.1v7.32h5.32v-2.63Z"/><path class="cls-1" d="M179.24,119.84v2.77h2.13v7.45l-6-10.22h-6.88v2.77h2.19v10.85h-2.19v2.77h7.18v-2.77h-2.07V124.2l7.07,12.15h3.66V122.61h2.29v-2.77Z"/><path class="cls-1" d="M193.13,134.13a3.25,3.25,0,0,1-1.91-.64,2.76,2.76,0,0,1-1-2.21h8.49a9.31,9.31,0,0,0-.55-3.29,5.21,5.21,0,0,0-2-2.46,5.78,5.78,0,0,0-3.38-1,6,6,0,0,0-4.44,1.77,6,6,0,0,0-1.74,4.41,5.46,5.46,0,0,0,1.69,4.18,6.57,6.57,0,0,0,4.7,1.59,6.11,6.11,0,0,0,5.56-2.79l-2.82-.91A3.79,3.79,0,0,1,193.13,134.13Zm-.5-7.17a2.16,2.16,0,0,1,1.69.67,2.84,2.84,0,0,1,.75,1.63H190.3C190.52,127.72,191.3,127,192.63,127Z"/><path class="cls-1" d="M207.37,127.45v-2.62h-2.1v-4.41L201.63,123v1.79h-1.45v2.62h1.45v6c0,2,1,3,3,3a7.3,7.3,0,0,0,2.75-.58V133.3a3.3,3.3,0,0,1-1.15.23c-.41,0-.67-.07-.78-.23a1.66,1.66,0,0,1-.17-.9v-5Z"/><path class="cls-1" d="M222.82,124.83v2.62h1.28l-1.4,4.24-2.26-6.86h-3l-2.32,6.86-1.41-4.24h1.25v-2.62h-6.21v2.62h1.45l3,9h3.18l2.2-6.71,2.24,6.71H224l3-9h1.42v-2.62Z"/><path class="cls-1" d="M239.6,126.14a6.47,6.47,0,0,0-8.52,0,6.37,6.37,0,0,0,0,8.75,6.48,6.48,0,0,0,8.54,0,5.72,5.72,0,0,0,1.71-4.36A5.63,5.63,0,0,0,239.6,126.14ZM237,132.88a2,2,0,0,1-1.65.78,1.9,1.9,0,0,1-1.69-.86,4,4,0,0,1-.56-2.2c0-2.17.75-3.25,2.25-3.25a2,2,0,0,1,1.67.82,3.77,3.77,0,0,1,.61,2.28A3.82,3.82,0,0,1,237,132.88Z"/><path class="cls-1" d="M248.87,129.75a2.69,2.69,0,0,1,1.44-1.34,7,7,0,0,1,2.25-.31v-3.44H252a3.89,3.89,0,0,0-2.58.91,4.05,4.05,0,0,0-1.39,2.16v-2.89h-5.32v2.62h2v6.15h-2.1v2.63h8V133.6h-2.27v-1.4A5,5,0,0,1,248.87,129.75Z"/><path class="cls-1" d="M266.32,133.6l-3-3.62,3.34-2.84h1.14v-2.31h-6.89V127h2.41l-3.92,3.18,5,6h3.5V133.6Zm-12.43-13.76v2.63h1.84V133.6h-1.84v2.63h6.85v-2.5h-1.38V119.84Z"/><rect class="cls-1" x="149.26" y="56.13" width="2.52" height="88.63"/><path class="cls-1" d="M101.05,105.82l-.6-.59-.08.09h0v0l-.36.37c-.11.11-.23.23-.38.36h0l0,0-.1.08.6.6.48-.48Z"/><path class="cls-1" d="M104.75,108.57l-2.6-2.59a.05.05,0,0,0-.08,0l-.09.08-1.22,1.23-.52.51s0,0,0,0,0,0,0,0l2.83,2.84,0,0,0,0,1.83-1.83a.08.08,0,0,0,0,0,.05.05,0,0,0,0,0Z"/><polygon class="cls-1" points="96.36 81.05 93.66 83.75 85.05 75.14 87.75 72.44 90.61 75.31 91.72 74.2 94.06 76.55 92.96 77.65 96.36 81.05"/><path class="cls-1" d="M89.34,98.13,88,96.83A6.36,6.36,0,0,1,89.3,95a6.49,6.49,0,0,1,1.79-1.25l1.27,1.27A4.71,4.71,0,0,0,89.34,98.13Z"/><path class="cls-1" d="M92.47,104l-1.24,1.23a6.11,6.11,0,0,1-1.93-1.31,6.24,6.24,0,0,1-1.19-1.66L89.38,101A4.69,4.69,0,0,0,92.47,104Z"/><path class="cls-1" d="M97,99.49a.19.19,0,0,1,0,.08,2.87,2.87,0,1,1,0-.08Z"/><path class="cls-1" d="M98.27,101l1.14,1.14a6.32,6.32,0,0,1-1.26,1.79,6,6,0,0,1-1.79,1.25L95.19,104A4.7,4.7,0,0,0,98.27,101Z"/><path class="cls-1" d="M95.29,95.05l1.2-1.2A5.85,5.85,0,0,1,98.15,95,6.26,6.26,0,0,1,99.47,97l-1.16,1.17A4.71,4.71,0,0,0,95.29,95.05Z"/><path class="cls-1" d="M128.15,94.59,133.7,89l-11-11H112.27L97.8,92.54a8,8,0,0,1,1.6,1.25,7.74,7.74,0,0,1,1.39,1.85l13.27-13.26H121L127.6,89l-2.51,2.51L120.53,87l-2.29-2.28-4.52,4.42-.45.44,2.27,2.3.41-.42.23-.21,1.25-1.2h0l.8.76,3.8,3.81.56.55,2.49,2.5,3.72,3.71h0l3.22,3.23L119.58,117,118,118.6l3.07,3,17-17Z"/><circle class="cls-1" cx="119.63" cy="119.99" r="2.95"/><path class="cls-1" d="M88.05,105.14a8,8,0,0,1-1.25-1.61L73.59,116.74H66.7l-6.65-6.65,2.51-2.51,4.32,4.32,2.48,2.49h0l6-6h0l-2.48-2.49-2,2-.36-.68-1.13,1.13-3.66-3.66-.15-.14-3-3.06-2.37-2.37L57.7,96.62l-2.09-2.08L68.24,81.92h0l1.39-1.39-3-3.1-1.39,1.39h0L49.51,94.54l10,10L54,110.09l11,11H75.38l14.53-14.54A8,8,0,0,1,88.05,105.14Z"/><circle class="cls-1" cx="68.18" cy="78.97" r="2.95"/><path class="cls-1" d="M114.55,71h0L98.85,55.25l-10,10L83.3,59.68l-11,11V81.11L86.74,95.52a7.31,7.31,0,0,1,1.31-1.73,8.1,8.1,0,0,1,1.73-1.32L76.64,79.33v-6.9l6.66-6.65,2.5,2.51h0L79,75.14l2.48,2.48,1.93-1.92,9.73,9.73-1.93,1.92,2.48,2.48,7.59-7.58-2.48-2.48L96.91,81.6l-.55-.55-2.7,2.7-8.61-8.61,2.7-2.7-.57-.56,1.66-1.66a3.51,3.51,0,0,1,2-1.11,2.15,2.15,0,0,1,1.83.73c1.16,1.15.92,2.54-.7,4.16l-.2.21,2.34,2.34.58-.58,7.26,2.32-10-10,3.45-3.44,3.5-3.5L111.44,74h0l1.41,1.42,3.08-3Z"/><circle class="cls-1" cx="114.39" cy="73.89" r="2.95"/><path class="cls-1" d="M100.72,103.41a6.93,6.93,0,0,1-.58.87l0,0,0,0c-.09.12-.19.25-.29.36l0,0,0,0c-.11.14-.23.25-.34.37l-.37.34,0,0,0,0-.36.29a7.63,7.63,0,0,1-1,.64L111,119.79v6.9l-6.65,6.65-2.51-2.51L108.7,124,94,109.28l-9.89,9.9,11.65,11.65-7,6.94L76.21,125.18l-1.42-1.42-3.08,3L88.8,143.87l10-10,5.56,5.56,11-11V118Zm-1.13,2.69,0,0h0c.15-.13.27-.25.38-.36s.23-.23.35-.37l0,0h0a.36.36,0,0,1,.08-.09l.59.6-.47.47-.48.48-.6-.6Zm5.39,2.79-1.83,1.83h-.08l-2.83-2.84s0,0,0,0,0,0,0,0l.52-.51,1.22-1.23.09-.08a.05.05,0,0,1,.08,0l2.6,2.59.23.24a.05.05,0,0,1,0,0,.08.08,0,0,1,0,0ZM90.19,119.18l3.8-3.8h0L102.6,124l-3.8,3.8Z"/><circle class="cls-1" cx="73.26" cy="125.23" r="2.95"/><path class="cls-1" d="M77.33,106.42l7.24-7.23L82.08,96.7l-1.76,1.76-5.23-2.72-.46-.24-4-2.08L67.49,91.8l2-2L67,87.34l-6.77,6.77L58.29,96l2.51,2.49,1-1,1.67,3.07,2.26,4.14,3,5.4-1.29,1.29-.53.53h0l2.48,2.49h0l6-6,.53-.54-2.49-2.48-2,2-.36-.68L69.68,104l3.82-3.82,2.56,1.46.67.37-1.89,1.89Zm-9.14-5.2L66.3,97.73l-1.22-2.27,2.23,1.26,3.43,2Z"/><path class="cls-1" d="M106.39,72.13,104.48,74l-6.82-2a5.4,5.4,0,0,0-1.11-6.2,5.86,5.86,0,0,0-1.2-.93A6.15,6.15,0,0,0,92.59,64q-2.37-.16-4.87,2.34L85.8,68.29l-6.94,6.94,2.48,2.49.09-.1,1.93-1.92,9.73,9.73-1.93,1.92-.09.1,2.48,2.48.09-.1,7.59-7.58-2.48-2.48L96.91,81.6l-.55-.55L93,77.65l1.1-1.1.58-.58,7.26,2.32,2.49.8,4.48-4.48ZM90.61,75.31l-2.86-2.87-.57-.56,1.66-1.66a3.51,3.51,0,0,1,2-1.11,2.15,2.15,0,0,1,1.83.73c1.16,1.15.92,2.54-.7,4.16Z"/><path class="cls-1" d="M120.5,87l0,0,1.87-1.87-2.29-2.29-6.4,6.29h0L116,91.39l.18-.17,1.26-1.2.65-.61,6.15,6.15-1.64-.42-.88-.23h0l-6-1.55-4.84-1.25h0l-5.68,5.69,2.28,2.28.21-.2,1.6-1.61,9,9L116.38,109l2.29,2.29,5.93-5.92-2.29-2.29-1.7,1.7L113,97.16l5.15,1.36,4.82,1.28,5.88,1.55h0l1.8-1.8,1.21-1.22Z"/></svg>