<svg id="Layer_1" data-name="Layer 1" xmlns="http://www.w3.org/2000/svg" viewBox="0 0 360 200"><defs><style>.cls-1{fill:#f2f2f2;}</style></defs><path class="cls-1" d="M130.82,143.69h-1.45l-5.18-8.32h0v8.31h-1.45V132.93h1.45l5.18,8.31.05,0v-8.29h1.45Z"/><path class="cls-1" d="M148.39,138.7h-4.93v3.84h5.68v1.15H142V132.93h7.06v1.15h-5.6v3.48h4.93Z"/><path class="cls-1" d="M161.53,140l.2,1.34h0l.29-1.35,2-7h1.29l2,7,.3,1.38h0l.22-1.38,1.6-7h1.46l-2.6,10.76H167l-2.12-7.46-.19-1h0l-.19,1-2.16,7.46H161l-2.58-10.76h1.45Z"/><path class="cls-1" d="M187.12,141a1.59,1.59,0,0,0-.56-1.23,4.6,4.6,0,0,0-2-.83,6.49,6.49,0,0,1-2.67-1.2,2.49,2.49,0,0,1-1-2,2.6,2.6,0,0,1,1-2.1,4.06,4.06,0,0,1,2.67-.84,4,4,0,0,1,2.81,1,2.88,2.88,0,0,1,1,2.25l0,0h-1.39a2,2,0,0,0-.62-1.52,2.52,2.52,0,0,0-1.79-.59,2.56,2.56,0,0,0-1.67.49,1.6,1.6,0,0,0-.58,1.28,1.43,1.43,0,0,0,.63,1.18,6.12,6.12,0,0,0,2,.82,5.76,5.76,0,0,1,2.58,1.24,2.64,2.64,0,0,1,.89,2,2.46,2.46,0,0,1-1.06,2.09,4.54,4.54,0,0,1-2.78.8,4.84,4.84,0,0,1-2.85-.88,2.61,2.61,0,0,1-1.2-2.34v0h1.39a1.82,1.82,0,0,0,.76,1.57,3.2,3.2,0,0,0,1.89.54,2.92,2.92,0,0,0,1.74-.46A1.48,1.48,0,0,0,187.12,141Z"/><path class="cls-1" d="M217.32,140.92h-4.5l-1,2.77h-1.49l4.16-10.76h1.25l4.09,10.76h-1.48Zm-4-1.22h3.62l-1.78-4.9h0Z"/><path class="cls-1" d="M237.61,142.26a3.4,3.4,0,0,1-1.34,1.09,5.28,5.28,0,0,1-2.45.5,4.38,4.38,0,0,1-3.19-1.24,4.27,4.27,0,0,1-1.26-3.19V137.2a4.45,4.45,0,0,1,1.17-3.19,4,4,0,0,1,3-1.23,4.37,4.37,0,0,1,2.91.9,3.06,3.06,0,0,1,1.08,2.35l0,0h-1.39a2.23,2.23,0,0,0-.71-1.54,2.6,2.6,0,0,0-1.87-.61,2.47,2.47,0,0,0-2,.92,3.61,3.61,0,0,0-.75,2.34v2.23a3.36,3.36,0,0,0,.84,2.36,2.77,2.77,0,0,0,2.15.93,4,4,0,0,0,1.5-.24,2.14,2.14,0,0,0,.83-.56v-2.44h-2.36v-1.14h3.82Z"/><path class="cls-1" d="M255,138.7H250.1v3.84h5.68v1.15h-7.13V132.93h7v1.15h-5.6v3.48H255Z"/><path class="cls-1" d="M274.15,143.69h-1.46l-5.18-8.32h0v8.31H266V132.93h1.46l5.18,8.31,0,0v-8.29h1.46Z"/><path class="cls-1" d="M292.93,140.24l0,0a3.24,3.24,0,0,1-1.07,2.54,4.07,4.07,0,0,1-2.89,1,3.8,3.8,0,0,1-3-1.3,4.72,4.72,0,0,1-1.15-3.28v-1.91a4.77,4.77,0,0,1,1.15-3.29,3.79,3.79,0,0,1,3-1.29,4.18,4.18,0,0,1,2.91,1,3.2,3.2,0,0,1,1.05,2.57l0,.05h-1.4a2.41,2.41,0,0,0-.66-1.79,2.55,2.55,0,0,0-1.88-.66,2.3,2.3,0,0,0-1.94,1,4,4,0,0,0-.73,2.44v1.93a4,4,0,0,0,.73,2.45,2.3,2.3,0,0,0,1.94,1,2.59,2.59,0,0,0,1.88-.65,2.44,2.44,0,0,0,.66-1.81Z"/><path class="cls-1" d="M306.72,138.4l2.81-5.47h1.66l-3.78,7v3.78H306v-3.88l-3.72-6.88h1.66Z"/><path class="cls-1" d="M141.08,116.13a2.81,2.81,0,0,0-1.45-2.28,15.59,15.59,0,0,0-5.27-1.8q-6-1.18-9.08-3.66a8.3,8.3,0,0,1-3-6.79,9.68,9.68,0,0,1,3.82-7.72q3.83-3.16,10.35-3.17c4.58,0,8.24,1,10.95,3.07a9,9,0,0,1,3.89,8l-.06.19H140.73a4.23,4.23,0,0,0-1-3.09,4.5,4.5,0,0,0-3.32-1,4.37,4.37,0,0,0-2.84.93,2.89,2.89,0,0,0-1.14,2.35,2.82,2.82,0,0,0,1.32,2.33,15.1,15.1,0,0,0,5.33,1.72q6.32,1.23,9.35,3.71a8.47,8.47,0,0,1,3,7c0,3.1-1.27,5-4,7s-6.38,3-10.9,3q-7,0-11.14-3.57c-2.72-2.38-4.13-4.36-4-7.29l.06-.19h9.75a4.29,4.29,0,0,0,1.48,3.53,6.51,6.51,0,0,0,4,1.08,5.42,5.42,0,0,0,3.28-.84A2.83,2.83,0,0,0,141.08,116.13Z"/><path class="cls-1" d="M174.61,111.6l.64,3.67.19,0,.7-3.7,4.74-20.89h11.31l-11.4,35.1H169.87l-11.39-35.1h11.34Z"/><path class="cls-1" d="M219.8,125.78a13.19,13.19,0,0,1-.81-1.85,18.17,18.17,0,0,1-.62-2.1,18.92,18.92,0,0,1-4,2.72,10.28,10.28,0,0,1-5.25,1.26,11.31,11.31,0,0,1-8-2.84c-2-1.89-2.81-3.73-2.81-6.88a9.2,9.2,0,0,1,3.84-7.91q3.84-2.79,11.68-2.79h3.91v-2.45a5,5,0,0,0-1-3.38,4.06,4.06,0,0,0-3.2-1.17,3.86,3.86,0,0,0-2.76.87,3.67,3.67,0,0,0-.91,2.73l-10.41,0-.06-.19a9,9,0,0,1,3.91-7.88q4.14-3.16,11-3.17,6.38,0,10.33,3.19t4,9.1v13a25.21,25.21,0,0,0,1.85,9.81Zm-7.1-7a6.65,6.65,0,0,0,2.93-.64,6,6,0,0,0,2.16-1.65v-5.38H214a4.87,4.87,0,0,0-3.71,1.24,4.45,4.45,0,0,0-1.16,3.15,3,3,0,0,0,1,2.37A3.7,3.7,0,0,0,212.7,118.8Z"/><path class="cls-1" d="M252.37,112.11h-1.81v13.7H239.79V76.12h10.77V104H252l7.67-13.28H272l-11,16.21,12.39,18.89H261.1Z"/><path class="cls-1" d="M300.46,125.78a13.19,13.19,0,0,1-.81-1.85,18.17,18.17,0,0,1-.62-2.1,9.25,9.25,0,0,1-3.49,2.72,10.32,10.32,0,0,1-5.26,1.26,11.27,11.27,0,0,1-8-2.84c-2.05-1.89-3.28-3.73-3.28-6.88a9.22,9.22,0,0,1,3.83-7.91q3.84-2.79,11.68-2.79h3.91v-2.45a5,5,0,0,0-1-3.38,4.06,4.06,0,0,0-3.2-1.17,3.87,3.87,0,0,0-2.76.87,3.67,3.67,0,0,0-.9,2.73l-10.42,0-.06-.19A9,9,0,0,1,284,93.88q4.14-3.16,11-3.17,6.38,0,10.34,3.19t4,9.1v13a25.21,25.21,0,0,0,1.85,9.81Zm-7.1-7a6.65,6.65,0,0,0,2.93-.64,6,6,0,0,0,2.16-1.65v-5.38h-3.82a4.87,4.87,0,0,0-3.71,1.24,4.45,4.45,0,0,0-1.16,3.15,3,3,0,0,0,1,2.37A3.72,3.72,0,0,0,293.36,118.8Z"/><path class="cls-1" d="M138.47,76.15H147l.07.19-8.25,8.28h-6.24Z"/><path class="cls-1" d="M118.34,73.29a46.15,46.15,0,0,0-6.58,2,58.2,58.2,0,0,0-12.15,6.77q-1,.73-2,1.5L90.46,67.73l-5.4-11.58H81L76.44,66,64.74,91a45.92,45.92,0,0,0-7.07-.78h0a46.58,46.58,0,0,1,6.87,3.68,55.19,55.19,0,0,1,6.19,4.52,52.86,52.86,0,0,1,5.42,5.14,57.52,57.52,0,0,1,4.57,5.64l5.64,7.71,3.51-9.14c.31-.77.8-1.81,1.24-2.72s.95-1.88,1.46-2.81c1-1.86,2.07-3.7,3.22-5.51a77.84,77.84,0,0,1,7.71-10.23,54.06,54.06,0,0,1,9.61-8.56,44.77,44.77,0,0,1,5.68-3.24,40.43,40.43,0,0,1,6.27-2.19A39.73,39.73,0,0,0,118.34,73.29Zm-39,14.57a.5.5,0,0,0,.17,0h1.06a.6.6,0,0,0,0-1.2H79.53a.51.51,0,0,0-.17,0v-1a.51.51,0,0,0,.17,0h1.06a.61.61,0,0,0,0-1.21H79.53a.51.51,0,0,0-.17,0v-1a.5.5,0,0,0,.17,0h1.06a.6.6,0,0,0,0-1.2H79.53a.51.51,0,0,0-.17,0v0A2.3,2.3,0,0,1,81.65,80H83a2.31,2.31,0,0,1,2.31,2.31v0H84a.55.55,0,1,0,0,1.1h1.26v1.12H84a.55.55,0,1,0,0,1.1h1.26v1.12H84a.55.55,0,1,0,0,1.1h1.28v0A2.3,2.3,0,0,1,83,90.19H81.67a2.31,2.31,0,0,1-2.31-2.32ZM83,92.66l0,2.46h1.52a.23.23,0,0,1,.24.24v.83a.23.23,0,0,1-.24.24H80.16a.24.24,0,0,1-.25-.24v-.83a.24.24,0,0,1,.25-.24h1.51V92.66a4.78,4.78,0,0,1-4.77-4.52.24.24,0,0,1,.24-.26H78a.23.23,0,0,1,.24.23,3.47,3.47,0,0,0,3.46,3.24H83a3.47,3.47,0,0,0,3.46-3.24.27.27,0,0,1,.24-.23h.83a.25.25,0,0,1,.24.26A4.78,4.78,0,0,1,83,92.66Z"/><path class="cls-1" d="M63,95.17h0S63,95.17,63,95.17Z"/><path class="cls-1" d="M63,95.14v0S63,95.15,63,95.14Z"/><path class="cls-1" d="M69.76,100.17l-.2-.17-.45-.37A64.4,64.4,0,0,0,63,95.17h0L61.14,99.1,54.9,112.61l-6.09,13.2h17l4-8.93,2.06-4.6,3.17-7c-.07-.08-.14-.15-.21-.24A49.76,49.76,0,0,0,69.76,100.17Z"/><path class="cls-1" d="M101.7,92.19h0c-1.13,1.53-2.9,4-3.94,5.64-.59.93-1.16,1.85-1.7,2.78s-1,1.74-1.46,2.59-1,1.84-1.42,2.75-.85,1.79-1.13,2.48l.89,2,.84,1.87h0l6.07,13.53h17.31L106.24,102Z"/></svg>