<svg id="Layer_1" data-name="Layer 1" xmlns="http://www.w3.org/2000/svg" viewBox="0 0 360 200"><defs><style>.cls-1{fill:#f2f2f2;}</style></defs><path class="cls-1" d="M111.54,165.14l-1.11,3.13h-1.6l3.84-10.89h2l4,10.89H117l-1.15-3.13Zm3.88-1.37c-1-2.75-1.54-4.26-1.78-5.12h0c-.26.95-.88,2.77-1.68,5.12Z"/><path class="cls-1" d="M129.42,157.38h7.11v1.37H131v3.37h5.17v1.36H131v4.79h-1.59Z"/><path class="cls-1" d="M156.46,168.27h-1.23a6.53,6.53,0,0,1-.14-1.4,3.64,3.64,0,0,1-3.34,1.55c-3.15,0-4.83-2.38-4.83-5.48,0-3.26,1.81-5.72,5.12-5.72,2.58,0,4.18,1.41,4.48,3.34h-1.61a2.72,2.72,0,0,0-2.9-2c-2.48,0-3.41,2-3.41,4.31s1,4.22,3.36,4.22,2.92-1.58,2.92-3.25v-.12h-2.94v-1.36h4.52Z"/><path class="cls-1" d="M168.09,157.38h1.62v4.49h5.43v-4.49h1.61v10.89h-1.61v-5h-5.43v5h-1.62Z"/><path class="cls-1" d="M190.25,165.14l-1.11,3.13h-1.6l3.84-10.89h2l4,10.89h-1.72l-1.15-3.13Zm3.88-1.37c-1-2.75-1.55-4.26-1.79-5.12h0c-.27.95-.89,2.77-1.68,5.12Z"/><path class="cls-1" d="M208.12,168.27V157.38h2.11c1.52,2.53,4.75,7.75,5.34,8.93h0c-.11-1.34-.1-3.09-.1-4.87v-4.06H217v10.89h-2c-1.38-2.32-4.78-8-5.44-9.23h0c.08,1.18.08,3.1.08,5.06v4.17Z"/><path class="cls-1" d="M230.53,157.38v10.89h-1.62V157.38Z"/><path class="cls-1" d="M244,165.14l-1.11,3.13h-1.6l3.84-10.89h2l4,10.89h-1.72l-1.15-3.13Zm3.88-1.37c-1-2.75-1.55-4.26-1.79-5.12h0c-.27.95-.89,2.77-1.68,5.12Z"/><path class="cls-1" d="M169.33,134.51a83.81,83.81,0,0,1-7.48,4.7,54.66,54.66,0,0,1-16.62,6.91,12.08,12.08,0,0,1-11.4-3.23,28.4,28.4,0,0,1-7.4-12.82,41.25,41.25,0,0,1-1.33-9.44c-.44-7.35.15-14.68.46-22,0-1,0-1.92,0-3-.57.55-1.08,1-1.6,1.54-1.66,1.59-3.39,3.07-5.71,3.58a6.07,6.07,0,0,1-6.32-2.12c-1.94-2.3-2.6-5.12-3-8-.89-6.5.18-12.82,2-19.06,1.94-6.84,5.06-13.18,8.36-19.44a12.46,12.46,0,0,1,1.23-1.83c.21-.28.51-.65.92-.43s.25.65.16,1a38.09,38.09,0,0,1-1.95,5.39c-1.92,4.64-3.92,9.25-5,14.19A47,47,0,0,0,113.43,83a12.26,12.26,0,0,0,.72,3.84c1.15,3,3.41,4.1,6.51,3a13.39,13.39,0,0,0,4.7-3c.42-.39.33-.84.33-1.3q-.12-11.27-.83-22.51c0-.36,0-.73,0-1.1h0a1.42,1.42,0,0,1,0-.22,12.11,12.11,0,0,0-.15-2.48l0-.05,0,0h0v0a1.18,1.18,0,0,1,0-.2,12,12,0,0,1,0-2,.26.26,0,0,1,.25-.12h0l0,0a1.42,1.42,0,0,1,.08.18,16.23,16.23,0,0,1,.32,2.41,3.16,3.16,0,0,0,.43,1.1c1.49,2.09,2.47,4.5,4,6.57a5.44,5.44,0,0,1,.47,1.11,2.3,2.3,0,0,0,.85,1.17c.33-.35.14-.77.33-1.08.09-.15.19-.29.28-.25l0,0a.59.59,0,0,1,.12.23q0,4.23,0,8.44c0,.25-.12.57.24.68s.35-.12.45-.3a15.84,15.84,0,0,1,1.56-2.42,6.57,6.57,0,0,1,1.51,2.18c.29.54.33,1.25,1.17,1.31.11,0,.1.22,0,.34-1.24,2.33-2.77,4.49-4.17,6.73a3.2,3.2,0,0,0-.53,1.78c0,6.1-.2,12.19-.55,18.28a45.61,45.61,0,0,0,1.39,14.94,24,24,0,0,0,5.15,9.78,8.89,8.89,0,0,0,7.76,3.18c4-.3,7.95-.58,11.74-2a42,42,0,0,0,6.15-3.16l1.83-1c.3-.16.58,0,.34.23-.56.48,0,.7.1,1.06.64,1.69,1.72,3.14,2.51,4.75C168.69,133.63,169.27,133.9,169.33,134.51Z"/><path class="cls-1" d="M211.79,81h0a.51.51,0,0,1-.13.12,2.93,2.93,0,0,1-1.1-.08h0a3.86,3.86,0,0,0-1.23-.4c-3.93-1.57-7.32-3.8-9.09-7.84a12.38,12.38,0,0,1-.67-5.56c-.67,1.18-1.33,2.36-2,3.52a28.38,28.38,0,0,1-4.7,6.36,15.89,15.89,0,0,1-12.59,4.1c-6.64-.47-11.87-3.29-15.22-9.16a34,34,0,0,1-3-8.61,15.44,15.44,0,0,0-1-3c-.88-1.82-1.83-2.27-3.81-1.82l-1,.23c-.23.09-.49.18-.44-.23,0-.16.19-.26.33-.35,1.05-.71,1-.7.44-1.84-.69-1.37-1.48-2.67-2.17-4-.15-.29-.19-.41-.55-.23s-.72.12-.7-.43a18.7,18.7,0,0,1,8.32-4.15,3.87,3.87,0,0,1,4.39,2.05,42,42,0,0,1,2.57,6.2c.81,2,1.32,4.16,2.52,6a15.25,15.25,0,0,0,12,7.23A22.13,22.13,0,0,0,192.34,68a8.46,8.46,0,0,0,4.73-3.82c.76-1.34,1.59-2.63,2.39-3.94.21-.1.33,0,.37.2A17.47,17.47,0,0,0,202,64.7c1.16,2,2.23,4,3.44,5.9,1.74,2.78,3,5.85,4.9,8.51a11.85,11.85,0,0,0,1.15,1.38C211.66,80.62,212,80.76,211.79,81Z"/><path class="cls-1" d="M251.35,118.43c0,.67-.07,1.34-.11,2a24.18,24.18,0,0,0-.15,3.18H251c-.6-.08-.35-.62-.45-1l0-.19,0-.24a9.61,9.61,0,0,0-1.81-6.24c-1.23-1.93-2.31-3.95-3.48-5.93-.22.31.11.92-.55,1-.49-3.92-.7-7.86-1-11.8-.7-9.58-1.46-19.16-2-28.75-.51-8.45-1.32-16.9-.6-25.39a14.69,14.69,0,0,1,.4-2.87c.28-.43,0-.93.17-1.37h0l0-.06h0c.52,0,.48.45.45.72a3.3,3.3,0,0,0,.84,2.68,28.07,28.07,0,0,1,2.1,3.65c.05-.75-.16-1.47-.17-2.19,0-.34-.12-.86.42-.85h0l.17,0c.16,1.38.06,2.79.3,4.17a3.16,3.16,0,0,1,0,.43h0a.49.49,0,0,0,.14.42c.7,4.17,1.09,8.37,1.5,12.57.76,7.84,1.6,15.67,2.19,23.52C250.53,96.73,251.51,107.55,251.35,118.43Z"/><path class="cls-1" d="M236.13,124a15.8,15.8,0,0,1-3.69,6.65,56.34,56.34,0,0,1-22.67,14.56,15.9,15.9,0,0,1-1.55.37,1.8,1.8,0,0,1-.69.09c-.65.08-.73-.2-.42-.68a.94.94,0,0,0,0-1c-1.4-2.82-3.21-5.41-4.67-8.18-.74-1.4-1.54-2.47-3.24-2.51a.37.37,0,0,1-.19-.07c-.19-.12-.59-.14-.47-.47h0v0c.1-.24.42-.08.64,0a4.55,4.55,0,0,0,1.92.42c.43.24.92,0,1.36.14l.14.05a43.83,43.83,0,0,0,13.46-1.86,38.6,38.6,0,0,0,13.53-8.07c1.54-1.34,3-2.76,4.5-4.14.24-.08.34.09.29.25-.47,1.66.65,2.7,1.52,3.81C236.12,123.55,236.35,123.7,236.13,124Z"/><path class="cls-1" d="M232.1,66.21a24.34,24.34,0,0,1-6.28,7.9c-.3.25-.65.44-1,.66-.16.12-.33.13-.39-.08-.69-2.17-2.08-4-3.12-6-.27-.53-1.06-.56-1.12-1.25a48.36,48.36,0,0,0,7.71-4.28,17,17,0,0,0,2.34-1.89c1.08-1.1,1.17-1.56.47-2.92a48.77,48.77,0,0,0-4.55-6.49c-2.53-3.39-5-6.87-6.05-11a17.67,17.67,0,0,1,0-8.18c.09-.45.2-1,.74-1.1s.72.5.94.89a102,102,0,0,0,9,13.44C235.84,52.28,235.65,59.21,232.1,66.21Z"/><path class="cls-1" d="M230.74,113.71c-.35.35-.73.17-1.1.11a1.27,1.27,0,0,1-.77-.12l0,0c0-.05,0-.1-.08-.12l-.08,0c-1.93,0-3.84-.2-5.78-.1-3.11.17-6.29.5-9.34-.6a4.54,4.54,0,0,1-3-3.59,23,23,0,0,1,.73-12.93,19.29,19.29,0,0,1,5.14-8.24l.23.08c.24.09.25.17.07.35-.75.77-.32,1.39.19,2a28.68,28.68,0,0,1,2.6,4.36c.27.48.9.78.89,1.41v.13l-.12.07c-.31.14-.7.06-1,.23a1.51,1.51,0,0,1-.22-.11l-.62.3c-1.28.59-2.56,2.46-2.19,3.53.43,1.26,1.68,1.37,2.8,1.57a1.57,1.57,0,0,0,.3,0l3.8.1a3.31,3.31,0,0,1,1.92,0h0l0,0c0,.25-.2.32-.4.38-.9.28-.89.27-.37,1.1.8,1.28,1.4,2.67,2.18,4,1,1.66,2,3.33,2.89,5C229.68,113.19,230.37,113.19,230.74,113.71Z"/><path class="cls-1" d="M203.32,109c-1.17,2.7-2.35,5.39-3.5,8.1a2.42,2.42,0,0,1-1.41,1.41c-2.18.94-4.31,2-6.46,3h0c-.54.18-.65-.17-.47-.51.92-1.67-.51-2.67-1.08-3.9-.19-.4-.62-.71-.77-1.15-.31-.91-1.18-1.15-1.84-1.64v-.08c.2-.48.73-.53,1.08-.8a.2.2,0,0,0,0-.21c-.06-.08-.16-.14-.21-.22a.23.23,0,0,1-.05-.18h0v-.08a1.18,1.18,0,0,0-.26-1.21c-1.33-1.77-2.13-3.84-3.29-5.71a33.88,33.88,0,0,1-2-3.47c-.43-.92-1.47-.76-2.28-.91a16.65,16.65,0,0,0-2,0c-.32,0-.76.08-.83-.45h.31a65.94,65.94,0,0,1,7,0,42.83,42.83,0,0,1,17.34,5.89C203.68,107.41,203.78,107.91,203.32,109Z"/><path class="cls-1" d="M212.83,42.29a14.47,14.47,0,0,1-2.57,6.16c-.32.45-.58.61-1.14.31-2.87-1.51-5.77-3-8.65-4.46a9,9,0,0,1-1.4-1,2.35,2.35,0,0,1-.79-2.85c.92-2.87,1.74-5.76,2.64-8.81,2.83,2.1,6,3.33,8.94,4.85C213.07,38.16,213.37,38.76,212.83,42.29Z"/><path class="cls-1" d="M187.38,90.72a14.41,14.41,0,0,1-2.65,7.81c-.34.46-.58.58-1.13.3-2.69-1.42-5.42-2.78-8.12-4.18a7.5,7.5,0,0,1-1.32-.9c-1.09-.92-1.19-1.47-.77-2.82.75-2.46,1.48-4.93,2.17-7.41.2-.74.39-.82,1-.37a36.77,36.77,0,0,0,6.09,3.27,16.92,16.92,0,0,1,3.65,2.09A2.27,2.27,0,0,1,187.38,90.72Z"/><path class="cls-1" d="M203.71,90.62a14.13,14.13,0,0,1-2.65,7.92c-.34.48-.6.56-1.13.28-2.73-1.43-5.48-2.81-8.21-4.23a7.09,7.09,0,0,1-1.38-1,2.12,2.12,0,0,1-.68-2.5c.85-2.57,1.57-5.18,2.32-7.79.13-.43.19-.68.7-.32a46.36,46.36,0,0,0,7.26,3.87,13.22,13.22,0,0,1,2.74,1.65A2.22,2.22,0,0,1,203.71,90.62Z"/><path class="cls-1" d="M154.45,93a14,14,0,0,1-2.35,5.49c-.33.47-.59.67-1.2.34-2.72-1.44-5.47-2.81-8.21-4.23a6.35,6.35,0,0,1-1.15-.79,2.26,2.26,0,0,1-.86-2.79c.86-2.53,1.54-5.12,2.3-7.69.06-.18.15-.36.25-.61,2.63,1.92,5.6,3.09,8.42,4.53C154.7,88.8,155.09,89.6,154.45,93Z"/><path class="cls-1" d="M171,90.72a14.21,14.21,0,0,1-2.62,7.78.79.79,0,0,1-1.22.29c-2.7-1.41-5.43-2.78-8.13-4.19a7.56,7.56,0,0,1-1.46-1.06A2.09,2.09,0,0,1,157,91.1c.81-2.52,1.54-5.06,2.26-7.61.18-.64.3-.84,1-.38a44.94,44.94,0,0,0,6.92,3.68,12.92,12.92,0,0,1,3.07,1.88A2.19,2.19,0,0,1,171,90.72Z"/><path class="cls-1" d="M180,133.79c-1.08-.95-2.19-1.87-3.22-2.86a1,1,0,0,0-1.37-.2,1,1,0,0,1-1.53-.52c-1.89-3.47-4-6.79-5.88-10.27-1.38-2.56-3-5-4.43-7.51-.87-1.5-1.71-3-2.62-4.51a17.08,17.08,0,0,1-.6-1.79c-.21-.46.62-.39.75-.78a3.62,3.62,0,0,1,1.62-.6c1.34-.51,2,.2,2.64,1.27,2,3.11,3.5,6.49,5.5,9.58,1.74,2.71,3.07,5.64,4.79,8.35s3.12,5.61,4.84,8.32C181,133.12,180.87,133.36,180,133.79Z"/><path class="cls-1" d="M238.38,106.9a8.18,8.18,0,0,0,0,3c-.26-1.22,0-2.46-.82-3.71-1.08-1.7-2.1-3.47-3-5.28s-2.07-3.51-3.09-5.27c-1.84-3.15-3.54-6.38-5.46-9.48a.83.83,0,0,1-.06-.93,4.89,4.89,0,0,0-4.07-.42c.08,0,.11.12,0,.16s0,0-.1,0c-1,.39-1,.52-.59,1.44s1,1.73,1.42,2.63a9.43,9.43,0,0,0,1.12,2.19A25.68,25.68,0,0,1,226.1,95c.9,1.55,1.69,3.16,2.71,4.64a6.38,6.38,0,0,1,.67,1.12c1.07,2.52,2.74,4.72,4,7.16.21.42.68.66.83,1.13.39,1.19,1.31,2.08,1.79,3.23.21.52.48,1,.67,1.55a.9.9,0,0,0,1,.66c.41-.07.49-.35.5-.67a2.15,2.15,0,0,0,.13.6A21.34,21.34,0,0,0,238.38,106.9Zm-.14,6.44c0-.37,0-.72,0-1A3.08,3.08,0,0,1,238.24,113.34Z"/><path class="cls-1" d="M189.84,141.39a36.07,36.07,0,0,1-5.25-3.79,1.24,1.24,0,0,0-.32-1.56.85.85,0,0,1-.34-.49c-.33-1.41-1.35-2.44-2-3.68-1.48-2.93-3.15-5.75-4.83-8.56-2.55-4.27-4.84-8.69-7.5-12.91a46.36,46.36,0,0,1-2.51-4.46c-.4-.84-.81-1.73-2-1.66a.23.23,0,0,1-.22-.35,11.93,11.93,0,0,1,3-1,1.73,1.73,0,0,1,1.59.94c1.57,2.48,2.84,5.13,4.46,7.58a3.71,3.71,0,0,1,.26.86.24.24,0,0,0,0,.08.14.14,0,0,0,0,.06,4.23,4.23,0,0,0,1.07,1.48,2.52,2.52,0,0,1,.77,1.25c0,.06,0,.11,0,.16s0,.07,0,.11h0a32.75,32.75,0,0,0,2.32,4c.89,1.68,1.93,3.27,2.84,4.94,1,1.84,2.08,3.65,3.2,5.43,1.6,2.55,2.86,5.3,4.44,7.86a27.87,27.87,0,0,1,1.44,2.41C190.83,140.9,190.7,141.14,189.84,141.39Z"/><path class="cls-1" d="M198.28,145.65a16.7,16.7,0,0,1-4.63-2c-.05-.06-.07-.17,0-.18,1.12-.32.62-.95.28-1.53-1.85-3.2-3.7-6.42-5.52-9.64-2.15-3.79-4.52-7.48-6.43-11.41-.33-.66-.88-1.18-1.2-1.85-.12-.26-.31-.18-.5-.13s-.47,0-.54-.27h0l0,0a6.66,6.66,0,0,1,3.2-1.93l.07,0,.31,0h0c.84-.09,1.26.53,1.71,1.23a44,44,0,0,1,2.2,3.89c.33.67.72,1.32-.15,1.92-.18.13.24.1.24.27a.92.92,0,0,1-.14.14c-1.42.83-1.42.83-.07,1.87l3.09,2.38c2.3,2.78,3.57,6.18,5.46,9.21,1.25,2,2.46,4,3.58,6.13C199.82,144.71,199.52,145.35,198.28,145.65Z"/><path class="cls-1" d="M184.59,137.6a42.11,42.11,0,0,1-4.62-3.81c.65-.44.64-.87.22-1.56-1.46-2.41-2.74-4.93-4.23-7.32s-2.68-5-4.2-7.34c-1.21-1.89-2.25-3.86-3.44-5.75-.81-1.29-1.38-2.73-2.19-4-.5-.78-.95-1.6-1.47-2.36-.36-.52-.79-1-1.54-.53-.15.1-.32,0-.43-.15a8.16,8.16,0,0,1,2.21-.82s.1.14.13.13c1.45-.28,1.82.84,2.33,1.78,1.46,2.73,3.16,5.33,4.65,8a74.05,74.05,0,0,1,3.69,6.63c.56,1.32,1.55,2.38,2.2,3.67,1.17,2.31,2.68,4.44,3.83,6.77a8.89,8.89,0,0,0,1.46,2.27,2.36,2.36,0,0,1,.63,1.34,2.48,2.48,0,0,0,.89,1.64C185.47,136.8,185.27,137.19,184.59,137.6Z"/><path class="cls-1" d="M193.77,143.5c-.05,0-.08.1-.12.15a19.23,19.23,0,0,1-3.81-2.26c.66-.32.72-.68.3-1.32a60.63,60.63,0,0,1-3.59-6.11c-1-2-2.27-3.91-3.33-5.9-.48-.92-1.05-1.84-1.61-2.73-1-1.53-1.67-3.23-2.7-4.71-.71-1-1-2.4-2.12-3.13-.15-.1-.34-.36-.3-.49.18-.68-.29-1-.63-1.46-.1-.11,0-.25.11-.33l.2.15a22.93,22.93,0,0,1,2.59,2.53c.29.31.53.64,1,.71h0c1.54-.09,1.85,1.27,2.36,2.2,1.22,2.21,2.59,4.34,3.74,6.57.79,1.53,1.86,2.88,2.52,4.5.55,1.36,1.67,2.48,2.3,3.83,1.1,2.33,2.68,4.37,3.76,6.69C194.93,143.41,194.91,143.41,193.77,143.5Z"/><path class="cls-1" d="M131,50a67.14,67.14,0,0,0-.86-7.87.6.6,0,0,0-.18.5l-.06-.18c-1-2.19-2.39-4.21-3.53-6.35a.74.74,0,0,0-1.33-.21l-1.84,4.26c0,.77-.66,1.53,0,2.31l0,0,0,0,0,0h0c.55.55.51,1.41.94,2A45.65,45.65,0,0,1,127,49a50.14,50.14,0,0,1,3.16,5.57c.11.29.32.6.65.53A.28.28,0,0,0,131,55a8.21,8.21,0,0,0,.06,2.1v.07c0,.43,0,.87,0,1.3v0c0,.3,0,.61,0,.91v.23c0,.31,0,.61.48.67C131.58,56.84,131.23,53.41,131,50Zm-1-6.72c0-.11,0-.22,0-.33A.92.92,0,0,1,130,43.26Zm1,11.16a.24.24,0,0,1,0-.12.66.66,0,0,0,0-.14C131,54.25,131,54.33,131,54.42Zm0-.34c0-.13,0-.26,0-.39h0a2.81,2.81,0,0,1,0-.29v.4h0A2.62,2.62,0,0,1,131,54.08Z"/><path class="cls-1" d="M238.37,111.81v2.65a18.17,18.17,0,0,1-1,5.57.94.94,0,0,1-.15-.88,3.24,3.24,0,0,0,.12-.62v0c.08-.31.29-.63-.24-.82-.28-.09-.43-.42-.57-.68-1.59-2.92-3.38-5.72-5-8.63-.79-1.43-1.7-2.79-2.42-4.25a2.82,2.82,0,0,0-1.22-1.29l0,0,0-.05a1.09,1.09,0,0,1-.08-.15.17.17,0,0,1,0-.07,1,1,0,0,0,0-.18c-.19-.65-.87-1.06-.95-1.77v-.1h0a3.1,3.1,0,0,0-.74-2,43,43,0,0,1-2.56-4.29c-1.16-2-2.24-4-3.43-6A5,5,0,0,1,219,86a5.83,5.83,0,0,1,2.85-1.19l.42,0c-.1.3-.39.28-.59.34-.62.2-.66.44-.35,1,.49.91,1,1.89,1.51,2.7a14,14,0,0,0,1.55,2.71,16.82,16.82,0,0,1,2.18,3.63,29.61,29.61,0,0,0,2.28,4c.92,1.17,1.18,2.63,2.07,3.8a14.31,14.31,0,0,1,1.44,2.45c.68,1.42,1.71,2.62,2.4,4,.47,1,1.19,1.81,1.63,2.81.19.44.64.72.54,1.34-.06.38.36.73.8.71s.46-.42.45-.77A4.75,4.75,0,0,1,238.37,111.81Z"/><path class="cls-1" d="M206.41,146a13.44,13.44,0,0,1-8.13-.37c1.31-.85,1.29-.9.47-2.34q-4-6.93-7.87-13.91a1.38,1.38,0,0,0-.63-.57c-.18-.09-.53-.32-.05-.54a28.51,28.51,0,0,0,4.29,2.46l.94.56a.43.43,0,0,0,.36.52c.76.1,1,.68,1.29,1.25,1.13,2.1,2.36,4.13,3.57,6.18,1.06,1.82,2.07,3.67,3.06,5.54.49.93.25,1.28-.78,1.29h-.62a15.71,15.71,0,0,0,3-.32A1.1,1.1,0,0,1,206.41,146Z"/><path class="cls-1" d="M162.06,42.92c-1,.86-1.75.81-2.57-.2-.36-.46-.67-1-1.11-1.61a6.71,6.71,0,0,1-.46,1.81,2.2,2.2,0,0,1-2.2,1.57,2.36,2.36,0,0,1-2.06-1.8,17.46,17.46,0,0,1-.58-4.07c-.11-1.57-.16-3.15-.19-4.72,0-.39-.12-1,.44-1.07s.6.59.67,1a27.11,27.11,0,0,1,.47,5.4,2.12,2.12,0,0,0,.57,1.55,1.37,1.37,0,0,0,1.65.33,1.17,1.17,0,0,0,.82-1.24,23.31,23.31,0,0,0-.57-4.79,5.52,5.52,0,0,1-.09-1.9c0-.34.16-.68.56-.73s.54.34.6.66a10.71,10.71,0,0,1,.22,1.69,9.55,9.55,0,0,0,1.3,4,2.66,2.66,0,0,0,.61.8c.37.32.78.73,1.33.41s.14-.84,0-1.24c-.4-1.31-.83-2.62-1.27-3.92a4,4,0,0,1,.27-2.74c.06-.18.14-.41.37-.42s.38.26.44.47c.67,2.21,1.41,4.4,1.94,6.64A4,4,0,0,1,162.06,42.92Z"/><path class="cls-1" d="M208.22,145.61a4.09,4.09,0,0,1-1.81.41c-1.56-.05-3.1.4-4.7.09.32-.22.66-.1,1-.11,1.21,0,1.33-.2.72-1.27-2.07-3.65-4.17-7.28-6.25-10.92a9,9,0,0,1-.49-1c-.17-.42-.32-.75-.89-.76-.35,0-.71-.28-.34-.76,1.13.79,2.53.87,3.77,1.38l-.65.07h0a5,5,0,0,0,1.9.55,1.78,1.78,0,0,1,1.57,1.18,33.34,33.34,0,0,0,2.74,4.74c1.05,1.62,1.77,3.41,2.83,5,.4.61-.37.76-.49,1.28Z"/><path class="cls-1" d="M175.38,130.73a5.65,5.65,0,0,1-1.6,1c-1.4.41-1.45.23-2.14-1.08a30.47,30.47,0,0,0-2.25-3.87c-.53-.73-.86-1.41-.06-2.15.43-.45,0-.71-.24-1l-3-2.84a6.85,6.85,0,0,0-1.33-2.55,9.26,9.26,0,0,1-1.11-2.11c-1.24-2.57-3-4.85-4.17-7.44a4.85,4.85,0,0,0-.75-1.06,1,1,0,0,1-.06-1.35,9.66,9.66,0,0,1,2.42-1c.14,0,.4,0,.19.27s-.59.12-.78.41c.12.12.33.23.36.38.57,2.63,2.4,4.59,3.61,6.88.69,1.3,1.51,2.51,2.24,3.77,1.11,1.93,2.17,3.88,3.2,5.85s2.42,3.63,3.25,5.67c.26.66.88,1.16,1.1,1.87S175.09,130.26,175.38,130.73Z"/><path class="cls-1" d="M147,101.25c-.28-.3-.62,0-.91.13a2.1,2.1,0,0,0-.44.4c-1.54,1.64-3.14,3.21-4.74,4.78a9.54,9.54,0,0,0-2.9,5.18,2.39,2.39,0,0,0,1.84,3,5.72,5.72,0,0,0,6.51-2.92c1-2.47,0-4.9-2.71-6.24,1-1.2,2.06-2.39,3.06-3.59C146.88,101.79,147.29,101.56,147,101.25Zm-2.47,10.14c.05.44-.07.61-.51.6s-.94,0-1.4.06c-.17,0-.34,0-.5,0-.7-.06-1.48.16-1.72-.89a2.81,2.81,0,0,1,.66-2.86.78.78,0,0,1,.75-.09A4,4,0,0,1,144.53,111.39Z"/><path class="cls-1" d="M239.15,71.82c-.3-.3-.68,0-1,.23a2.49,2.49,0,0,0-.44.42c-1.49,1.58-3,3.12-4.6,4.63a9.8,9.8,0,0,0-2.76,4.49c-.68,2.49.4,3.9,3.15,3.91.17,0,.51,0,.84-.08a5.1,5.1,0,0,0,4.41-3.72c.47-2.21-.34-4-2.52-5.29-.52-.31-.27-.46,0-.72.88-1,1.76-2,2.63-3C239,72.41,239.47,72.14,239.15,71.82Zm-2.41,10.27c0,.43-.13.52-.5.52h-1.4v0a4,4,0,0,1-.6,0c-.63-.06-1.4.27-1.62-.8a3,3,0,0,1,.63-2.94.78.78,0,0,1,.75-.06A4,4,0,0,1,236.74,82.09Z"/><path class="cls-1" d="M184.1,31.69c-.34-.32-.84.18-1.18.5l-.14.15c-1.53,1.54-3.08,3.07-4.61,4.62a10.17,10.17,0,0,0-2.95,5.27,2.39,2.39,0,0,0,1.75,3,5.39,5.39,0,0,0,3,0c2.93-.76,4.55-3.2,3.83-5.85a4.76,4.76,0,0,0-2.94-3.27c1-1.13,1.91-2.18,2.79-3.26C183.89,32.48,184.56,32.11,184.1,31.69ZM181.78,42c0,.43-.15.53-.51.53h-1.49v0a4.17,4.17,0,0,1-.5,0c-.6-.09-1.35.27-1.6-.74-.32-1.28-.13-2.51.6-3a.74.74,0,0,1,.66-.09A4,4,0,0,1,181.78,42Z"/><path class="cls-1" d="M188.65,112.8h-.14a2.12,2.12,0,0,0-.65-.15h-.56a3.85,3.85,0,0,1-.58-.08h0a11.43,11.43,0,0,0-2-.35c-.1,0-.19,0-.29-.06a4.84,4.84,0,0,0-.54-.17,1.09,1.09,0,0,1-.25-.1h0a.65.65,0,0,1-.18-.15l0,0v0s0,0,0,0v0a.31.31,0,0,1,0-.21.7.7,0,0,0,.14-.89c-1.32-2.72-3-5.2-4.57-7.79a1.92,1.92,0,0,0-2.43-1,1.92,1.92,0,0,1-1.09,0c-.18,0-.4-.12-.3-.4a13.57,13.57,0,0,1,2.83-.38c.3.34.7.23,1,.2a21.23,21.23,0,0,1,3.73.28c.3,0,.35.29.44.49,1.35,2.87,3.27,5.43,4.57,8.32.27.62.92,1,1.12,1.65C189,112.23,189.31,112.63,188.65,112.8Z"/><path class="cls-1" d="M191.82,120.51c.2.3-.64.74.13,1h0a45.25,45.25,0,0,1-4.63,2.42l-.68.08s0-.15,0-.16c1.24-.75.66-1.63.17-2.49-.74-1.29-1.58-2.54-2.22-3.88-.39-.8-1.1-.33-1.56-.66a.71.71,0,0,1,0-.15c.05-.18.23-.28.38-.38,1.18-.78,2.51-1.31,3.72-2a.56.56,0,0,1,.7,0l0,0c1.93.29,2.15,2.21,3.18,3.36a7.87,7.87,0,0,1,.91,1.64C192.16,119.66,192.64,120.14,191.82,120.51Z"/><path class="cls-1" d="M183.42,111.59l0,0a1.7,1.7,0,0,1-.35.19,3.8,3.8,0,0,1-1.71,0l-1.06-.11-.8-.07-.27-.1a.43.43,0,0,1-.17-.12c-.06-.08-.05-.19.12-.36.44-.45.25-.85,0-1.26-1.22-2.22-2.34-4.5-3.77-6.59a2.57,2.57,0,0,1-.65-1.33.86.86,0,0,1,0-.16s0-.06,0-.09h0a.06.06,0,0,0,0,0l0,0c0-.07.1-.14.15-.21l.19,0c.28.36.68.25,1,.21,2.34-.24,2.37-.21,3.5,1.77q2.13,3.7,4.33,7.38C184.49,111.47,183.56,111.25,183.42,111.59Z"/><path class="cls-1" d="M220.23,76.28c-1-1.67-1.85-3.45-2.93-5.09a2.69,2.69,0,0,1-.58-1.14,1.13,1.13,0,0,0-1.33-1.15,3,3,0,0,0-1.45.21.46.46,0,0,0,.34.13c-.36,0-.72.07-1.08.1a4.21,4.21,0,0,1-.5,0h-.24c-.89,0-1,.28-.45,1.13,1.55,2.49,2.77,5.17,4.4,7.62.48.72.93,1.16,1.82.92a7.65,7.65,0,0,0,2.25-1.21A1.91,1.91,0,0,0,220.23,76.28Zm-5.82-7a.88.88,0,0,1,.46,0A3.49,3.49,0,0,0,214.41,69.24Z"/><path class="cls-1" d="M213.64,80.56v0a.73.73,0,0,1-.43.11h0l-.06,0a4.11,4.11,0,0,1-1.35.22h0a7.9,7.9,0,0,1-1.72-1.92,63.44,63.44,0,0,1-3.48-6c-.89-1.7-1.92-3.33-2.9-5-1.27-2.17-2.52-4.37-3.86-6.51-.27-.43.14-1-.36-1.26a4.43,4.43,0,0,1,1.19-1.62c.15-.08.3,0,.32.11.23,2.38,1.85,4.08,2.95,6,.88,1.56,1.86,3.08,2.68,4.69,1,2,2.29,3.82,3.3,5.8.64,1.25,1.45,2.39,2.15,3.6a2.52,2.52,0,0,0,1.23,1.34l.14,0h0A.38.38,0,0,1,213.64,80.56Z"/><path class="cls-1" d="M179.19,111.39a.33.33,0,0,1,0,.14.27.27,0,0,1-.16.21.88.88,0,0,1-.28.06,19.81,19.81,0,0,0-3.07.38,1.09,1.09,0,0,1-.36,0h0a.49.49,0,0,1-.33-.26.21.21,0,0,1,.07-.19c1.12-.71,1.14-.72.42-1.9-1.15-1.88-2.19-3.82-3.3-5.72-.47-.81-1-1.43-2.06-1.21-.24,0-.57,0-.58-.35a19.47,19.47,0,0,1,3.38-.86l.15,0,.08,0h0a1.58,1.58,0,0,0,.77-.09l.14,0a1,1,0,0,1,.71,0h0a.87.87,0,0,1,.18.11c.12,1.06,1,1.68,1.46,2.55,1.05,2,2.15,4,3.26,5.9C180,110.83,179.49,111.05,179.19,111.39Z"/><path class="cls-1" d="M238.5,111.12a3.11,3.11,0,0,1-.34-2.11,3.64,3.64,0,0,0-.72-2.37c-.58-.74-.91-1.74-1.49-2.54-1-1.38-1.41-3.06-2.49-4.4-.6-.74-.9-1.69-1.45-2.5a50,50,0,0,1-2.54-4.36c-1-1.78-2.09-3.51-3-5.36a4.93,4.93,0,0,0-.76-1.14c-.23-.26-.91-.88.14-1.11a3.49,3.49,0,0,1,1.55,1c0,.07,0,.15,0,.19,1.58,1.34,2.32,3.26,3.33,5,.84,1.39,1.57,2.86,2.37,4.29,1,1.78,2.18,3.46,3.1,5.28a28.77,28.77,0,0,1,1.32,2.67c.06.13.09-.17.21-.16a10.53,10.53,0,0,1,.61,3.42C238.18,108.22,238.59,109.53,238.5,111.12Z"/><path class="cls-1" d="M250.27,130.43a3.16,3.16,0,0,0-.15-2.7c-1.14-1.64-2-3.44-3-5.17-.23-.38-.39-1-.91-.93a.37.37,0,0,0-.27.18.59.59,0,0,0-.33-.36c.17,3.22.17,6.44.18,9.66a.47.47,0,0,0,.42-.23.83.83,0,0,0,0-.58s0-.06,0-.08a4.13,4.13,0,0,1-.07-.49l.07.18c.07.15.14.31.22.46.69,1.41,1.62,2.69,2.4,4a.43.43,0,0,0,.7.18c-.1.36-.23.71.14,1a27,27,0,0,0,.79-4.89.86.86,0,0,0-.25.1C250.21,130.69,250.24,130.56,250.27,130.43Zm-4.21-5.74s0-.07-.06-.06h0c-.08,0,0,0,0,0s.06,0,.07.05,0,.29,0,.44C246.08,125,246.07,124.83,246.06,124.69Zm-.14-1.78c.11,0,0,.09,0,0Zm0-.61a1.35,1.35,0,0,1,0,.53h0A.77.77,0,0,1,245.89,122.3Zm.21,7.1c0-.37,0-.75,0-1.12Zm0-1.9a.86.86,0,0,1,0-.16v-.12c0-.39,0-.78,0-1.17,0,.39,0,.78,0,1.17Zm4.06,4.12v0c0-.06,0-.11,0-.17a.77.77,0,0,1,0,.15A.13.13,0,0,1,250.16,131.62Z"/><path class="cls-1" d="M183.45,111.72h0a.18.18,0,0,1,0,.1h0l-.37,0a3.8,3.8,0,0,1-1.71,0l-1.06-.11-1.23,0a.88.88,0,0,1-.28.06,19.81,19.81,0,0,0-3.07.38,1.09,1.09,0,0,1-.36,0h0c-.35.06-.71.14-1.06.22a.14.14,0,0,0,0,.06l-.07,0c-.55-.45-.6-1.18-1-1.74-1.48-2.13-2.53-4.52-3.94-6.7a2.93,2.93,0,0,0-1.36-1,3.1,3.1,0,0,1,1.61-.39.46.46,0,0,0,.54.15c1.1-.44,1.68.19,2.17,1,1.21,2.1,2.45,4.18,3.63,6.29.79,1.4.76,1.42-.68,2l3.82-.58.17,0c1.4-.07,2.78.32,4.19.2h0A.31.31,0,0,1,183.45,111.72Z"/><path class="cls-1" d="M156.76,58.32c-.24.09-.55.14-.7.32s.11.21.24.25l-2,1c-.36.2-.45,0-.55-.31a20.17,20.17,0,0,0-2.8-4.79c-.25-.33-.53-.62-.13-1a14.07,14.07,0,0,1,2.42-2c.56.87.79-.09,1.16-.27A51.58,51.58,0,0,0,157.22,57C157.63,57.85,157.44,58.07,156.76,58.32Z"/><path class="cls-1" d="M159.36,116.54a26.17,26.17,0,0,0-3.9.71l-3.34,1.37c-.35.14-.75.46-1.1.09s-.05-.71.08-1c.75-1.86,1.81-3.58,2.7-5.38l1.25-2.51a.26.26,0,0,1,.33.27c.11,1.44,1.08,2.48,1.71,3.68.1.18.25.32.34.5C157.88,115.14,158.12,116.21,159.36,116.54Z"/><path class="cls-1" d="M231.62,114.44l-2-.62.86,0c-1.05-.18-1.31-1-1.73-1.79-1.07-1.92-2.17-3.81-3.29-5.69a21.44,21.44,0,0,0-1.78-3.12c-.41-.48-.29-.87.46-.84.32,0,.67.1.92-.21h0a1.49,1.49,0,0,1,1.73.06.64.64,0,0,1,.08.14h0c0,.11,0,.23-.1.27-.9.27-.46.76-.22,1.21,1.21,2.26,2.56,4.45,3.9,6.64a32.86,32.86,0,0,1,1.62,3.32C232.27,114.1,232.36,114.62,231.62,114.44Z"/><path class="cls-1" d="M144.24,68q-1.44,1.7-2.87,3.4c-.54.48-1,.43-1.43-.17a5.33,5.33,0,0,1-1.22-3.47,30.59,30.59,0,0,1,3.05-4.2,4.05,4.05,0,0,1,2.36,3.64A5.49,5.49,0,0,0,144.24,68Z"/><path class="cls-1" d="M237.77,103.48c0,.23-.05.46-.08.8-1-1.83-1.84-3.58-2.78-5.29-.61-1.1-1.39-2.11-2-3.21-1.33-2.42-2.8-4.76-4-7.26a9.86,9.86,0,0,0-1.51-1.82c-.1-.13-.5-.29,0-.46,5.06,4.25,8.12,9.77,10.08,16A3.07,3.07,0,0,1,237.77,103.48Z"/><path class="cls-1" d="M166.07,120.86l-3.21-2.42a73.68,73.68,0,0,0-5.18-9.42,4.49,4.49,0,0,1-.64-1.86,3.52,3.52,0,0,1,1.61-.81l.26.11c-.74.6,0,1,.23,1.41,1.51,2.69,3.2,5.27,4.56,8,.76,1.54,1.82,2.93,2.53,4.5C166.34,120.67,166.47,120.82,166.07,120.86Z"/><path class="cls-1" d="M130.13,42.11c0,.42,0,.84-.07,1.35a24.83,24.83,0,0,0-1.67-3.3c-.73-1.23-1.37-2.51-2.1-3.74-.23-.39-.47-1.23-1.11-.27-.05.08-.1-.18-.15-.28.47-1.21.9-2.44,1.4-3.64.34-.8.91-.85,1.43-.13a6.44,6.44,0,0,1,.92,2.21A42.87,42.87,0,0,1,130.13,42.11Z"/><path class="cls-1" d="M213.44,80.26a.57.57,0,0,1,0,.14c-1.15,0-1.27-1.09-1.77-1.76-1.52-2-2.34-4.43-3.88-6.45a16.87,16.87,0,0,1-1.33-2.49c-.86-1.65-1.81-3.23-2.77-4.82a37.76,37.76,0,0,1-2.39-4.21,5.25,5.25,0,0,1-.61-2,6.77,6.77,0,0,1,1.68-1.78c.41-.18.54.08.35.34A1.25,1.25,0,0,0,202.9,59a.81.81,0,0,1,0,.92h0a1,1,0,0,0,0,1,13.87,13.87,0,0,0,1.6,3.45h0l.22.19h0c.8.8,1,2,1.53,2.9,1.79,3,3.42,6.09,5.18,9.12.57,1,1.15,1.95,1.71,2.93A1.16,1.16,0,0,1,213.44,80.26Z"/><path class="cls-1" d="M245.66,39.25a23.51,23.51,0,0,0-.08,4.89.77.77,0,0,1-.16.62l0,0c-.46,1.15.14,2.27.1,3.4v.33a3.71,3.71,0,0,1-1.34-2,23.06,23.06,0,0,0-2.09-3.36,1.12,1.12,0,0,1-.15-.81c.06-.54.26-1.12-.16-1.63h0a16.24,16.24,0,0,1,.74-3.44c.76,0,1,.58,1.28,1.07s.39,1,.93,1.31c.64-.88.13-2,.8-2.93A5.84,5.84,0,0,1,245.66,39.25Z"/><path class="cls-1" d="M251.24,120.44c-.46,1-.1,2.12-.25,3.17h0a1.91,1.91,0,0,0-.31,1.72c-.08-.21-.2-.45-.32-.69-.41-.85-1-1.59-1.42-2.43-.79-1.51-1.67-3-2.47-4.48-.17-.31-.39-.59-.77-.53a.23.23,0,0,0-.13.06,5,5,0,0,0-.09-1.8v0c-.11-.34.07-.79-.08-1.11h0A.69.69,0,0,0,245,114c.12,2.49.27,5,.62,7.45.47.54,0,1.24.3,1.83.27-.49-.08-1.07.23-1.52.31,0,.35.25.43.41.57,1.07,1.1,2.19,1.74,3.2,1.13,1.77,2.5,3.37,1.74,5.69a2.21,2.21,0,0,0,0,.71.5.5,0,0,0,.1-.19s0,0,0,0c.09-.32-.06-.67.27-.85A60.87,60.87,0,0,0,251.24,120.44Zm-5.76-2.75a.27.27,0,0,1,0,.12Z"/><path class="cls-1" d="M218.23,79a9.05,9.05,0,0,1-2.82,1.21c.13-.46-.33-.62-.48-.94-1.54-3.21-3.42-6.23-5.21-9.31-.49-.84-.36-1.22.46-1.45l1.61.61a3.81,3.81,0,0,0,2,0c0-.05.08-.06.14,0l1.37.09a11.87,11.87,0,0,1-2.95.35c-.44,0-.61.06-.32.57,1,1.75,2.12,3.47,3,5.32.54,1.14,1.43,2.13,2,3.27.24.45.58.15.86,0C218.41,78.51,218.3,78.78,218.23,79Z"/><path class="cls-1" d="M250.83,121c-.05.5,0,1,0,1.5a.67.67,0,0,1-.25,0c-.36-.1-.45-.5-.62-.79-1.39-2.39-2.69-4.83-4.16-7.2-.29.26,0,.77-.31,1a.52.52,0,0,1-.26.11c-.14-.51.19-1.1-.25-1.57a13.78,13.78,0,0,1-.21-3c.51-.47,0-1.17.39-1.75,1,1.76,2.07,3.48,3.07,5.21.63,1.08,1.19,2.22,1.86,3.27A5,5,0,0,1,250.83,121Z"/><path class="cls-1" d="M215.41,80.23a5.14,5.14,0,0,1-2.2.61.13.13,0,0,1-.07-.08.09.09,0,0,1,0-.07.14.14,0,0,1,0-.08h.41l0,0c.22-.18.38-.33.2-.7-.52-1.09-1.21-2.07-1.8-3.11-1.61-2.85-3.24-5.69-4.81-8.56a1.26,1.26,0,0,1,0-1.53l3,1.87a.72.72,0,0,0-.32,1.23c1.6,2.26,2.66,4.85,4.23,7.14.63.9.87,2.09,1.54,3C215.65,80,215.49,80.13,215.41,80.23Z"/><path class="cls-1" d="M131.49,64.11c0,.23,0,.51-.25.59s-.44-.12-.6-.29a3.19,3.19,0,0,1-.52-.74c-1.78-3.34-3.72-6.59-5.64-9.84v0l0,0c0-.12,0,.05,0-.08s0-.06,0,0a2.61,2.61,0,0,1,.06.27.83.83,0,0,1-.23.93l-.39-3.41h0a7.49,7.49,0,0,1-.08-1.64.86.86,0,0,0,0-.16v-.07c0-.15.07-.27.33-.13a1.49,1.49,0,0,1,.61.78C125.59,52.3,127,54,128,56c.67,1.3,1.47,2.54,2.13,3.85a13.85,13.85,0,0,0,1,1.46s.07.11.11.17.09.17.13.26a4.59,4.59,0,0,1,.06.73h0c0,.44,0,.87,0,1.3Z"/><path class="cls-1" d="M246,49.32a2.68,2.68,0,0,1,0,.49c-.05-.14-.1-.28-.14-.42h0a16.85,16.85,0,0,1-.29-2.46c-.09-.71.21-1.46-.2-2.14v0c-.07-2.6.06-5.2.14-7.81-.15.88-.15,1.77-.33,2.64-.06.26,0,.59-.32.68s-.51-.22-.68-.47c-.56-.83-.73-1.94-1.71-2.49a15.84,15.84,0,0,1,2-4.77c.25-.4.48-1,1.08-.86s.46.78.47,1.23a25.21,25.21,0,0,1-.07,3A65.94,65.94,0,0,0,246,49.32Z"/><path class="cls-1" d="M132.5,77.16c0,.34-.14.63-.52.57s-.27-.41-.27-.65c0-3,0-6,0-8.93l0-.06a2.65,2.65,0,0,0-.88-1.11,6,6,0,0,1-1.22-1.93q-2.34-4-4.58-8l-.11-.2h0l0,0a3.32,3.32,0,0,1-.4-2.21c0-.22,0-.44,0-.65a1.09,1.09,0,0,0,0-.18.86.86,0,0,1,0-.16,8.63,8.63,0,0,1,2,3c1.23,2.41,2.9,4.56,4,7.05a1.33,1.33,0,0,0,.88.92v-2.9a.62.62,0,0,1-.1-.42.21.21,0,0,1,.18-.14c.27-.06.2.26.22.43a15.31,15.31,0,0,0,.12,3c.27,4.06.2,8.12.3,12.18C132,76.84,131.59,77.79,132.5,77.16Z"/><path class="cls-1" d="M152.06,61.3a23,23,0,0,1-2.48,1.8c-.43.26-.58-.14-.78-.36A7.39,7.39,0,0,1,147.73,61c-.44-.84-.71-1.79-1.76-2.14-.13,0-.07-.22,0-.33a16.28,16.28,0,0,1,2.18-2.29,2.56,2.56,0,0,1,2.19,1.63C150.93,59,151.58,60.1,152.06,61.3Z"/><path class="cls-1" d="M171.57,133.17a7.84,7.84,0,0,1-2.24,1.34c-1.28-1-1.74-2.63-2.61-4-.52-.79-.81-1.73-1.31-2.54-.23-.37-.08-.46.13-.63s.39-.24,0-.3l1.59-1c.21-.13.46-.11.45.14a4.93,4.93,0,0,0,1,2.36c.47.92,1.08,1.75,1.51,2.69A8.6,8.6,0,0,0,171.57,133.17Z"/><path class="cls-1" d="M154.27,59.89l-2.21,1.41a4,4,0,0,1-1.2-1.93c-.34-.82-.89-1.49-1.23-2.27s-1.18-.27-1.46-.91a17.17,17.17,0,0,1,2.62-2.42c-.16.38.08.59.3.86a27.35,27.35,0,0,1,2.79,4.49C154,59.37,153.72,59.86,154.27,59.89Z"/><path class="cls-1" d="M149.58,63.1A19.49,19.49,0,0,1,147,65.32c-.15.13-.34.14-.42,0-.36-.87-1.09-1.51-1.41-2.42a2.47,2.47,0,0,0-1.6-1.58A18.35,18.35,0,0,1,146,58.48c1.49.55,1.69,2.07,2.4,3.21C148.73,62.22,149,62.81,149.58,63.1Z"/><path class="cls-1" d="M173.78,131.77a11.79,11.79,0,0,1-2.21,1.4,3.52,3.52,0,0,1-1.69-1.65c-.81-1.41-1.53-2.88-2.41-4.24-.27-.42.15-1-.38-1.21l2.24-1.4c.48.07.25.31.06.42-.62.33-.46.7-.1,1.11,1,1.14,1.3,2.75,2.41,3.84a1.45,1.45,0,0,1,.24.64c.22.82.48,1.53,1.54.9C173.61,131.51,173.72,131.64,173.78,131.77Z"/><path class="cls-1" d="M162.86,118.44l-3-1.4c.16-.27.46-.15.71-.24-1.53-2.21-2.7-4.62-4.07-6.91-.39-.66-.81-1.35-.18-2.11a1.81,1.81,0,0,1,.75-.62c.72,1.63,1.74,3.1,2.61,4.65s1.53,2.87,2.41,4.23c.46.71.5,1.59,1.08,2.22C163.22,118.35,163,118.42,162.86,118.44Z"/><path class="cls-1" d="M226.81,100.55l-.09,0c-.86-.38-1.18-1.2-1.58-2v0s0-.08,0-.12a1.74,1.74,0,0,0-.8-1,5.64,5.64,0,0,1-1.62-2c-1.4-2.48-2.72-5-4.23-7.41a2.32,2.32,0,0,1-.45-1.41A2,2,0,0,1,219,86c1.06,1.77,2.21,3.49,3.17,5.31s2.12,3.63,3.08,5.49a9.91,9.91,0,0,0,1.37,2.07A1.52,1.52,0,0,1,226.81,100.55Z"/><path class="cls-1" d="M161,117.11l-1.18-.07a11.69,11.69,0,0,0-4.37.21,10.55,10.55,0,0,1,3.63-.75c-.76.11-1.11-.37-1.32-.93a27.93,27.93,0,0,0-2-3.53,5.54,5.54,0,0,1-.71-2.26,2.46,2.46,0,0,1,1.24-2l.23.13c-.81.76-.09,1.43.24,2C158.17,112.27,159.39,114.75,161,117.11Z"/><path class="cls-1" d="M147,65.32,144.24,68c-.22-.1-.46-.24-.43-.5a3.64,3.64,0,0,0-1.95-3.67c-.06,0-.06-.18-.09-.27a12.18,12.18,0,0,1,1.8-2.25c1.12-.29,1.43.63,1.72,1.31A21.33,21.33,0,0,0,147,65.32Z"/><polygon class="cls-1" points="136.71 44.01 136.72 44.01 136.72 44.01 136.71 44.01"/><path class="cls-1" d="M138.33,46.38c-1-1.19-.33-2.77-1.05-4-.21.58.26,1.34-.56,1.67h0l0-.15v0c-.16-.81.16-1.66-.17-2.45A49.41,49.41,0,0,1,136,33.5a2,2,0,0,1,.67-1.72.6.6,0,0,1,.65-.13c.23.12.18.34.17.53a29.44,29.44,0,0,0,.23,4.5h0l.06.22c.12.68-.15,1.39.16,2.05l0,0,0,0c.21.65-.15,1.36.2,2v0h0C138.21,42.75,138.39,44.56,138.33,46.38Z"/><path class="cls-1" d="M222.09,76.8a5.09,5.09,0,0,1-1.61,1c-.44-.38-.15-1-.44-1.44-1-1.66-2-3.38-3-5.08-.18-.31-.51-.62-.52-.93a1.48,1.48,0,0,0-1.15-1.46l1.43-.35a1.22,1.22,0,0,1,1.18.55c1.4,2.06,2.52,4.3,3.79,6.44A3.38,3.38,0,0,1,222.09,76.8Z"/><path class="cls-1" d="M221.64,96.53h-.08a1.52,1.52,0,0,1-.92-.08.84.84,0,0,1-.21-.18l0,0c-1.08-.53-1.23-1.75-1.83-2.63-.78-1.15-1.37-2.43-2.23-3.54-.42-.54-.6-1.11.13-1.6.12-.08.34-.25.18-.35a.53.53,0,0,0-.23-.08,1.29,1.29,0,0,1,.62-.6.24.24,0,0,1,.41.06c1.62,2.68,3,5.48,4.59,8.19C222.36,96.25,222.25,96.5,221.64,96.53Z"/><path class="cls-1" d="M213.64,80.58h0l-.19-.19-.12-.19q-2.24-4-4.49-7.93c-1-1.83-2.17-3.62-3.16-5.49a20.69,20.69,0,0,0-1.09-2.46h0l.22.19h0c.8.72,1.61,1.43,2.42,2.14a2,2,0,0,0,.32,1.47c1.47,2.84,3.16,5.55,4.66,8.36.65,1.21,1.64,2.23,2,3.61C214.2,80.42,214.26,80.41,213.64,80.58Z"/><path class="cls-1" d="M224.85,74.77A4.41,4.41,0,0,1,223.29,76c-.27.15-.52.09-.46-.23.14-.86-.4-1.45-.75-2.11-.78-1.43-1.74-2.77-2.44-4.24-.29-.61-1.07-.64-1.22-1.3l1.8-.63a5,5,0,0,1,2.1,2.4c.74,1.3,1.42,2.63,2.26,3.85C224.83,74.11,224.36,74.55,224.85,74.77Z"/><path class="cls-1" d="M223.29,76a3.4,3.4,0,0,1-1.2.81c-.1,0-.26,0-.28-.09-.84-2.82-2.66-5.12-4.09-7.62-.23-.4-.68-.24-.9-.54l1.6-.44c1.52.45,1.72,2,2.48,3a32,32,0,0,1,1.8,3.12c.26.47.72.91.3,1.53C222.94,75.91,223.16,76,223.29,76Z"/><path class="cls-1" d="M131.72,64.51a2.25,2.25,0,0,1-.23-.78,8.07,8.07,0,0,1,0-1.3h0a4.12,4.12,0,0,0-.06-1.11c-.09,0-.13.06-.13.12s0,.18,0,.25c-1.41-1.26-2-3-3-4.59-1.08-1.74-1.85-3.68-3.19-5.24-.56-.66-.41-1.6-1.07-2.17-.08-.07-.1-.16-.21-.07a.18.18,0,0,1-.09.07.14.14,0,0,1-.13-.07l0,0,0-.06h0v0h0c-.13-.34,0-.72-.14-1l0-.51h0a8.36,8.36,0,0,1-.07-1.73.22.22,0,0,1,.08-.18h0a.28.28,0,0,1,.11-.05l.09,0h0a.49.49,0,0,1,.2.3v.31c0,.07,0,.13,0,.19h0a6.78,6.78,0,0,0,1.24,2.49c2,3.29,3.64,6.76,5.82,9.95a2.52,2.52,0,0,1-.1-.76V58.3c.09-.4-.17-.92.18-1.24a.9.9,0,0,1,.26-.17c.17,1.13-.24,2.3.25,3.4A29.75,29.75,0,0,1,131.72,64.51Z"/><path class="cls-1" d="M247.82,141.81a16.48,16.48,0,0,1-2,3.93c-.23.35-.46.9-1,.74s-.4-.74-.42-1.16a29.82,29.82,0,0,1,.41-4.9c.06-.5.18-1,.27-1.48.34-.48,0-1.09.23-1.6a.66.66,0,0,1,.25.09l0,0a.56.56,0,0,1,.16.5,4.51,4.51,0,0,0,1,2.65c.18.28.28.58.73.57S247.86,141.55,247.82,141.81Z"/><path class="cls-1" d="M225.23,98.52h-.09s0-.08,0-.12a6.5,6.5,0,0,0-3.56-1.88,1.52,1.52,0,0,1-.92-.08,2.16,2.16,0,0,0-.36,0c-.31.14-.7.06-1,.23a1.51,1.51,0,0,1-.22-.11c.36-.51.9-.17,1.34-.3h1.66c-1.72-2.93-3.14-6-5-8.82a2.65,2.65,0,0,1,1-.81l2.6,4.63c1,1.72,1.89,3.47,2.94,5.14a9.31,9.31,0,0,0,1.51,1.42C225.25,98,225.66,98.19,225.23,98.52Z"/><path class="cls-1" d="M234,116.21h0a7.57,7.57,0,0,0-2.31-1.78c.66-.13.32-.41.17-.77-1.2-3-3.1-5.51-4.61-8.29l-1.45-2.62c.28-.46.89,0,1.15-.44l0,0h0a.6.6,0,0,1,.77,0l.2.17a1.77,1.77,0,0,1,0,.23l0,.05a.94.94,0,0,1-.34.19l-.08,0h0c-.22.87.41,1.49.79,2.07,1.76,2.72,3.13,5.66,4.8,8.42.4.65.86,1.27,1.24,1.93S234.51,116.08,234,116.21Z"/><path class="cls-1" d="M249.27,137.09a17.35,17.35,0,0,0-.44,1.72,5.62,5.62,0,0,1-.62,2c-.38-1.79-1.62-3.14-2.47-4.69l-.09-.19a1,1,0,0,1,0-.52.67.67,0,0,0-.08-.64v-.2a15.91,15.91,0,0,0,.11-2.67c0-.14,0-.29.07-.43v-.32c.49-.84.12-1.75.22-2.63a11.78,11.78,0,0,0,0-1.19c0-.05.06-.07.09-.07h0s.06,0,.09.06v2.62a1.54,1.54,0,0,1,.22.47,1.37,1.37,0,0,1,0,.57,5.19,5.19,0,0,0,1.22,3.89c.45.6.35,1.71,1.51,1.74C249.36,136.57,249.33,136.91,249.27,137.09Z"/><path class="cls-1" d="M141.37,71.36c-.41.6-.81,1.21-1.21,1.81-.56.12-.47,1.13-1.09,1-.44-.12-.33-.85-.64-1.24s-.67-1.07-1-1.58a1.63,1.63,0,0,1-.33-1.2,14.52,14.52,0,0,1,1.65-2.39.67.67,0,0,1,.36.65c-.22,1.08.49,1.79,1,2.56.24.38.59,1.1,1.12.18C141.25,71,141.34,71.24,141.37,71.36Z"/><path class="cls-1" d="M249.65,135.6a14.69,14.69,0,0,1-.82,3.21,9.32,9.32,0,0,1,.37-2.16c-.52.62-.82.32-1-.16a32.67,32.67,0,0,0-1.78-3.23c-.39-.74-.13-1.51-.21-2.26,0,0,0-.08,0-.12q0-.33,0-.66v-.31h0c1.05,1,1.54,2.47,2.41,3.64.24.33.09,1.19,1,.8C249.58,134.76,249.62,135.18,249.65,135.6Z"/><path class="cls-1" d="M237.54,118.43c-.07.54-.13,1.07-.2,1.6l0,.06-.07,0c-.62.27-.92-.2-1.2-.58a20.17,20.17,0,0,1-1.32-2.07c0-.59-.67-.71-.78-1.2h0c.62-.15.21-.53.07-.72a36.33,36.33,0,0,1-2.25-3.74c-1-1.75-1.86-3.54-2.94-5.22-.65-1-1.16-2.09-1.82-3.08-.28-.41-.34-.66.26-.71a1.7,1.7,0,0,1,.22.24,27,27,0,0,1,1.65,2.8c1.95,2.87,3.42,6,5.2,9a26.44,26.44,0,0,1,2.61,4.6c.07-.35,0-.71.36-.87A1,1,0,0,1,237.54,118.43Z"/><path class="cls-1" d="M248.21,140.77a2.44,2.44,0,0,1-.39,1l-.09-.47c-.94.77-.83-.31-1.1-.65a3.71,3.71,0,0,1-1-3.24.13.13,0,0,0,0-.06l0,0c-.42.58,0,1.18-.48,1.51a19,19,0,0,1,.41-3.68.26.26,0,0,1,.1.11c.08.18-.09.44.13.56.91.74,1.09,2,1.83,2.77A2.1,2.1,0,0,1,248.21,140.77Z"/><path class="cls-1" d="M140.16,73.17a8.06,8.06,0,0,1-1.42,2.17c-.12-.06-.26,0-.38,0a5.62,5.62,0,0,1-2.45-3.35l1.16-1.83c.47,1.41,1.75,2.4,2,3.92.45-.18.49-.66.73-1S140.12,72.94,140.16,73.17Z"/><path class="cls-1" d="M137.74,77a4.63,4.63,0,0,1-1,1.6c-1-.13-1.13-1-1.43-1.71s-1-1.31-1.24-2.12a6.73,6.73,0,0,1,1.06-1.58c.64.12.61.78.93,1.17.59.71.81,1.68,1.66,2.2A.28.28,0,0,1,137.74,77Z"/><path class="cls-1" d="M236.86,121.52a3.29,3.29,0,0,1-.09.76h0v0a4.31,4.31,0,0,1-.63,1.72c0-.7-.86-.65-1.07-1.26a13.22,13.22,0,0,0-1.14-2.21.49.49,0,0,1,.07-.69c.16-.18.48-.35.12-.64l.74-.84c.43-.13.47.26.61.49.49.81.84,1.68,1.31,2.5l0,.05A.41.41,0,0,0,236.86,121.52Z"/><path class="cls-1" d="M138.2,47.83c-.08,0-.13.08-.17.17s-.14.35-.26.16c-.26-.37-.87-.15-.93-.68a1.94,1.94,0,0,1,0-.59h0a1.52,1.52,0,0,1,.06-.2,15,15,0,0,1-.21-2.68h0c.46-.62.06-1.35.28-2.07a1.3,1.3,0,0,1,1,1.36,15.31,15.31,0,0,0,.29,2.85c0-1.73-.23-3.47-.08-5.2C138.42,43.23,138.8,45.53,138.2,47.83Z"/><path class="cls-1" d="M138.74,75.34c-.39.51-.43,1.23-1,1.63-1.23-1-1.82-2.49-2.62-3.81a3.52,3.52,0,0,1,.79-1.22A8.23,8.23,0,0,0,138.74,75.34Z"/><path class="cls-1" d="M203.64,57.61a6.39,6.39,0,0,1-.7,2.27h0c-.05-.25.06-.54-.17-.75-.69-.63-1.05-1.28-.2-2.08.12-.11-.13-.15-.24-.19.32-.27.65-.72,1.1-.45S203.69,57.19,203.64,57.61Z"/><path class="cls-1" d="M228.87,113.7c-3.51-.47-7,0-10.53-.07a10.31,10.31,0,0,1-4.78-.82,26.51,26.51,0,0,0,8.56.54,36,36,0,0,1,5.78.05c.29,0,.63-.11.86.13a.36.36,0,0,1,.08.12Z"/><path class="cls-1" d="M237.23,120.07l-.06.77c-.2.14-.11.49-.36.59l-.07,0c-.94-.61-.92-1.8-1.57-2.59-.12-.14-.11-.38-.32-.47,0-.33-.27-.62-.14-1a3.7,3.7,0,0,1,1.08,1.28C236.17,119.25,236.41,120,237.23,120.07Z"/><path class="cls-1" d="M138.2,47.83a1.49,1.49,0,0,1-.56,1.11.89.89,0,0,1-1.1.17c-.38-.24-.14-.58,0-.89s.24-.89.36-1.33h0l.06-.2c.07.3-.1.64.12.92.5-.79.6.58,1,.39A.67.67,0,0,0,138.2,47.83Z"/><path class="cls-1" d="M124.86,56.86c-.43.74-.07,1.55-.22,2.31v0c0-.06,0-.13,0-.2a27.46,27.46,0,0,1-.37-4V53c.35.18.18.44.23.63l0,.19c.13,1,.25,2,.38,3v0Z"/><path class="cls-1" d="M123.4,40.61a2.19,2.19,0,0,0-.15,1.77.57.57,0,0,1,0,.13v0c0,.3,0,.61,0,.91a2.82,2.82,0,0,1-.09.57h0a.28.28,0,0,1-.13.15h0l-.06,0c-.16-1.37-.72-2.76.18-4.09C123.39,40.24,123.52,40.44,123.4,40.61Z"/><path class="cls-1" d="M185.32,100.9h-7A23.67,23.67,0,0,1,185.32,100.9Z"/><path class="cls-1" d="M213.21,80.84a3.68,3.68,0,0,1-2.65.18h0l1.21,0h0l1.39-.37h0v.13S213.21,80.8,213.21,80.84Z"/><path class="cls-1" d="M245.59,134.53a19.74,19.74,0,0,1,.11-2.67c0-.14.05-.29.07-.43C245.72,132.46,246,133.52,245.59,134.53Z"/><path class="cls-1" d="M124.84,62h0c0-.07,0-.14,0-.22a10.78,10.78,0,0,1-.15-2.48C125.1,60.15,124.77,61.08,124.84,62Z"/><path class="cls-1" d="M136.72,44h0l0-.15v0a10.6,10.6,0,0,1-.17-2.45c.48.84.14,1.75.22,2.62Z"/><path class="cls-1" d="M138,39l0,0c-.46-.71-.13-1.5-.2-2.25l.06.22A8.82,8.82,0,0,1,138,39Z"/><path class="cls-1" d="M213.8,69.12a2.08,2.08,0,0,1-.6.22,2,2,0,0,1-.74,0,2.47,2.47,0,0,1-.67-.21Z"/><path class="cls-1" d="M138.18,41v0h0c-.48-.63-.14-1.34-.21-2l0,0A5.4,5.4,0,0,1,138.18,41Z"/><path class="cls-1" d="M237.17,120.84a3.45,3.45,0,0,1-.4,1.44h0v0c0-.29,0-.58,0-.86l0-.07C236.87,121.17,236.94,121,237.17,120.84Z"/><path class="cls-1" d="M123.86,49.62c0,.63,0,1.25,0,1.88h0a5.15,5.15,0,0,1-.2-1.87Z"/><path class="cls-1" d="M123.45,46l0,1.91h0a4.13,4.13,0,0,1-.21-1.88l0-.09h0a.24.24,0,0,1,.16.05Z"/><path class="cls-1" d="M123.52,45.29a1.36,1.36,0,0,1,0,.17,4.78,4.78,0,0,1-.19.48v0l-.06.06a5.29,5.29,0,0,1-.21-1.81l.06,0h0l.16.13a.75.75,0,0,1,.17.19A1,1,0,0,1,123.52,45.29Z"/><path class="cls-1" d="M245.79,135.93s0,.1,0,.15-.05.1-.12,0a2,2,0,0,1-.06-.79c0-.18,0-.35,0-.53C246,135.08,245.72,135.53,245.79,135.93Z"/><path class="cls-1" d="M202.62,133.3c-.5,0-1,.21-1.5-.19a4.15,4.15,0,0,1,1.36.14Z"/><path class="cls-1" d="M210.57,81h0a3.08,3.08,0,0,1-1.22-.4,1.22,1.22,0,0,1,1.23.4Z"/><path class="cls-1" d="M241.55,42.18a2.9,2.9,0,0,1,.17-1.37h0l0-.06h0C241.7,41.23,242,41.75,241.55,42.18Z"/><path class="cls-1" d="M123.63,49.51v0h0a2.16,2.16,0,0,1-.14-1C123.79,48.74,123.61,49.14,123.63,49.51Z"/><path class="cls-1" d="M202.94,60.88a.63.63,0,0,1,0-1h0Z"/><path class="cls-1" d="M175,101.32v.21a.58.58,0,0,1-.18.08h0a3.37,3.37,0,0,1-.71,0h0l-.07-.07-.05,0A1.59,1.59,0,0,1,175,101.32Z"/><path class="cls-1" d="M174,101.55h0a1.17,1.17,0,0,1-.05.11c-.22.38-.6.09-.9.11l-.1-.07a1.81,1.81,0,0,1,1-.19Z"/><path class="cls-1" d="M124.86,56.86a3,3,0,0,1,1,1.31c1.59,2.76,3.17,5.53,4.77,8.3.15.26.18.8.75.4.19-.14.26.12.26.28,0,.33,0,.67,0,1-.32.35-.12.77-.18,1.16,0,.22.05.5-.25.58s-.44-.12-.59-.31a4.6,4.6,0,0,1-.55-.83,56.42,56.42,0,0,0-4.27-7.44A7.64,7.64,0,0,1,124.86,56.86Z"/><path class="cls-1" d="M245.22,115.57c.32-.34.11-.76.17-1.14,0-.19-.07-.44.19-.52s.33.16.43.33c1,1.76,2,3.54,3,5.27a15.75,15.75,0,0,0,1.8,2.94c.07.39-.15.81.17,1.16a21.35,21.35,0,0,0-.24,2.68,4.54,4.54,0,0,0-1.15-2.47c-1.18-1.93-2.17-4-3.34-5.89-.13-.23-.15-.57-.49-.54s0,.48-.36.67A11.28,11.28,0,0,0,245.22,115.57Z"/><ellipse class="cls-1" cx="251.12" cy="115.69" rx="0.05" ry="3.8"/><path class="cls-1" d="M225.09,102.11h0a4.6,4.6,0,0,0-1.92,0,3.31,3.31,0,0,1,1.92,0Z"/><path class="cls-1" d="M225.09,102.11h-1.94a3.31,3.31,0,0,1,1.92,0Z"/><path class="cls-1" d="M189.26,113.49h0l-.06.08c0-.3-.15-.35-.34-.39l-.18,0c-.65-.23-1.3-.41-2-.58h0l-2.31-.55h0c1.05-.21,2,.38,3,.38.38.17.82.13,1.17.38l0,0C188.67,113.16,189.74,112.78,189.26,113.49Z"/><path class="cls-1" d="M131.27,56.89c-.34.5-.09,1.06-.17,1.58-.56.08-.74-.37-.94-.73-.89-1.63-1.83-3.25-2.77-4.85s-1.81-3.34-2.88-4.91c-.35-.5-.54-1.07-.85-1.58V46a7.11,7.11,0,0,1-.41-3.62h0c.5.38,1.07.72.87,1.51,0,.18.08.31.18.44A55.72,55.72,0,0,1,128,50.15a31.36,31.36,0,0,1,2.51,4.54c0,.1.18.15.38.31l.09-1.74C131.15,54.47,131,55.7,131.27,56.89Z"/><path class="cls-1" d="M237.54,118.43l-.61,1.27c-3.28-5.71-6.62-11.25-9.65-17h.6c1.13,0,1.36,1.05,1.71,1.74.84,1.65,1.85,3.2,2.76,4.81a20.35,20.35,0,0,1,1.38,2.61,18.93,18.93,0,0,0,1.28,2,28,28,0,0,0,2.12,3.57C237.38,117.78,238,117.84,237.54,118.43Z"/><path class="cls-1" d="M188.65,112.8a1.91,1.91,0,0,1-1.21-.41C187.87,112.43,188.39,112.24,188.65,112.8Z"/><path class="cls-1" d="M184.41,112a3.08,3.08,0,0,1-.53,0,1.36,1.36,0,0,1-.47-.15h0a.76.76,0,0,0,0-.15v-.09c.28.26.75.06,1,.42h0Z"/><path class="cls-1" d="M173,101.77c.31-.09.68.07.95-.22l1,0v.2C174.31,101.6,173.68,102.25,173,101.77Z"/><path class="cls-1" d="M246.19,127.28H246v-2.78h.19Z"/><path class="cls-1" d="M123.66,46.4a13.21,13.21,0,0,1,2,3.05c1.64,2.81,3.24,5.65,4.86,8.48a1.24,1.24,0,0,0,.57.54v1.24a65.07,65.07,0,0,1-4.21-6.91c-.83-1.62-1.83-3.16-2.76-4.73A2.71,2.71,0,0,1,123.66,46.4Z"/><path class="cls-1" d="M123.25,42.38a17.7,17.7,0,0,0,.41,3.62h-.21l-.17,0c-.13-.59.17-1.23-.21-1.79C123.13,43.58,122.86,42.94,123.25,42.38Z"/></svg>