<svg id="Layer_1" data-name="Layer 1" xmlns="http://www.w3.org/2000/svg" viewBox="0 0 360 200"><defs><style>.cls-1{fill:#f2f2f2;}</style></defs><path class="cls-1" d="M160.17,60c4.75-8,4.31-6.56-2.13-11.08a20.85,20.85,0,0,0-1.95-1l-3.32,6.95c1.33.91,2.53,1.72,3.72,2.55S158.94,59.16,160.17,60Z"/><path class="cls-1" d="M219.86,60c4.75-8,4.31-6.56-2.13-11.08a20.85,20.85,0,0,0-1.95-1l-3.32,6.95c1.33.91,2.53,1.72,3.72,2.55S218.63,59.16,219.86,60Z"/><path class="cls-1" d="M244.25,74.38c.44,6.32.66,12.66,1.08,19,.23,3.49.81,7,1,10.44.18,4.07.07,8.15.07,12.23,0,3.17,0,6.35,0,9.76a17.06,17.06,0,0,0,1.36-2.41,47.9,47.9,0,0,0,3.2-17.16c-.07-6-.63-12-1-18-.35-6.24-.65-12.49-1.06-18.73-.22-3.22-.74-6.43-.95-9.65-.3-4.58-.44-9.16-.68-14.34l3.38,3.15c-.55-7.24-4-13.36-6.21-19.89l-1.11-.1c-.72,2.64-1.94,5.26-2,7.92-.13,3.8.61,7.62.92,11.44C242.92,56.84,243.64,65.6,244.25,74.38Z"/><path class="cls-1" d="M233.55,119.76a15.86,15.86,0,0,0,5-10.29c.63-6.14-.72-12-2.79-17.76-1.21-3.34-2.2-6.77-3.32-10.28l3.88,1.07.46-.62-8-12c-1.72,3.39-4.12,6.29-1.87,9.88a4,4,0,0,1,.29,1.23c1,4.28,1.6,8.66,3,12.81,1.49,4.56,3.7,8.88,5.43,13.37a3.47,3.47,0,0,1-.27,3c-2.37,2.64-5.43,2.72-8.66,1.81-2.51-.72-4.2-2.2-4.63-4.83-.26-1.61-.31-3.25-.5-5.51-1,1.26-1.58,2-2.12,2.72-2.16,3-3.81,6.41-7.43,8.12-2.53,1.2-5,1.71-7.5.24-2.21-1.33-2.9-4.13-2.21-7.24a15.76,15.76,0,0,0,0-2.66c-2.25,2.32-4.08,4-5.71,5.92-3.71,4.3-8.38,6.62-14,6.25-3.84-.25-6.81-1.67-7.45-5.86-.24-1.55.21-3.2.4-5.44a33.84,33.84,0,0,0-2.82,2c-2.48,2.25-4.83,4.64-7.37,6.8-4.44,3.76-9.79,4.65-15.32,4-3.87-.44-5.74-5.16-6.08-9-.35-4.11-.59-8.23-.79-12.35,12.23-2.87,22.9-9.1,32.23-17.89,6.15-5.79,7.07-15,4.14-21.84L175,44.92l4.23.27c0-.23.07-.46.1-.69l-9.26-9.79c-1.41,7-1.41,7,.54,11.92,2.31,5.89,4.68,11.75,6.86,17.68a3.76,3.76,0,0,1-.3,3.19,43.77,43.77,0,0,1-6.84,6.36c-8.54,6-17.55,10.66-27.54,12.58-.34-9.19-.55-18.39-1-27.58-.29-5.78-.74-11.58-1.6-17.3-.62-4.1-2-8.08-3.22-12.62a12,12,0,0,0-2.59,10c1.21,6,2.65,11.92,3.23,18,.76,7.93.83,15.93,1.12,23.91.08,2.07.13,4.15.19,6.23a52.65,52.65,0,0,1-7.69.36c-12.44-.32-22.75-11.31-19.6-24.83.54-2.31.79-4.7,1.24-7.48-.62.5-.89.61-1,.81a15.65,15.65,0,0,0-.67,1.64,41.47,41.47,0,0,0-2,16.9c.54,7.63,4.37,13.61,10.35,18,5.75,4.2,12.79,4.64,19.41,3.54l.22,0c0,1.24.08,2.48.14,3.72a117.21,117.21,0,0,0,1.08,13.78c1.73,10.59,7.7,14.08,18.13,11.16,4.7-1.32,7.6-5,10.73-8.37.88-.93,1.79-1.83,2.8-2.87a8.65,8.65,0,0,1,.81,2.41c-.32,7.57,7.7,9.18,12.92,7.68,4.78-1.37,7.88-4.83,10.93-8.4.49-.58,1.06-1.09,1.89-1.94a11.09,11.09,0,0,0,.19,1.61c1.11,3.51,2.23,7,6.65,7.64s8.33-1.4,10.6-5.64c.77-1.43,1.51-2.88,2.34-4.46.82,1.65,1.41,3,2.1,4.19C223.26,121.36,230,123,233.55,119.76Z"/><rect class="cls-1" x="109.08" y="139.07" width="5.58" height="31.77"/><polygon class="cls-1" points="145.34 161.04 128.32 139.07 123.15 139.07 123.15 170.84 128.64 170.84 128.64 148.24 146.16 170.84 150.83 170.84 150.83 139.07 145.34 139.07 145.34 161.04"/><path class="cls-1" d="M171.26,152.42c-6.08-1.46-7.53-2.55-7.53-5,0-2.14,1.9-3.81,5.17-3.81a14.39,14.39,0,0,1,8.62,3.26l3-4.22a17.64,17.64,0,0,0-11.53-4c-6.31,0-10.84,3.72-10.84,9.26,0,5.9,3.81,7.89,10.57,9.53,5.9,1.36,7.17,2.58,7.17,4.9s-2.18,4-5.63,4c-3.94,0-7-1.5-10-4.13l-3.35,4a19.57,19.57,0,0,0,13.25,5.08c6.67,0,11.34-3.54,11.34-9.53C181.47,156.45,178,154.05,171.26,152.42Z"/><path class="cls-1" d="M198.63,138.85l-14,32h5.71l3.27-7.67h15l3.22,7.67h5.9l-14-32Zm-2.95,19.37,5.45-12.7,5.49,12.7Z"/><polygon class="cls-1" points="245.43 139.07 245.43 161.04 228.41 139.07 223.24 139.07 223.24 170.84 228.73 170.84 228.73 148.24 246.25 170.84 250.92 170.84 250.92 139.07 245.43 139.07"/></svg>