<svg id="Layer_1" data-name="Layer 1" xmlns="http://www.w3.org/2000/svg" viewBox="0 0 360 200"><defs><style>.cls-1{fill:#f2f2f2;}</style></defs><g id="Color_Logo" data-name="Color Logo"><path id="Outer_Circle" data-name="Outer Circle" class="cls-1" d="M244.9,100l4.66-2.68a.73.73,0,0,0,.35-.65.69.69,0,0,0-.41-.6l-4.89-2.23L249,90.7a.73.73,0,0,0,.29-.68.7.7,0,0,0-.47-.56l-5.09-1.76,4.07-3.52a.68.68,0,0,0,.22-.7.69.69,0,0,0-.52-.51l-5.22-1.27L246,77.81a.71.71,0,0,0,.16-.71.69.69,0,0,0-.57-.47l-5.32-.77,3.33-4.22a.71.71,0,0,0,.08-.73.7.7,0,0,0-.61-.41l-5.37-.25,2.91-4.53a.7.7,0,0,0-.62-1.08l-5.37.26,2.46-4.78a.71.71,0,0,0-.05-.73.69.69,0,0,0-.68-.29l-5.31.77,2-5a.69.69,0,0,0-.12-.73.68.68,0,0,0-.7-.22L227,55.2,228.49,50a.72.72,0,0,0-.19-.71.71.71,0,0,0-.72-.15l-5.08,1.76,1-5.28a.7.7,0,0,0-.26-.69.71.71,0,0,0-.73-.08l-4.88,2.23.51-5.35a.72.72,0,0,0-.32-.66.73.73,0,0,0-.74,0l-4.65,2.69V38.4a.69.69,0,0,0-.38-.62.71.71,0,0,0-.73,0L207,41l-.51-5.35A.7.7,0,0,0,206,35a.72.72,0,0,0-.72.12l-4.06,3.53-1-5.28a.72.72,0,0,0-.49-.55A.71.71,0,0,0,199,33l-3.71,3.9-1.51-5.16a.7.7,0,0,0-.54-.5.7.7,0,0,0-.69.26l-3.32,4.23-2-5a.71.71,0,0,0-1.25-.12l-2.9,4.52-2.46-4.78a.74.74,0,0,0-1.26,0l-2.46,4.78L174,30.64a.71.71,0,0,0-1.25.12l-2,5-3.32-4.23a.7.7,0,0,0-.69-.26.72.72,0,0,0-.54.5l-1.51,5.16L161,33a.71.71,0,0,0-.71-.19.72.72,0,0,0-.49.55l-1,5.28-4.07-3.53A.72.72,0,0,0,154,35a.7.7,0,0,0-.44.59L153,41l-4.38-3.12a.7.7,0,0,0-1.11.57v5.38l-4.65-2.69a.73.73,0,0,0-.74,0,.72.72,0,0,0-.32.66l.52,5.35-4.89-2.23a.69.69,0,0,0-.73.08.7.7,0,0,0-.26.69l1,5.28-5.08-1.76a.7.7,0,0,0-.91.86L133,55.2l-5.22-1.27a.68.68,0,0,0-.7.22.69.69,0,0,0-.12.73l2,5-5.32-.77a.69.69,0,0,0-.68.29.71.71,0,0,0,0,.73l2.47,4.78L120,64.64a.68.68,0,0,0-.64.35.71.71,0,0,0,0,.73l2.91,4.53L117,70.5a.7.7,0,0,0-.61.41.71.71,0,0,0,.08.73l3.33,4.22-5.32.77a.69.69,0,0,0-.57.47.71.71,0,0,0,.16.71l3.71,3.89L112.51,83a.69.69,0,0,0-.52.51.7.7,0,0,0,.22.7l4.06,3.52-5.08,1.76a.67.67,0,0,0-.46.56.69.69,0,0,0,.29.68l4.37,3.12-4.88,2.23a.7.7,0,0,0-.06,1.25L115.1,100l-4.65,2.69a.71.71,0,0,0-.36.64.72.72,0,0,0,.42.61l4.88,2.23L111,109.27a.71.71,0,0,0,.17,1.24l5.08,1.76-4.06,3.51a.72.72,0,0,0-.22.7.69.69,0,0,0,.52.52l5.22,1.27L114,122.16a.72.72,0,0,0-.16.71.69.69,0,0,0,.57.47l5.32.77-3.33,4.22a.71.71,0,0,0-.08.73.7.7,0,0,0,.61.41l5.37.25-2.91,4.52a.73.73,0,0,0,0,.74.65.65,0,0,0,.64.35l5.38-.26-2.47,4.78a.71.71,0,0,0,0,.73.72.72,0,0,0,.68.29l5.32-.76-2,5a.69.69,0,0,0,.12.73.73.73,0,0,0,.7.22l5.22-1.27-1.52,5.16a.73.73,0,0,0,.19.71.71.71,0,0,0,.72.15L137.5,149l-1,5.28a.7.7,0,0,0,.26.69.71.71,0,0,0,.73.09l4.89-2.24-.52,5.35a.72.72,0,0,0,.32.66.71.71,0,0,0,.74,0l4.65-2.69v5.37a.7.7,0,0,0,1.11.58L153,159l.51,5.35a.7.7,0,0,0,1.16.47l4.07-3.53,1,5.28a.72.72,0,0,0,.49.55A.71.71,0,0,0,161,167l3.71-3.89,1.51,5.15a.7.7,0,0,0,1.23.24l3.32-4.23,2,5a.71.71,0,0,0,.59.45.74.74,0,0,0,.66-.32l2.9-4.53,2.46,4.78a.71.71,0,0,0,1.26,0l2.46-4.78,2.9,4.53a.76.76,0,0,0,.66.32.71.71,0,0,0,.59-.45l2-5,3.32,4.23a.72.72,0,0,0,.69.26.7.7,0,0,0,.54-.5l1.51-5.15L199,167a.71.71,0,0,0,.71.19.72.72,0,0,0,.49-.55l1-5.28,4.06,3.53a.7.7,0,0,0,1.16-.47L207,159l4.38,3.12a.71.71,0,0,0,.73.05.69.69,0,0,0,.38-.63v-5.37l4.65,2.69a.71.71,0,0,0,.74,0,.72.72,0,0,0,.32-.66l-.51-5.35,4.88,2.24a.74.74,0,0,0,.73-.09.7.7,0,0,0,.26-.69l-1-5.28,5.08,1.76a.71.71,0,0,0,.72-.15.73.73,0,0,0,.19-.71L227,144.77l5.22,1.27a.73.73,0,0,0,.7-.22.69.69,0,0,0,.12-.73l-2-5,5.31.76a.7.7,0,0,0,.73-1l-2.46-4.78,5.37.26a.65.65,0,0,0,.64-.35.71.71,0,0,0,0-.74l-2.91-4.52,5.37-.25a.7.7,0,0,0,.61-.41.71.71,0,0,0-.08-.73l-3.33-4.22,5.32-.77a.69.69,0,0,0,.57-.47.72.72,0,0,0-.16-.71l-3.71-3.89,5.22-1.27a.71.71,0,0,0,.3-1.22l-4.07-3.51,5.09-1.76a.71.71,0,0,0,.47-.57.72.72,0,0,0-.29-.67l-4.38-3.12,4.89-2.23a.7.7,0,0,0,.41-.61.72.72,0,0,0-.35-.64ZM180,162.4A62.43,62.43,0,1,1,242.43,100,62.43,62.43,0,0,1,180,162.4Z"/><path id="Light_Circle" data-name="Light Circle" class="cls-1" d="M180,54.88A45.09,45.09,0,1,0,225.09,100,45.14,45.14,0,0,0,180,54.88Zm0,89A43.86,43.86,0,1,1,223.86,100,43.9,43.9,0,0,1,180,143.83Z"/><g id="Stars"><path class="cls-1" d="M130.51,114.45l-1.78,1.07c-.63-.26-1.26-.54-1.88-.83.14.67.31,1.34.47,2L126,118.29c.7,0,1.39.07,2.09.09.37.58.75,1.15,1.15,1.72.21-.66.43-1.31.67-1.95l2-.57c-.53-.38-1.08-.76-1.6-1.17C130.35,115.75,130.42,115.1,130.51,114.45Z"/><path class="cls-1" d="M126.24,85.66c.56-.4,1.11-.8,1.69-1.18l1.95.71c-.21-.61-.42-1.24-.6-1.88.43-.5.88-1,1.34-1.45l-2.08-.18c-.35-.58-.7-1.17-1-1.78-.28.63-.54,1.27-.8,1.91l-2,.49c.54.44,1.08.87,1.64,1.3C126.28,84.29,126.25,85,126.24,85.66Z"/><path class="cls-1" d="M232.41,114.69c-.62.29-1.25.57-1.88.83l-1.78-1.07c.1.65.17,1.3.24,2-.52.41-1.07.79-1.6,1.17l2,.57c.24.64.45,1.29.67,1.95.39-.57.78-1.14,1.15-1.72.7,0,1.39,0,2.08-.09L232,116.7C232.11,116,232.28,115.36,232.41,114.69Z"/><path class="cls-1" d="M230.12,85.19l1.95-.71c.58.38,1.13.78,1.69,1.18,0-.69,0-1.37-.08-2.06.56-.43,1.1-.86,1.63-1.3l-2-.49c-.26-.64-.52-1.28-.8-1.91-.33.61-.68,1.2-1,1.78l-2.07.18c.46.47.91,1,1.35,1.45C230.54,84,230.33,84.58,230.12,85.19Z"/></g><path class="cls-1" d="M180,57.5A42.51,42.51,0,1,0,222.51,100,42.51,42.51,0,0,0,180,57.5Zm-34.53,45.84c-.57-.41-1.12-.8-1.69-1.18l-1.95.71c.2-.62.42-1.25.6-1.88-.43-.5-.88-1-1.34-1.46l2.07-.18c.36-.58.71-1.17,1-1.77.28.62.54,1.26.8,1.9l2,.49c-.53.45-1.08.88-1.63,1.3C145.43,102,145.46,102.65,145.47,103.34Zm39.65,13.23a3,3,0,0,1-.17,1,2.84,2.84,0,0,1-.5.85,4,4,0,0,1-.77.71,6.15,6.15,0,0,1-1,.57,7.37,7.37,0,0,1-1.17.42c-.42.11-.86.21-1.32.29a12.9,12.9,0,0,1-1.44.17c-.5,0-1,0-1.49,0s-1,0-1.48-.09a12,12,0,0,1-1.48-.21c-.49-.09-1-.2-1.4-.31a8.34,8.34,0,0,1-1.28-.42c-.4-.16-.78-.34-1.13-.52a5.24,5.24,0,0,1-.94-.61,3.54,3.54,0,0,1-.69-.71,2.8,2.8,0,0,1-.4-.79,2.33,2.33,0,0,1-.31.79,3.48,3.48,0,0,1-.58.71,4.61,4.61,0,0,1-.84.63,6.25,6.25,0,0,1-1.07.52,9.32,9.32,0,0,1-1.23.4c-.43.11-.88.22-1.36.31a11.35,11.35,0,0,1-1.44.21c-.49,0-1,.07-1.46.09s-1,0-1.47,0-1-.08-1.42-.15a12.11,12.11,0,0,1-1.31-.27,8.9,8.9,0,0,1-1.17-.4,6.83,6.83,0,0,1-1-.52,3.6,3.6,0,0,1-.77-.67,2.72,2.72,0,0,1-.48-.82,2.62,2.62,0,0,1-.17-.94V77.91h6.27v32.64a1.17,1.17,0,0,0,.29.76,2.27,2.27,0,0,0,.76.54,4.27,4.27,0,0,0,1.06.31,7.33,7.33,0,0,0,1.24.11,6.89,6.89,0,0,0,1.21-.11,4.24,4.24,0,0,0,1-.31,2.71,2.71,0,0,0,.76-.5.84.84,0,0,0,.25-.67V77.91l6.85.08,0,32.56a1.15,1.15,0,0,0,.3.8,2.29,2.29,0,0,0,.77.56,3.87,3.87,0,0,0,1.09.34,7.28,7.28,0,0,0,1.25.1,10.1,10.1,0,0,0,1.25-.08,4.23,4.23,0,0,0,1.09-.29,2.15,2.15,0,0,0,.75-.51.93.93,0,0,0,.27-.66V77.7l6.19,0Zm20.27-28.75L200,89l0-4.1a.72.72,0,0,0-.06-.46.78.78,0,0,0-.34-.33,1.64,1.64,0,0,0-.54-.19c-.21,0-.45-.08-.71-.11s-.54,0-.82,0l-.83,0-.84,0c-.28,0-.54,0-.79,0a1.7,1.7,0,0,0-.69.13,1.07,1.07,0,0,0-.4.27.86.86,0,0,0-.17.36,1.73,1.73,0,0,0,0,.37V95.21a1.35,1.35,0,0,0,.27,1.05.8.8,0,0,0,.82.21l10.57-5.35v26.62a3,3,0,0,1-.25,1.32,2,2,0,0,1-.69.82,3.14,3.14,0,0,1-1.11.43,9,9,0,0,1-1.5.19l-12,0a1.36,1.36,0,0,1-.67-.17,2.89,2.89,0,0,1-.61-.39,1.78,1.78,0,0,1-.44-.57,1.58,1.58,0,0,1-.17-.71v-7.77l5.77-3.56,0,6.06a1.75,1.75,0,0,0,.31,1,.87.87,0,0,0,.78.27q.59,0,1.29.06a7.79,7.79,0,0,0,1.36,0,3.14,3.14,0,0,0,1.17-.27,1.5,1.5,0,0,0,.78-.73V100.19L188,106.08V79.75a7,7,0,0,1,.26-.88,1.45,1.45,0,0,1,.33-.54,1.84,1.84,0,0,1,.52-.36,4.13,4.13,0,0,1,.82-.27l12.79,0a4.17,4.17,0,0,1,2,.38,1.54,1.54,0,0,1,.8,1.13Zm10.38,14.34-2,.71c.2-.62.42-1.25.6-1.88-.43-.5-.88-1-1.34-1.46l2.07-.18c.36-.58.71-1.17,1-1.77.28.62.54,1.26.8,1.9l2,.49c-.54.45-1.08.88-1.63,1.3,0,.69.07,1.38.08,2.07C216.89,102.93,216.34,102.54,215.77,102.16Z"/><path class="cls-1" d="M139.17,128.49l.46.66-4.27,3,1.7,2.45-.57.4-2.17-3.11Z"/><path class="cls-1" d="M144.42,136.51a3.18,3.18,0,0,1-1.12,1.76,3.52,3.52,0,0,1-2.09.95,3,3,0,0,1-3-3.21,3.35,3.35,0,0,1,1.18-2,3.51,3.51,0,0,1,1.94-.91,2.58,2.58,0,0,1,2.31,1A2.67,2.67,0,0,1,144.42,136.51Zm-3.29,2a3.18,3.18,0,0,0,1.62-.8,2.47,2.47,0,0,0,.9-1.51,1.87,1.87,0,0,0-.5-1.54,2,2,0,0,0-1.46-.71,2.68,2.68,0,0,0-1.78.79,2.74,2.74,0,0,0-.91,1.47,1.84,1.84,0,0,0,.56,1.65A1.65,1.65,0,0,0,141.13,138.46Z"/><path class="cls-1" d="M149,139.82a2.09,2.09,0,0,1-.25,1.93l-.6-.52a1.45,1.45,0,0,0,.17-1.11,2,2,0,0,0-.67-1,1.8,1.8,0,0,0-1.44-.45,2.63,2.63,0,0,0-1.63,1,3,3,0,0,0-.78,1.6,1.72,1.72,0,0,0,.7,1.49,1.74,1.74,0,0,0,2.69-.26l-1.39-1.22.44-.5,1.95,1.71-2.08,2.38-.39-.34.36-.7a2.92,2.92,0,0,1-1,0,2.7,2.7,0,0,1-1.2-.65,2.59,2.59,0,0,1-.91-1.7,3.24,3.24,0,0,1,.91-2.31,3.33,3.33,0,0,1,2.16-1.24,2.55,2.55,0,0,1,2,.67A2.92,2.92,0,0,1,149,139.82Z"/><path class="cls-1" d="M151.32,141.35l.65.47-3.46,4.79-.65-.48Z"/><path class="cls-1" d="M151.53,146.38a1.59,1.59,0,0,0-.21.82,1.57,1.57,0,0,0,.89,1.23,2.59,2.59,0,0,0,.77.31.9.9,0,0,0,1.07-.39.78.78,0,0,0,.1-.75,3,3,0,0,0-.64-.79l-.59-.57a4,4,0,0,1-.75-.9,1.26,1.26,0,0,1,.09-1.24,1.74,1.74,0,0,1,1.15-.84,2.26,2.26,0,0,1,1.6.37,2.73,2.73,0,0,1,1.12,1.2,1.63,1.63,0,0,1-.19,1.56l-.64-.38a1.44,1.44,0,0,0,.15-.76,1.49,1.49,0,0,0-.82-1,1.47,1.47,0,0,0-1-.27,1,1,0,0,0-.63.43.67.67,0,0,0,0,.73,4.7,4.7,0,0,0,.75.83l.61.59a2.77,2.77,0,0,1,.6.8,1.4,1.4,0,0,1-.14,1.32,1.49,1.49,0,0,1-1.34.83,3.18,3.18,0,0,1-1.63-.49,2.49,2.49,0,0,1-1.19-1.37,1.91,1.91,0,0,1,.26-1.62Z"/><path class="cls-1" d="M161.87,147.29l-.3.64-1.81-.83-2.17,4.72-.74-.34,2.18-4.73-1.81-.83.3-.64Z"/><path class="cls-1" d="M162.9,147.63l.76.28-2,5.54-.76-.28Z"/><path class="cls-1" d="M169,150a2.08,2.08,0,0,1,.31,1.47l-.75-.2a1.62,1.62,0,0,0-.28-1,1.64,1.64,0,0,0-1-.62,1.79,1.79,0,0,0-1.52.23,2.8,2.8,0,0,0-1,1.67,2.73,2.73,0,0,0,0,1.75,1.7,1.7,0,0,0,1.22,1,1.53,1.53,0,0,0,1.48-.3,2.67,2.67,0,0,0,.6-.81l.75.2a2.73,2.73,0,0,1-1.07,1.33,2.52,2.52,0,0,1-2,.24,2.47,2.47,0,0,1-1.51-1.06,3.23,3.23,0,0,1-.22-2.69,3.27,3.27,0,0,1,1.22-1.89,2.54,2.54,0,0,1,2.23-.34A2.46,2.46,0,0,1,169,150Z"/><path class="cls-1" d="M173.48,154.35a1.39,1.39,0,0,0,1.5,1.55,2.49,2.49,0,0,0,.83-.06.91.91,0,0,0,.8-.82.76.76,0,0,0-.24-.71,3.15,3.15,0,0,0-.92-.44l-.78-.25a3.89,3.89,0,0,1-1.07-.49,1.23,1.23,0,0,1-.45-1.16,1.72,1.72,0,0,1,.67-1.25,2.23,2.23,0,0,1,1.6-.36,2.76,2.76,0,0,1,1.52.59,1.62,1.62,0,0,1,.52,1.49l-.75-.07a1.43,1.43,0,0,0-.19-.75,1.47,1.47,0,0,0-1.19-.57,1.39,1.39,0,0,0-1,.2,1,1,0,0,0-.38.66.67.67,0,0,0,.31.66,5.26,5.26,0,0,0,1,.42l.81.27a2.54,2.54,0,0,1,.89.46,1.44,1.44,0,0,1,.45,1.25,1.53,1.53,0,0,1-.85,1.33,3.2,3.2,0,0,1-1.68.26,2.49,2.49,0,0,1-1.67-.72,1.91,1.91,0,0,1-.47-1.56Z"/><path class="cls-1" d="M179,150.76l4.3-.09v.72l-3.52.07,0,1.8,3.26-.07,0,.69-3.26.06,0,2,3.58-.07,0,.7-4.37.09Z"/><path class="cls-1" d="M184.53,150.57l2.71-.38a2.75,2.75,0,0,1,1.13.05,1.38,1.38,0,0,1,1,1.26,1.59,1.59,0,0,1-.09.89,1.52,1.52,0,0,1-.54.62,1.24,1.24,0,0,1,.57.3,1.27,1.27,0,0,1,.3.71l.13.78a2.22,2.22,0,0,0,.13.49.48.48,0,0,0,.3.32l0,.13-1,.14a1.14,1.14,0,0,1-.09-.19c0-.08-.06-.23-.11-.45l-.18-1a.82.82,0,0,0-.53-.71,1.71,1.71,0,0,0-.73,0l-1.8.25.35,2.51-.8.11Zm3,2.32a1.62,1.62,0,0,0,.85-.35.94.94,0,0,0,.21-.85.88.88,0,0,0-.57-.79,1.45,1.45,0,0,0-.67,0l-1.93.27.28,2Z"/><path class="cls-1" d="M190.68,149.58l2.91,4.43.35-5.28.87-.23-.6,6.26-.82.21-3.57-5.17Z"/><path class="cls-1" d="M195.83,148.09l.76-.27,2,5.57-.77.26Z"/><path class="cls-1" d="M202,146a2.08,2.08,0,0,1,1.18.94l-.71.32a1.59,1.59,0,0,0-.86-.6,1.69,1.69,0,0,0-1.15.16,1.75,1.75,0,0,0-1,1.14,2.77,2.77,0,0,0,.29,1.93,2.67,2.67,0,0,0,1.14,1.33,1.7,1.7,0,0,0,1.58,0,1.54,1.54,0,0,0,.94-1.18,2.57,2.57,0,0,0-.06-1l.71-.32a2.64,2.64,0,0,1,0,1.71,2.41,2.41,0,0,1-1.41,1.48,2.54,2.54,0,0,1-1.83.15,3.84,3.84,0,0,1-2.15-4.17,2.5,2.5,0,0,1,1.5-1.68A2.46,2.46,0,0,1,202,146Z"/><path class="cls-1" d="M203.45,144.74l3.68-2.23.37.61-3,1.84.93,1.53,2.79-1.7.35.59-2.78,1.69,1,1.71,3.06-1.86.37.6-3.73,2.27Z"/><path class="cls-1" d="M211,144.66a1.39,1.39,0,0,0,2.16.1,2.43,2.43,0,0,0,.56-.6.9.9,0,0,0,0-1.14.75.75,0,0,0-.66-.36,3.08,3.08,0,0,0-1,.31l-.74.35a3.55,3.55,0,0,1-1.12.37,1.22,1.22,0,0,1-1.12-.53,1.7,1.7,0,0,1-.37-1.36,2.28,2.28,0,0,1,.92-1.37,2.79,2.79,0,0,1,1.52-.61,1.62,1.62,0,0,1,1.39.73L212,141a1.44,1.44,0,0,0-.65-.41,1.47,1.47,0,0,0-1.26.4,1.41,1.41,0,0,0-.62.85,1,1,0,0,0,.18.74.67.67,0,0,0,.67.28,4.87,4.87,0,0,0,1.05-.41l.77-.35a2.46,2.46,0,0,1,1-.28,1.4,1.4,0,0,1,1.18.61,1.5,1.5,0,0,1,.3,1.54,3.23,3.23,0,0,1-1,1.35,2.5,2.5,0,0,1-1.71.62,1.91,1.91,0,0,1-1.41-.82Z"/><path class="cls-1" d="M217.45,133.79a2.09,2.09,0,0,1,1.45.4l-.52.58a1.53,1.53,0,0,0-1-.22,1.63,1.63,0,0,0-1,.59,1.81,1.81,0,0,0-.5,1.46,2.81,2.81,0,0,0,1,1.66,2.73,2.73,0,0,0,1.57.77,1.68,1.68,0,0,0,1.45-.63,1.5,1.5,0,0,0,.4-1.45,2.48,2.48,0,0,0-.44-.9l.52-.58a2.69,2.69,0,0,1,.69,1.56,2.46,2.46,0,0,1-.72,1.92,2.49,2.49,0,0,1-1.62.85,3.82,3.82,0,0,1-3.62-3,2.53,2.53,0,0,1,.72-2.13A2.43,2.43,0,0,1,217.45,133.79Z"/><path class="cls-1" d="M221.75,128.67a3.32,3.32,0,0,1,2,.67,3.54,3.54,0,0,1,1.41,1.82,3,3,0,0,1-2.42,3.66,3.35,3.35,0,0,1-2.19-.69,3.46,3.46,0,0,1-1.34-1.67,2.58,2.58,0,0,1,.4-2.47A2.73,2.73,0,0,1,221.75,128.67Zm2.67,2.74a3.21,3.21,0,0,0-1.16-1.39,2.47,2.47,0,0,0-1.68-.52,1.9,1.9,0,0,0-1.38.86,1.94,1.94,0,0,0-.34,1.58,2.66,2.66,0,0,0,1.18,1.54,2.74,2.74,0,0,0,1.64.55,1.91,1.91,0,0,0,1.48-.93A1.69,1.69,0,0,0,224.42,131.41Z"/><path class="cls-1" d="M133,67.56a1.13,1.13,0,0,0-.38,0,.58.58,0,0,0-.29.13.53.53,0,0,1-.26.13l-.21,0h0l0,0a.27.27,0,0,1-.11-.21.57.57,0,0,1,.14-.36c.93-1.26,1.88-2.47,2.88-3.63a.67.67,0,0,1,.3-.22.35.35,0,0,1,.23,0l0,0a.23.23,0,0,1,.07.14.45.45,0,0,1,0,.22l-.05.16,0,.11,0,.15s0,.09.08.13l.12.09.21.08c1.35.46,2.68,1,4,1.48.5.91,1,1.81,1.55,2.69-.35.4-.69.81-1,1.22Q136.6,68.57,133,67.56Zm4.55-3c-.48-.89-.94-1.79-1.4-2.7.42-.46.84-.9,1.27-1.34q2.6,1.19,5.09,2.52c.44.89.9,1.77,1.37,2.65-.38.37-.75.74-1.11,1.13Q140.18,65.64,137.51,64.59Zm3.36-3c-.31-.65-.61-1.31-.91-2l0,0a.34.34,0,0,0-.26,0,1.21,1.21,0,0,0-.41.15l-.27.07a.47.47,0,0,1-.2,0h-.05l0,0a.29.29,0,0,1,0-.27.86.86,0,0,1,.27-.39c.52-.5,1.06-1,1.6-1.47a.43.43,0,0,1,.29-.1.34.34,0,0,1,.26.07l0,0a.16.16,0,0,1,0,.14A.43.43,0,0,1,141,58l-.08.11-.07.12a1.52,1.52,0,0,0-.16.42.78.78,0,0,0,0,.43c.46,1.09.94,2.18,1.44,3.25Z"/><path class="cls-1" d="M144.62,57.77c.45,1.29.93,2.56,1.44,3.82l.09.18.08.11a.46.46,0,0,0,.35.22h.15l.21,0,.11,0,.11,0,.2,0a.12.12,0,0,1,.12.05.31.31,0,0,1,.1.24c0,.08-.13.21-.37.41-.5.41-1,.84-1.48,1.27a.55.55,0,0,1-.28.16c-.08,0-.16,0-.25-.13a.19.19,0,0,1,0-.15,1.59,1.59,0,0,0,.07-.2l.09-.16.1-.18a1,1,0,0,0,.12-.42.94.94,0,0,0-.1-.5q-1.06-2.69-2-5.47Zm1-4.31q3,2.25,5.72,4.7a.94.94,0,0,0,.32.2l.28,0h.24l.2,0a.24.24,0,0,1,.17.13.2.2,0,0,1,0,.23,1.66,1.66,0,0,1-.45.36c-.85.55-1.69,1.12-2.51,1.72l-.25.19a1.75,1.75,0,0,1-.29.18c-.1,0-.18,0-.26-.08a.4.4,0,0,1-.09-.24l.06-.24v0l0,0,0-.17,0-.13-.06-.06-.89-.66c-.54.41-1.06.82-1.59,1.24-.09-.22-.18-.45-.26-.67l1.27-1c-1.32-1-2.67-2-4-3l-.24-.69C143.8,54.75,144.69,54.09,145.59,53.46Z"/><path class="cls-1" d="M150.14,52a.46.46,0,0,0-.28-.24,1.19,1.19,0,0,0-.33,0l-.05,0h0l-.24,0a.25.25,0,0,1-.18-.13.28.28,0,0,1,.05-.39l.57-.39c1-.59,2-1.15,3.07-1.68a1.9,1.9,0,0,1,.72-.27.26.26,0,0,1,.26.18.23.23,0,0,1,0,.24l-.19.24-.18.26a.21.21,0,0,0,0,.24l3.31,6.46c-1,.51-2,1.06-3,1.64l-.07.05-.07,0a.73.73,0,0,1-.23,0,.28.28,0,0,1-.23-.14.24.24,0,0,1,0-.25l.15-.24a.65.65,0,0,0,.16-.21.25.25,0,0,0,0-.26C152.21,55.44,151.18,53.69,150.14,52Zm6.58,3.64a1.41,1.41,0,0,0,.66-.66,3.24,3.24,0,0,0,.28-.9,2.94,2.94,0,0,0,0-.57,2.23,2.23,0,0,0-.06-.41.26.26,0,0,1,0-.24.67.67,0,0,1,.23-.21.47.47,0,0,1,.31,0,.49.49,0,0,1,.27.29l1,2.29c-.82.36-1.63.73-2.43,1.13l-.35-.7Z"/><path class="cls-1" d="M157.86,48.12a.47.47,0,0,0-.24-.27.83.83,0,0,0-.32-.06l-.06,0H157a.19.19,0,0,1-.16-.14.27.27,0,0,1,.11-.38l.6-.3q1.61-.64,3.24-1.2a2,2,0,0,1,.75-.16.28.28,0,0,1,.24.22.23.23,0,0,1,0,.19l-.2.18,0,0a2.73,2.73,0,0,1-.25.23.26.26,0,0,0,0,.27l2,5.81a.38.38,0,0,0,.21.27l.26,0h0l.25,0a.25.25,0,0,1,.17.21c.06.16,0,.27-.07.33a3.58,3.58,0,0,1-.58.23q-1.55.52-3.06,1.14l-.08,0-.07,0a.45.45,0,0,1-.23,0,.27.27,0,0,1-.21-.17.25.25,0,0,1,0-.25l.19-.21a.77.77,0,0,0,.18-.18.28.28,0,0,0,0-.27Z"/><path class="cls-1" d="M168.76,52.14c-1,.23-2,.49-3,.78a1.27,1.27,0,0,1-.6.1c-.07,0-.12-.1-.16-.22a.29.29,0,0,1,0-.26l.2-.21,0,0,.16-.17a.25.25,0,0,0,0-.19l-1.71-5.84a.39.39,0,0,0-.2-.29.94.94,0,0,0-.3-.07h-.07l-.26,0a.44.44,0,0,1-.17-.2.31.31,0,0,1,.11-.28,1.15,1.15,0,0,1,.56-.28c1.17-.34,2.35-.64,3.54-.91Q167.85,48.09,168.76,52.14Zm2.41-7.52a4.44,4.44,0,0,1,1.09,1.18,3.61,3.61,0,0,1,.49,1.39v.1a4.4,4.4,0,0,1-.67,2.94A4.07,4.07,0,0,1,169.24,52c-.06-.25-.11-.51-.17-.76l.06,0s.07,0,.07,0a1.22,1.22,0,0,0,.43-.25c.11-.11.13-.32.07-.62l-1-5.09a.62.62,0,0,0-.35-.51,2,2,0,0,0-.69-.07l-.17-.77a5.21,5.21,0,0,1,2.07-.05A3.76,3.76,0,0,1,171.17,44.62Z"/><path class="cls-1" d="M181.71,43.2a2.26,2.26,0,0,0-.68.33.88.88,0,0,0-.31.39v.18a1,1,0,0,0,.48.66,3.9,3.9,0,0,0,1.12.55,5.52,5.52,0,0,1,2.36,1.29,2.48,2.48,0,0,1,.78,1.56v.38a2.63,2.63,0,0,1-1.16,1.86,3.8,3.8,0,0,1-2.47.71h-.11l0-.7a2.19,2.19,0,0,0,.88-.33.64.64,0,0,0,.32-.49.59.59,0,0,0-.14-.4,1,1,0,0,0-.16-.21,1.64,1.64,0,0,0-.27-.24,5.18,5.18,0,0,0-.76-.42,9.82,9.82,0,0,0-1.14-.44,3.67,3.67,0,0,1-1.76-1,3.48,3.48,0,0,1-.46-.7,2.06,2.06,0,0,1-.17-.75v0a2.5,2.5,0,0,1,.9-2,3.72,3.72,0,0,1,2.75-.88Zm-.48,7.9H181a2.11,2.11,0,0,1-.54-.07l-.47-.14-.39-.14a.73.73,0,0,0-.29-.07l-.15,0-.08.12A.23.23,0,0,1,179,51a.36.36,0,0,1-.22.07h0a.37.37,0,0,1-.26-.08.34.34,0,0,1-.15-.23l-.09-2.34a.5.5,0,0,1,.12-.37.52.52,0,0,1,.31-.16h.11l.16.05a.4.4,0,0,1,.12.11l0,0,0,0c.08.16.15.31.22.47a3.88,3.88,0,0,0,.34.62,4,4,0,0,0,.61.7,2.26,2.26,0,0,0,1,.47C181.24,50.63,181.24,50.86,181.23,51.1Zm1.14-8.57h.16a2.79,2.79,0,0,1,.69.1,1.05,1.05,0,0,1,.25.08l.24.1a1.27,1.27,0,0,1,.35.17,1,1,0,0,0,.29.09h.14l.15-.07a1.07,1.07,0,0,1,.16-.14.31.31,0,0,1,.16-.11l.19,0a.48.48,0,0,1,.23.08.26.26,0,0,1,.08.19c-.06.77-.13,1.54-.2,2.31a.34.34,0,0,1-.15.27.51.51,0,0,1-.33.08.79.79,0,0,1-.23-.08.38.38,0,0,1-.16-.24,1.59,1.59,0,0,0-.1-.39,1.52,1.52,0,0,0-.08-.22,2.6,2.6,0,0,0-.13-.24,2.72,2.72,0,0,0-.66-.73,2.61,2.61,0,0,0-1.14-.52l0-.71Z"/><path class="cls-1" d="M190.75,52.16l-.26,0-.26,0-.17,0-.17,0a5.25,5.25,0,0,1-1-.32,6.82,6.82,0,0,1-1-.54,1.43,1.43,0,0,1-.79-1.35l.72-5.52a.27.27,0,0,0-.1-.22,1.27,1.27,0,0,0-.31-.19l0,0-.28-.15a.24.24,0,0,1-.11-.23l0,0v0a.51.51,0,0,1,.39-.22,2.11,2.11,0,0,1,.66,0c1.17.15,2.33.33,3.49.56l.13,0,.24.09.25.17a.2.2,0,0,1,.09.18.28.28,0,0,1-.19.22l-.32.09-.34.08c-.09,0-.15.09-.19.21q-.48,2.59-1,5.19a2.08,2.08,0,0,0,0,.86c.06.23.28.42.65.6Zm1.66-.76a2.37,2.37,0,0,0,.66-.49,2,2,0,0,0,.28-.41l.15-.37c.34-1.35.67-2.7,1-4.05a.54.54,0,0,0,0-.42,1.56,1.56,0,0,0-.24-.35l-.22-.23-.16-.18-.12-.17,0-.18.06-.06.12-.07.25-.06a1.13,1.13,0,0,1,.31,0l1.89.49a.7.7,0,0,1,.24.13.6.6,0,0,1,.15.18l0,.11v.07a.36.36,0,0,1-.21.24l-.35.12-.22,0a.38.38,0,0,0-.16.05,1,1,0,0,0-.31.21,1.05,1.05,0,0,0-.17.29v.08l-1.14,4.27-.06.21-.12.2a1.37,1.37,0,0,1-.19.27,3,3,0,0,1-1,.8,2,2,0,0,1-1.35.18l-.11,0-.11,0,.15-.68A1.94,1.94,0,0,0,192.41,51.4Z"/><path class="cls-1" d="M198.47,46.84a.45.45,0,0,0,0-.38.7.7,0,0,0-.19-.27l0,0,0,0-.17-.19a.26.26,0,0,1,0-.23.28.28,0,0,1,.36-.2l.58.14h0q1.64.54,3.24,1.17l.43.18a1.08,1.08,0,0,1,.2.16.27.27,0,0,1,.09.33.29.29,0,0,1-.15.14l-.23,0h-.12a1.47,1.47,0,0,0-.34.07.36.36,0,0,0-.12.08.45.45,0,0,0-.1.17c-.72,1.82-1.43,3.64-2.15,5.47a.4.4,0,0,0,0,.33c.07.07.14.13.2.2h0l.17.18a.26.26,0,0,1,0,.27c-.06.16-.15.23-.26.21a3.32,3.32,0,0,1-.6-.2c-1-.4-2.05-.76-3.09-1.09l-.08,0-.08,0-.18-.16a.3.3,0,0,1,0-.24c0-.11.09-.17.17-.19l.28,0a.71.71,0,0,0,.25,0,.28.28,0,0,0,.18-.2Zm5.13,1.74a.35.35,0,0,0,0-.33.49.49,0,0,0-.14-.21l-.05,0-.15-.17a.3.3,0,0,1,0-.23l0,0s.09-.06.19-.08h.28l.15,0,.13.05c1.13.49,2.25,1,3.35,1.57l.08,0,.11,0a1.23,1.23,0,0,1,.33.26.26.26,0,0,1,.05.32.28.28,0,0,1-.22.17.71.71,0,0,1-.28,0h0l-.3,0c-.1,0-.18.09-.25.22l-2.66,5.26a.54.54,0,0,0-.08.38,1.46,1.46,0,0,0,.17.24l0,0a.68.68,0,0,1,.13.18.4.4,0,0,1,0,.28.3.3,0,0,1-.21.18.75.75,0,0,1-.38-.12c-1-.51-2-1-3.08-1.44a1.12,1.12,0,0,1-.37-.23.24.24,0,0,1,0-.31q.07-.18.18-.21l.25,0H201c.05,0,.11,0,.16-.15l1.14-2.64-1.08-.45.26-.64,1.09.46C202.93,50.13,203.27,49.35,203.6,48.58Z"/><path class="cls-1" d="M210.48,54.06c-1,.87-2.08,1.76-3.09,2.66l-.13.14-.08.12a.48.48,0,0,0-.09.41s0,.1,0,.14l.1.18.07.09.07.09.09.17a.14.14,0,0,1,0,.14.34.34,0,0,1-.2.18,1.19,1.19,0,0,1-.5-.22c-.54-.32-1.1-.64-1.65-.94a.48.48,0,0,1-.23-.21.3.3,0,0,1,0-.27.2.2,0,0,1,.13-.08h.21l.18,0,.2,0a1.28,1.28,0,0,0,.43,0,1,1,0,0,0,.43-.27q2.14-1.9,4.44-3.71Zm4.37-.55q-1.11,3.57-2.46,7a.75.75,0,0,0-.08.37,2.86,2.86,0,0,0,.07.28l0,.11.05.11c0,.07,0,.13.05.2a.21.21,0,0,1-.06.2.2.2,0,0,1-.22.07,1.89,1.89,0,0,1-.5-.31c-.82-.63-1.65-1.22-2.49-1.79l-.26-.18a1.39,1.39,0,0,1-.27-.21c-.08-.07-.08-.17,0-.28a.43.43,0,0,1,.2-.16l.24,0h.09l.17,0,.12-.08,0-.07c.11-.36.22-.71.32-1.07-.55-.36-1.12-.72-1.68-1.06l.54-.48,1.35.85c.52-1.58,1-3.19,1.45-4.81l.57-.46C213,52.27,214,52.88,214.85,53.51Z"/><path class="cls-1" d="M217.87,57.34A.41.41,0,0,0,218,57a1,1,0,0,0-.1-.32l0,0,0,0-.12-.22a.22.22,0,0,1,.06-.21.27.27,0,0,1,.39-.08l.57.41c.92.77,1.83,1.58,2.71,2.42a2,2,0,0,1,.52.62.25.25,0,0,1-.07.31.19.19,0,0,1-.2,0l-.26-.1h0l-.33-.12a.23.23,0,0,0-.26.08l-4.2,4.47a.41.41,0,0,0-.13.32c0,.08.07.17.11.25v0l.11.24a.28.28,0,0,1-.1.26c-.12.12-.23.15-.34.08a4.76,4.76,0,0,1-.5-.43c-.83-.79-1.69-1.55-2.57-2.27l-.07-.06-.06,0a.53.53,0,0,1-.12-.21.26.26,0,0,1,.05-.26.22.22,0,0,1,.22-.12l.28.08a1.25,1.25,0,0,0,.26.07A.25.25,0,0,0,214,62Z"/><path class="cls-1" d="M222.82,62a.43.43,0,0,0,.16-.32.84.84,0,0,0-.08-.34l0-.05,0,0-.09-.23a.25.25,0,0,1,.08-.21.28.28,0,0,1,.4,0l.53.49c.85.89,1.68,1.82,2.48,2.78a2.32,2.32,0,0,1,.46.69.26.26,0,0,1-.1.31.24.24,0,0,1-.25,0l-.29-.14-.3-.14a.21.21,0,0,0-.25,0L220,69.45c-.78-.93-1.58-1.83-2.41-2.7l-.07-.06-.05-.06a.5.5,0,0,1-.1-.22.28.28,0,0,1,.07-.27.22.22,0,0,1,.24-.08l.28.11a1.12,1.12,0,0,0,.25.11.27.27,0,0,0,.25-.08Zm-1.88,7.45a1.63,1.63,0,0,0,.83.55,3.29,3.29,0,0,0,1,.12,2.86,2.86,0,0,0,.57-.07,1.68,1.68,0,0,0,.4-.15.25.25,0,0,1,.24,0,.73.73,0,0,1,.28.2.52.52,0,0,1,.1.33.42.42,0,0,1-.21.33l-2,1.48c-.58-.79-1.17-1.57-1.79-2.32l.6-.49Z"/><path class="cls-1" d="M228.9,98.93v-.65a3.46,3.46,0,0,0,1.29-.3,1.51,1.51,0,0,0,.54-1h.67v6.74h-.9V98.93Z"/><path class="cls-1" d="M233.58,98.93v-.65a3.45,3.45,0,0,0,1.28-.3,1.51,1.51,0,0,0,.55-1h.67v6.74h-.91V98.93Z"/><path class="cls-1" d="M121.57,102.65a2.93,2.93,0,0,1,1.23-1.18l.9-.52a4.12,4.12,0,0,0,.86-.61,1.24,1.24,0,0,0,.39-.9,1.21,1.21,0,0,0-1.3-1.28,1.23,1.23,0,0,0-1.21.66,2.32,2.32,0,0,0-.2,1h-.87a3,3,0,0,1,.33-1.44,2,2,0,0,1,2-1,2.11,2.11,0,0,1,1.7.63,2.07,2.07,0,0,1,.54,1.4,1.92,1.92,0,0,1-.57,1.39,5.87,5.87,0,0,1-1.19.81l-.65.36a4,4,0,0,0-.73.49,1.74,1.74,0,0,0-.59.91h3.7v.8h-4.65A3.91,3.91,0,0,1,121.57,102.65Z"/><path class="cls-1" d="M130.81,98.48a4.91,4.91,0,0,1,.46,2.3,5.4,5.4,0,0,1-.42,2.28,2,2,0,0,1-1.94,1.3,2,2,0,0,1-1.82-1.06,4.87,4.87,0,0,1-.5-2.38,5.81,5.81,0,0,1,.3-2,2,2,0,0,1,2-1.54A2,2,0,0,1,130.81,98.48ZM130,103a4.23,4.23,0,0,0,.39-2.18,5.38,5.38,0,0,0-.29-1.9,1.06,1.06,0,0,0-1.1-.74,1.16,1.16,0,0,0-1.1.7,5,5,0,0,0-.34,2.09,5,5,0,0,0,.22,1.66A1.21,1.21,0,0,0,130,103Z"/></g></svg>