<svg id="Layer_1" data-name="Layer 1" xmlns="http://www.w3.org/2000/svg" viewBox="0 0 360 200"><defs><style>.cls-1{fill:#fff;}.cls-2{fill:#383737;opacity:0.1;}</style></defs><polygon class="cls-1" points="129.29 31.39 129.29 59.56 202.54 59.56 202.54 132.82 230.71 132.82 230.71 31.39 129.29 31.39"/><polygon class="cls-1" points="129.29 65.2 129.29 93.38 168.73 93.38 168.73 132.82 196.91 132.82 196.91 65.2 129.29 65.2"/><rect class="cls-1" x="129.29" y="99.01" width="33.81" height="33.81"/><polygon class="cls-2" points="202.54 132.82 230.71 132.82 230.71 31.39 202.54 59.56 202.54 132.82"/><polygon class="cls-2" points="168.73 132.82 196.91 132.82 196.91 65.2 168.73 93.38 168.73 132.82"/><polygon class="cls-2" points="163.09 132.82 163.09 99.01 129.29 132.82 163.09 132.82"/><path class="cls-1" d="M140.56,145.47h-4v11.59h-3.21V145.47h-4v-2.6h11.27Z"/><path class="cls-1" d="M154.44,157.06H151l-1-3.16h-5l-1,3.16h-3.46l5.16-14.19h3.79Zm-5.22-5.61-1.52-4.77a5.41,5.41,0,0,1-.24-1.28h-.08a5.35,5.35,0,0,1-.25,1.24l-1.54,4.81Z"/><path class="cls-1" d="M169.4,157.06h-3.21v-5.78h-5.87v5.78h-3.19V142.87h3.19v5.66h5.87v-5.66h3.21Z"/><path class="cls-1" d="M186,157.06h-3.48l-1-3.16h-5l-1,3.16H172l5.17-14.19H181Zm-5.22-5.61-1.53-4.77a6,6,0,0,1-.23-1.28H179a5.93,5.93,0,0,1-.25,1.24l-1.54,4.81Z"/><path class="cls-1" d="M200.61,157.06h-3.67l-2.2-3.65q-.26-.42-.48-.75a3.71,3.71,0,0,0-.46-.55,1.72,1.72,0,0,0-.48-.36,1.26,1.26,0,0,0-.55-.12h-.86v5.43h-3.2V142.87h5.07q5.16,0,5.16,3.86a4.06,4.06,0,0,1-.23,1.37,3.6,3.6,0,0,1-.64,1.13,3.87,3.87,0,0,1-1,.87,4.87,4.87,0,0,1-1.31.58v0a1.84,1.84,0,0,1,.62.32,3.94,3.94,0,0,1,.57.52,6.53,6.53,0,0,1,.53.63c.17.23.32.45.46.67Zm-8.7-11.79v3.94h1.38a2.3,2.3,0,0,0,1.65-.59,2,2,0,0,0,.64-1.49c0-1.24-.75-1.86-2.23-1.86Z"/><path class="cls-1" d="M208.65,157.3a6.61,6.61,0,0,1-5-2,7.11,7.11,0,0,1-1.92-5.17,7.64,7.64,0,0,1,2-5.44,6.76,6.76,0,0,1,5.16-2.07,6.44,6.44,0,0,1,4.91,2,7.36,7.36,0,0,1,1.88,5.25,7.51,7.51,0,0,1-1.95,5.39A6.66,6.66,0,0,1,208.65,157.3Zm.13-11.91a3.22,3.22,0,0,0-2.67,1.26,5.24,5.24,0,0,0-1,3.33,5.17,5.17,0,0,0,1,3.34,3.43,3.43,0,0,0,5.22,0,5.14,5.14,0,0,0,1-3.31,5.57,5.57,0,0,0-.93-3.43A3.07,3.07,0,0,0,208.78,145.39Z"/><path class="cls-1" d="M230.71,157.06h-4l-4.13-6.17a5.09,5.09,0,0,1-.38-.78h0v6.95h-3.19V142.87h3.19v6.71h0a8.4,8.4,0,0,1,.4-.79l4.34-5.92h3.8l-5.37,6.77Z"/><path class="cls-1" d="M142,168.29a3.15,3.15,0,0,1-1.48.32,2.4,2.4,0,0,1-1.84-.74,2.72,2.72,0,0,1-.69-1.94,2.87,2.87,0,0,1,.77-2.08,2.65,2.65,0,0,1,2-.8,3.29,3.29,0,0,1,1.27.22V164a2.51,2.51,0,0,0-1.27-.33,2,2,0,0,0-1.51.62,2.36,2.36,0,0,0-.57,1.66,2.21,2.21,0,0,0,.54,1.56,1.83,1.83,0,0,0,1.41.58,2.63,2.63,0,0,0,1.4-.36Z"/><path class="cls-1" d="M148.35,168.61a2.37,2.37,0,0,1-1.83-.75,2.81,2.81,0,0,1-.69-2,2.93,2.93,0,0,1,.7-2.07,2.45,2.45,0,0,1,1.91-.78,2.3,2.3,0,0,1,1.79.75,2.79,2.79,0,0,1,.68,2,3,3,0,0,1-.69,2.08A2.42,2.42,0,0,1,148.35,168.61Zm.05-5a1.75,1.75,0,0,0-1.38.61,2.4,2.4,0,0,0-.53,1.61,2.37,2.37,0,0,0,.52,1.6,1.68,1.68,0,0,0,1.34.6,1.79,1.79,0,0,0,1.4-.57,2.43,2.43,0,0,0,.5-1.62,2.48,2.48,0,0,0-.49-1.65A1.71,1.71,0,0,0,148.4,163.62Z"/><path class="cls-1" d="M159.57,168.52h-.77L156,164.23a1.48,1.48,0,0,1-.17-.33h0a5.48,5.48,0,0,1,0,.74v3.88h-.63v-5.38h.81l2.7,4.22.21.36h0a4.87,4.87,0,0,1,0-.79v-3.79h.63Z"/><path class="cls-1" d="M164,168.3v-.74a1.84,1.84,0,0,0,.31.2,2.39,2.39,0,0,0,.37.15,2.13,2.13,0,0,0,.4.1l.37,0a1.45,1.45,0,0,0,.86-.21.72.72,0,0,0,.29-.62.76.76,0,0,0-.09-.38,1.27,1.27,0,0,0-.27-.3,2.79,2.79,0,0,0-.4-.25l-.49-.26a5.25,5.25,0,0,1-.53-.29,1.94,1.94,0,0,1-.42-.32,1.41,1.41,0,0,1-.29-.4,1.38,1.38,0,0,1-.1-.52,1.29,1.29,0,0,1,.16-.64,1.42,1.42,0,0,1,.43-.45,1.86,1.86,0,0,1,.59-.26,2.72,2.72,0,0,1,.69-.09,2.77,2.77,0,0,1,1.16.19V164a2.13,2.13,0,0,0-1.23-.33,2,2,0,0,0-.41,0,.92.92,0,0,0-.37.14.88.88,0,0,0-.26.25.64.64,0,0,0-.1.37.78.78,0,0,0,.3.63,1.69,1.69,0,0,0,.37.24l.5.26a4.68,4.68,0,0,1,.54.3,2.07,2.07,0,0,1,.46.35,1.43,1.43,0,0,1,.31.42,1.29,1.29,0,0,1,.11.53,1.42,1.42,0,0,1-.15.68,1.36,1.36,0,0,1-.42.44,1.74,1.74,0,0,1-.61.25,3.47,3.47,0,0,1-.73.08l-.32,0-.38-.06-.37-.1A1.22,1.22,0,0,1,164,168.3Z"/><path class="cls-1" d="M175.52,166.34c0,1.51-.68,2.27-2,2.27s-2-.73-2-2.18v-3.29h.63v3.25c0,1.1.47,1.65,1.4,1.65s1.34-.53,1.34-1.59v-3.31h.63Z"/><path class="cls-1" d="M182.92,168.52h-2.79v-5.38h.63V168h2.16Z"/><path class="cls-1" d="M189.66,163.71h-1.55v4.81h-.63v-4.81h-1.55v-.57h3.73Z"/><path class="cls-1" d="M197.41,168.52h-.7l-.57-1.51h-2.28l-.54,1.51h-.7l2.06-5.38h.66Zm-1.48-2.07-.84-2.29a1.64,1.64,0,0,1-.08-.36h0a1.34,1.34,0,0,1-.09.36l-.83,2.29Z"/><path class="cls-1" d="M205.79,168.52H205l-2.76-4.29a2.11,2.11,0,0,1-.18-.33h0a5.48,5.48,0,0,1,0,.74v3.88h-.63v-5.38h.82l2.69,4.22c.11.18.19.3.22.36h0a6.42,6.42,0,0,1,0-.79v-3.79h.63Z"/><path class="cls-1" d="M214.13,168.29a3.16,3.16,0,0,1-1.49.32,2.4,2.4,0,0,1-1.83-.74,2.72,2.72,0,0,1-.69-1.94,2.83,2.83,0,0,1,.77-2.08,2.65,2.65,0,0,1,2-.8,3.33,3.33,0,0,1,1.27.22V164a2.54,2.54,0,0,0-1.28-.33,2,2,0,0,0-1.5.62,2.36,2.36,0,0,0-.57,1.66,2.25,2.25,0,0,0,.53,1.56,1.83,1.83,0,0,0,1.42.58,2.65,2.65,0,0,0,1.4-.36Z"/><path class="cls-1" d="M222,163.14l-1.77,3.39v2h-.63v-2l-1.73-3.41h.72l1.2,2.43s.06.14.13.33h0a3.13,3.13,0,0,1,.14-.33l1.26-2.43Z"/></svg>