<svg id="Layer_1" data-name="Layer 1" xmlns="http://www.w3.org/2000/svg" viewBox="0 0 360 200"><defs><style>.cls-1{fill:#f2f2f2;}</style></defs><path class="cls-1" d="M91.3,112l-1.47,0-1.57,0v.49a2.4,2.4,0,0,1,1.54.48,1.89,1.89,0,0,1,.56,1.5,9.57,9.57,0,0,1-.56,2.92l-2.33,7.4-3.35-10.24a3.1,3.1,0,0,1-.23-1.33.67.67,0,0,1,.49-.56,4.14,4.14,0,0,1,1.16-.17v-.49L84,112l-2,0-1.87,0-1.63,0v.49a1.41,1.41,0,0,1,.75.29,2.21,2.21,0,0,1,.6,1l1.25,3.81-2.49,7.28-3.56-10.35a3.77,3.77,0,0,1-.21-1,1.09,1.09,0,0,1,.16-.74,1,1,0,0,1,.68-.35v-.49l-1.26,0-1.75,0-1.91,0-1.74,0v.49a1.63,1.63,0,0,1,.8.34,2.57,2.57,0,0,1,.74,1.23l5.49,15.33a2.82,2.82,0,0,1,.42,0h.88a2.75,2.75,0,0,1,.41,0L81.4,118.4,85,129.31a2.82,2.82,0,0,1,.42,0h.88a2.68,2.68,0,0,1,.41,0l4.32-14a5.67,5.67,0,0,1,1-2.07,3,3,0,0,1,1.13-.84v-.49l-.84,0Z"/><path class="cls-1" d="M107.4,112.63a9.42,9.42,0,0,0-4.54-1,8.66,8.66,0,0,0-4.5,1.15,8.09,8.09,0,0,0-3.06,3.21,10,10,0,0,0-1.11,4.8,9.83,9.83,0,0,0,1.07,4.77,7.34,7.34,0,0,0,3,3,9.42,9.42,0,0,0,4.54,1,8.76,8.76,0,0,0,4.5-1.15,7.92,7.92,0,0,0,3.07-3.21,11.09,11.09,0,0,0,0-9.59A7.32,7.32,0,0,0,107.4,112.63ZM106.89,125a7.37,7.37,0,0,1-1.57,3,3.14,3.14,0,0,1-2.39,1.1,3.27,3.27,0,0,1-2.36-1,7.06,7.06,0,0,1-1.69-3,14.55,14.55,0,0,1-.63-4.52,16.3,16.3,0,0,1,.55-4.48,7.39,7.39,0,0,1,1.57-3,3.13,3.13,0,0,1,2.39-1.1,3.29,3.29,0,0,1,2.36,1,7.08,7.08,0,0,1,1.69,3,14.49,14.49,0,0,1,.63,4.53A16.77,16.77,0,0,1,106.89,125Z"/><path class="cls-1" d="M130.66,112h-1.74l-4.52,11.85-4.94-11.92-1.8,0-2.07,0-1.15,0-1,0v.49a4,4,0,0,1,1.17.18.89.89,0,0,1,.53.59,4.81,4.81,0,0,1,.14,1.34v11a9.86,9.86,0,0,1-.14,1.85,1.49,1.49,0,0,1-.52,1,2.61,2.61,0,0,1-1.18.42v.49c.26,0,.59,0,1-.06H117q.76,0,1.23.06v-.49a3.87,3.87,0,0,1-1.58-.43,1.44,1.44,0,0,1-.65-1,10.82,10.82,0,0,1-.15-2.07V113.51l6.62,15.78h.39l5.9-15.43v12.8a4.45,4.45,0,0,1-.15,1.33.89.89,0,0,1-.57.59,5.42,5.42,0,0,1-1.26.19v.49c.42,0,1,0,1.66-.06h4.33c.69,0,1.27,0,1.72.06v-.49a4.55,4.55,0,0,1-1.17-.19.87.87,0,0,1-.53-.59,5,5,0,0,1-.13-1.33V114.52a4.89,4.89,0,0,1,.13-1.34.92.92,0,0,1,.53-.59,3.87,3.87,0,0,1,1.17-.18v-.49l-1.72,0Z"/><path class="cls-1" d="M149.81,125.54c0-.85,0-1.54.07-2.06h-.56a10.4,10.4,0,0,1-.92,3.11,3.83,3.83,0,0,1-1.44,1.63,3.89,3.89,0,0,1-2,.48h-1.2a3.67,3.67,0,0,1-1.09-.12.76.76,0,0,1-.48-.49,3.93,3.93,0,0,1-.12-1.13v-6.17h.78a2.64,2.64,0,0,1,1.6.45,3,3,0,0,1,.94,1.19,5.84,5.84,0,0,1,.45,1.59h.57c-.07-.93-.11-1.64-.13-2.13s0-.94,0-1.35,0-.86,0-1.35,0-1.2.08-2.13h-.56a6.85,6.85,0,0,1-.44,1.41,3.69,3.69,0,0,1-.91,1.29,2.22,2.22,0,0,1-1.57.54h-.78v-6.08a3.92,3.92,0,0,1,.12-1.14.73.73,0,0,1,.48-.47,3.31,3.31,0,0,1,1.09-.13h1a4.19,4.19,0,0,1,1.93.43,3.21,3.21,0,0,1,1.33,1.47,9.17,9.17,0,0,1,.76,2.83h.56c0-.2,0-.44,0-.73s0-.61,0-.94,0-.87,0-1.54.07-1.36.13-2.08c-.75,0-1.6,0-2.56.06h-4.76l-2.92,0-2.86,0v.49a4,4,0,0,1,1.16.18.91.91,0,0,1,.54.59,4.81,4.81,0,0,1,.14,1.34v12.14a4.88,4.88,0,0,1-.14,1.33.85.85,0,0,1-.53.59,4.55,4.55,0,0,1-1.17.19v.49c.88,0,1.84,0,2.86-.06h7.92c1,0,2,0,2.81.06-.08-.73-.13-1.44-.14-2.13S149.81,125.91,149.81,125.54Z"/><path class="cls-1" d="M166.17,112l-1.42,0-1.22,0v.49a3.5,3.5,0,0,1,1.58.42,1.54,1.54,0,0,1,.65,1,11.9,11.9,0,0,1,.14,2.07v7.66l-9.48-11.68-1,0-1.12,0-1.15,0-1,0v.49a4,4,0,0,1,1.16.18.91.91,0,0,1,.54.59,4.89,4.89,0,0,1,.13,1.34v11a10,10,0,0,1-.13,1.85,1.5,1.5,0,0,1-.53,1,2.57,2.57,0,0,1-1.17.42v.49c.26,0,.58,0,1-.06h2.57c.5,0,.91,0,1.22.06v-.49a3.92,3.92,0,0,1-1.58-.43,1.47,1.47,0,0,1-.65-1,11.9,11.9,0,0,1-.14-2.07v-9.4l10.63,13.47c.23,0,.44,0,.65,0s.4,0,.6,0V115.64a9.91,9.91,0,0,1,.13-1.86,1.61,1.61,0,0,1,.53-1,2.36,2.36,0,0,1,1.17-.4v-.49l-1,0Z"/><path class="cls-1" d="M186.45,120.84a22,22,0,0,0-2.1-1.52l-2.29-1.6a5.92,5.92,0,0,1-1.44-1.35,2.92,2.92,0,0,1-.49-1.68,2.32,2.32,0,0,1,.76-1.84,2.85,2.85,0,0,1,1.94-.66A3.27,3.27,0,0,1,185,113a4.94,4.94,0,0,1,1.38,2,8,8,0,0,1,.59,2.48h.57c0-1.15,0-2.07,0-2.77s0-1.27.05-1.7,0-.81.06-1.12h-.56q-.15,1.08-.54,1.08a.8.8,0,0,1-.36-.09c-.12,0-.28-.14-.48-.25a8,8,0,0,0-1.34-.65,6.26,6.26,0,0,0-2.23-.31,7.45,7.45,0,0,0-2.68.48,4.58,4.58,0,0,0-2,1.47,4,4,0,0,0-.77,2.53,4.37,4.37,0,0,0,.6,2.33,6.56,6.56,0,0,0,1.6,1.74c.67.51,1.39,1,2.16,1.52a18,18,0,0,1,2.65,2,3.35,3.35,0,0,1,1,2.51,2.44,2.44,0,0,1-.88,2.06,3.38,3.38,0,0,1-2.15.69,3.59,3.59,0,0,1-2.51-.86,5.07,5.07,0,0,1-1.4-2.27,12,12,0,0,1-.55-3h-.56c0,1.29,0,2.35,0,3.2s0,1.52,0,2,0,1-.06,1.37h.56q.15-1.08.54-1.08a1.77,1.77,0,0,1,.83.35,11.12,11.12,0,0,0,1.52.61,8,8,0,0,0,2.43.29,8.38,8.38,0,0,0,3-.52,5.22,5.22,0,0,0,2.22-1.58,4.14,4.14,0,0,0,.84-2.67,4.48,4.48,0,0,0-.56-2.28A6.37,6.37,0,0,0,186.45,120.84Z"/><path class="cls-1" d="M204.06,112l-1.42,0-1.22,0v.49a3.34,3.34,0,0,1,1.53.42,1.56,1.56,0,0,1,.67,1,9.06,9.06,0,0,1,.18,2.07v6.46a12.21,12.21,0,0,1-.41,3.3,4.43,4.43,0,0,1-1.37,2.24,4.06,4.06,0,0,1-2.68.81,3.31,3.31,0,0,1-2.05-.57,2.94,2.94,0,0,1-1-1.67,11.39,11.39,0,0,1-.29-2.76v-9.23a4.81,4.81,0,0,1,.14-1.34.94.94,0,0,1,.58-.59,4.58,4.58,0,0,1,1.26-.18v-.49l-1.73,0-2.16,0-2.17,0-1.65,0v.49a3.87,3.87,0,0,1,1.17.18.92.92,0,0,1,.53.59,4.89,4.89,0,0,1,.13,1.34v7.69a21,21,0,0,0,.15,2.7,6.5,6.5,0,0,0,.56,2,4.81,4.81,0,0,0,1.2,1.49,5.36,5.36,0,0,0,2.11,1,10.79,10.79,0,0,0,2.3.25,6.89,6.89,0,0,0,3.11-.61,4.38,4.38,0,0,0,1.86-1.66,6.6,6.6,0,0,0,.79-2.28,17.44,17.44,0,0,0,.22-2.92v-6.49a11,11,0,0,1,.12-1.86,1.51,1.51,0,0,1,.53-1,2.44,2.44,0,0,1,1.19-.4v-.49l-1,0Z"/><path class="cls-1" d="M220.38,113.29a8.09,8.09,0,0,0-5.1-1.35l-1.56,0-2.28,0-2.07,0-1.66,0v.49a4,4,0,0,1,1.17.18.91.91,0,0,1,.54.59,4.89,4.89,0,0,1,.13,1.34v12.14a5,5,0,0,1-.13,1.33.87.87,0,0,1-.53.59,4.56,4.56,0,0,1-1.18.19v.49l1.82,0,2.05,0,2.53,0,2,0v-.54a7.3,7.3,0,0,1-1.67-.17,1.07,1.07,0,0,1-.76-.61,3.93,3.93,0,0,1-.19-1.42v-4.26h1.29a10.71,10.71,0,0,0,3.58-.52,6.06,6.06,0,0,0,2.24-1.33,4.86,4.86,0,0,0,1.17-1.79,5.77,5.77,0,0,0,.34-1.85A4.27,4.27,0,0,0,220.38,113.29Zm-2.66,6.08a3.41,3.41,0,0,1-1,1.73,3.17,3.17,0,0,1-2.19.67h-1.05v-7.25a3.33,3.33,0,0,1,.28-1.69q.28-.42,1.23-.42a2.52,2.52,0,0,1,2.36,1.15A7.06,7.06,0,0,1,218,117,9.13,9.13,0,0,1,217.72,119.37Z"/><path class="cls-1" d="M236.2,113.29a8.06,8.06,0,0,0-5.09-1.35l-1.57,0-2.28,0-2.07,0-1.65,0v.49a4,4,0,0,1,1.16.18.91.91,0,0,1,.54.59,4.89,4.89,0,0,1,.13,1.34v12.14a5,5,0,0,1-.13,1.33.87.87,0,0,1-.53.59,4.55,4.55,0,0,1-1.17.19v.49l1.81,0,2.06,0,2.52,0,2,0v-.54a7.37,7.37,0,0,1-1.67-.17,1,1,0,0,1-.75-.61,3.69,3.69,0,0,1-.2-1.42v-4.26h1.3a10.65,10.65,0,0,0,3.57-.52,6,6,0,0,0,2.24-1.33,4.86,4.86,0,0,0,1.17-1.79,5.51,5.51,0,0,0,.34-1.85A4.24,4.24,0,0,0,236.2,113.29Zm-2.66,6.08a3.35,3.35,0,0,1-1,1.73,3.14,3.14,0,0,1-2.19.67h-1v-7.25a3.33,3.33,0,0,1,.28-1.69c.19-.28.6-.42,1.24-.42a2.51,2.51,0,0,1,2.35,1.15,6.93,6.93,0,0,1,.69,3.48A9.12,9.12,0,0,1,233.54,119.37Z"/><path class="cls-1" d="M252.92,112.63a9.44,9.44,0,0,0-4.55-1,8.65,8.65,0,0,0-4.49,1.15,8.09,8.09,0,0,0-3.06,3.21,11,11,0,0,0,0,9.57,7.34,7.34,0,0,0,3,3,9.4,9.4,0,0,0,4.54,1,8.7,8.7,0,0,0,4.49-1.15,7.94,7.94,0,0,0,3.08-3.21,10.06,10.06,0,0,0,1.1-4.8,9.88,9.88,0,0,0-1.08-4.79A7.38,7.38,0,0,0,252.92,112.63ZM252.4,125a7.36,7.36,0,0,1-1.56,3,3.14,3.14,0,0,1-2.39,1.1,3.29,3.29,0,0,1-2.37-1,7.17,7.17,0,0,1-1.69-3,14.87,14.87,0,0,1-.62-4.52,16.3,16.3,0,0,1,.55-4.48,7.39,7.39,0,0,1,1.57-3,3.13,3.13,0,0,1,2.39-1.1,3.29,3.29,0,0,1,2.36,1,7.19,7.19,0,0,1,1.69,3,14.5,14.5,0,0,1,.62,4.53A16.37,16.37,0,0,1,252.4,125Z"/><path class="cls-1" d="M274.77,128.29a1.07,1.07,0,0,1-.53.16.79.79,0,0,1-.71-.39,5,5,0,0,1-.47-1.37l-.56-2.52a3.52,3.52,0,0,0-1.38-2.28,6.79,6.79,0,0,0-3.27-1,10.55,10.55,0,0,0,1.71-.34,5.82,5.82,0,0,0,2.24-1.15,4.17,4.17,0,0,0,1.17-1.57,4.37,4.37,0,0,0,.34-1.67,3.55,3.55,0,0,0-1.69-3.15,9.41,9.41,0,0,0-5.1-1.12L265,112l-2.28,0-2.07,0-1.65,0v.49a4,4,0,0,1,1.16.18.91.91,0,0,1,.54.59,4.89,4.89,0,0,1,.13,1.34v12.14a5,5,0,0,1-.13,1.33.87.87,0,0,1-.53.59,4.55,4.55,0,0,1-1.17.19v.49c.4,0,1,0,1.65-.06h4.25c.67,0,1.22,0,1.66.06v-.49a4.55,4.55,0,0,1-1.17-.19.87.87,0,0,1-.53-.59,5,5,0,0,1-.13-1.33V121h1.59a1.57,1.57,0,0,1,1.19.45,3.2,3.2,0,0,1,.67,1.23,14.21,14.21,0,0,1,.42,1.8L269,127a2.93,2.93,0,0,0,1.13,2.08,3.84,3.84,0,0,0,2.18.56,4.57,4.57,0,0,0,1.83-.33,4,4,0,0,0,1.42-1.09l-.34-.29A2.23,2.23,0,0,1,274.77,128.29ZM265,112.83c.19-.28.6-.42,1.24-.42a2.58,2.58,0,0,1,2.35,1.06,5.66,5.66,0,0,1,.68,3,6.85,6.85,0,0,1-.28,2,2.82,2.82,0,0,1-1,1.47,3.63,3.63,0,0,1-2.19.55h-1.05v-6A3.33,3.33,0,0,1,265,112.83Z"/><path class="cls-1" d="M290.8,116.08c0-.4,0-1,0-1.76s.06-1.57.13-2.4l-2.42,0-2.69,0H281l-2.68,0-2.46,0c.06.83.11,1.63.13,2.4s0,1.36,0,1.76,0,.71,0,1a8.21,8.21,0,0,1-.06.83h.56a14.39,14.39,0,0,1,1-3.27A3.93,3.93,0,0,1,279,113a3.76,3.76,0,0,1,2-.5h.54v14a4.2,4.2,0,0,1-.2,1.47,1.07,1.07,0,0,1-.76.65,7.09,7.09,0,0,1-1.66.18v.49l1.93,0,2.55,0,2.63,0,2,0v-.49a7,7,0,0,1-1.64-.18,1.11,1.11,0,0,1-.77-.65,3.94,3.94,0,0,1-.21-1.47v-14h.56a3.73,3.73,0,0,1,2,.5,4,4,0,0,1,1.44,1.71,12.72,12.72,0,0,1,1,3.25h.56c0-.22,0-.5-.05-.83S290.8,116.44,290.8,116.08Z"/><polygon class="cls-1" points="83.6 140.65 85.14 140.94 85.14 151.47 83.6 151.76 83.6 153.25 89.12 153.25 89.12 151.76 87.58 151.47 87.58 147.23 92.61 147.23 92.61 145.34 87.58 145.34 87.58 141.04 92.51 141.04 92.67 142.81 94.56 142.81 94.56 139.15 83.6 139.15 83.6 140.65"/><path class="cls-1" d="M104.37,143.26a4.82,4.82,0,0,0-2.6-.68,4.68,4.68,0,0,0-2.57.69,4.45,4.45,0,0,0-1.67,1.89,6.22,6.22,0,0,0-.58,2.76v.2a6.31,6.31,0,0,0,.58,2.78,4.42,4.42,0,0,0,1.67,1.88,5.25,5.25,0,0,0,5.17,0A4.49,4.49,0,0,0,106,150.9a6.45,6.45,0,0,0,.58-2.78v-.2a6.38,6.38,0,0,0-.58-2.77A4.58,4.58,0,0,0,104.37,143.26Zm-.18,4.86a5.5,5.5,0,0,1-.27,1.8,2.57,2.57,0,0,1-.79,1.22,2,2,0,0,1-1.34.44,2.09,2.09,0,0,1-1.35-.44,2.57,2.57,0,0,1-.79-1.22,5.79,5.79,0,0,1-.26-1.8v-.2a5.72,5.72,0,0,1,.26-1.79,2.62,2.62,0,0,1,.79-1.22,2,2,0,0,1,1.33-.44,2.09,2.09,0,0,1,1.36.44,2.62,2.62,0,0,1,.79,1.22,5.43,5.43,0,0,1,.27,1.79Z"/><path class="cls-1" d="M119.5,142.77h-3.76v1.5l1.32.29v5.76a2.31,2.31,0,0,1-.88.9,2.87,2.87,0,0,1-1.36.31,1.58,1.58,0,0,1-1.33-.55,3.13,3.13,0,0,1-.43-1.9v-6.31h-3.62v1.5l1.18.29v4.5a5,5,0,0,0,.94,3.33,3.34,3.34,0,0,0,2.63,1.07,3.39,3.39,0,0,0,3-1.63l.16,1.42h3.4v-1.49l-1.24-.29Z"/><path class="cls-1" d="M133.86,146.68a4.53,4.53,0,0,0-.9-3.11,3.23,3.23,0,0,0-2.52-1,3.48,3.48,0,0,0-1.77.45,3.81,3.81,0,0,0-1.3,1.26l-.12-1.52h-3.78v1.5l1.53.29v6.91l-1.46.29v1.49h5.23v-1.49l-1.33-.29V145.7a2.3,2.3,0,0,1,2.09-1.19,1.85,1.85,0,0,1,1.42.5,2.44,2.44,0,0,1,.47,1.69v4.77l-1.37.29v1.49h5.26v-1.49l-1.45-.29Z"/><path class="cls-1" d="M147.25,138.14h-4v1.5l1.54.29v4a3.32,3.32,0,0,0-1.16-1,3.73,3.73,0,0,0-3.73.36,4.34,4.34,0,0,0-1.38,1.94,8.18,8.18,0,0,0-.48,2.93v.2a6.9,6.9,0,0,0,.48,2.68,4,4,0,0,0,1.38,1.79,3.69,3.69,0,0,0,2.17.64,3.52,3.52,0,0,0,1.65-.38A3.3,3.3,0,0,0,145,152l.19,1.26h3.56v-1.49l-1.45-.29Zm-2.44,12.2a2.35,2.35,0,0,1-.83.88,2.23,2.23,0,0,1-1.2.31,1.9,1.9,0,0,1-1.74-.86,4.35,4.35,0,0,1-.54-2.32v-.2a6.75,6.75,0,0,1,.24-1.9,2.65,2.65,0,0,1,.75-1.28,1.86,1.86,0,0,1,1.3-.46,2.12,2.12,0,0,1,1.19.32,2.46,2.46,0,0,1,.83.89Z"/><path class="cls-1" d="M160.28,151.23c0-.14,0-.27,0-.42v-4.62a3.26,3.26,0,0,0-1.15-2.68,4.84,4.84,0,0,0-3.14-.93,7.32,7.32,0,0,0-2.11.29,7.41,7.41,0,0,0-1.73.8l0,2.59H154l.22-1.41a2.41,2.41,0,0,1,.75-.38,3.36,3.36,0,0,1,.95-.13,2,2,0,0,1,1.45.5,1.75,1.75,0,0,1,.5,1.32V147h-1.6a6.85,6.85,0,0,0-2.54.43,3.57,3.57,0,0,0-1.58,1.16,2.84,2.84,0,0,0-.55,1.74,2.92,2.92,0,0,0,.89,2.26,3.55,3.55,0,0,0,2.49.83,3.38,3.38,0,0,0,1.68-.42,4.36,4.36,0,0,0,1.26-1.08c0,.21.07.42.12.64l.18.65h3.19v-1.49l-1.07-.13C160.29,151.5,160.28,151.37,160.28,151.23Zm-2.45-.87a2.31,2.31,0,0,1-1,.86,2.82,2.82,0,0,1-1.37.35,1.68,1.68,0,0,1-1.12-.33,1.15,1.15,0,0,1-.38-.94,1.57,1.57,0,0,1,.55-1.19,2.36,2.36,0,0,1,1.65-.51h1.63Z"/><path class="cls-1" d="M169.25,151.52a4.68,4.68,0,0,1-.61,0,1,1,0,0,1-.75-.31,1.42,1.42,0,0,1-.27-1v-5.77h2.07v-1.75h-2.07v-2.55h-2.43v2.55h-1.54v1.75h1.54v5.77a3.29,3.29,0,0,0,.74,2.4,2.81,2.81,0,0,0,2.08.75,6.6,6.6,0,0,0,1.06-.09,9.54,9.54,0,0,0,1-.21l-.25-1.72A4.08,4.08,0,0,1,169.25,151.52Z"/><polygon class="cls-1" points="176.83 142.77 172.85 142.77 172.85 144.27 174.39 144.56 174.39 151.47 172.94 151.76 172.94 153.25 178.28 153.25 178.28 151.76 176.83 151.47 176.83 142.77"/><rect class="cls-1" x="174.29" y="138.14" width="2.54" height="2.26"/><path class="cls-1" d="M188.55,143.26a4.84,4.84,0,0,0-2.6-.68,4.71,4.71,0,0,0-2.58.69,4.43,4.43,0,0,0-1.66,1.89,6.22,6.22,0,0,0-.59,2.76v.2a6.31,6.31,0,0,0,.59,2.78,4.4,4.4,0,0,0,1.66,1.88,4.84,4.84,0,0,0,2.6.68,4.77,4.77,0,0,0,2.58-.68,4.47,4.47,0,0,0,1.66-1.88,6.31,6.31,0,0,0,.58-2.78v-.2a6.24,6.24,0,0,0-.58-2.77A4.55,4.55,0,0,0,188.55,143.26Zm-.19,4.86a5.79,5.79,0,0,1-.26,1.8,2.65,2.65,0,0,1-.79,1.22,2,2,0,0,1-1.34.44,2.09,2.09,0,0,1-1.35-.44,2.59,2.59,0,0,1-.8-1.22,5.8,5.8,0,0,1-.25-1.8v-.2a5.73,5.73,0,0,1,.25-1.79,2.7,2.7,0,0,1,.79-1.22,2.06,2.06,0,0,1,1.34-.44,2.09,2.09,0,0,1,1.36.44,2.7,2.7,0,0,1,.79,1.22,5.72,5.72,0,0,1,.26,1.79Z"/><path class="cls-1" d="M204.1,146.68a4.53,4.53,0,0,0-.9-3.11,3.23,3.23,0,0,0-2.52-1,3.47,3.47,0,0,0-1.76.45,3.84,3.84,0,0,0-1.31,1.26l-.12-1.52h-3.78v1.5l1.53.29v6.91l-1.45.29v1.49H199v-1.49l-1.33-.29V145.7a2.42,2.42,0,0,1,.86-.88,2.34,2.34,0,0,1,1.23-.31,1.85,1.85,0,0,1,1.42.5,2.44,2.44,0,0,1,.47,1.69v4.77l-1.36.29v1.49h5.26v-1.49l-1.46-.29Z"/><polygon class="cls-1" points="222.6 145.28 226.79 140.91 228.11 140.65 228.11 139.15 222.85 139.15 222.85 140.65 224.1 140.78 224.07 140.81 218.93 146.28 218.93 140.94 220.42 140.65 220.42 139.15 214.95 139.15 214.95 140.65 216.49 140.94 216.49 151.47 214.95 151.76 214.95 153.25 220.42 153.25 220.42 151.76 218.93 151.47 218.93 149.12 221.02 146.94 224.41 151.63 224.41 151.64 223.16 151.76 223.16 153.25 228.62 153.25 228.62 151.76 227.27 151.52 222.6 145.28"/><path class="cls-1" d="M240.26,151.23c0-.14,0-.27,0-.42v-4.62a3.26,3.26,0,0,0-1.15-2.68,4.84,4.84,0,0,0-3.14-.93,7.32,7.32,0,0,0-2.11.29,7.15,7.15,0,0,0-1.72.8v2.59h1.8l.22-1.41a2.41,2.41,0,0,1,.75-.38,3.36,3.36,0,0,1,1-.13,2,2,0,0,1,1.45.5,1.75,1.75,0,0,1,.5,1.32V147h-1.6a6.75,6.75,0,0,0-2.53.43,3.55,3.55,0,0,0-1.59,1.16,2.84,2.84,0,0,0-.55,1.74,2.89,2.89,0,0,0,.9,2.26,3.51,3.51,0,0,0,2.48.83,3.38,3.38,0,0,0,1.68-.42,4.36,4.36,0,0,0,1.26-1.08c0,.21.07.42.12.64l.18.65h3.19v-1.49l-1.07-.13C240.27,151.5,240.26,151.37,240.26,151.23Zm-2.45-.87a2.31,2.31,0,0,1-1,.86,2.82,2.82,0,0,1-1.37.35,1.68,1.68,0,0,1-1.12-.33,1.15,1.15,0,0,1-.38-.94,1.57,1.57,0,0,1,.55-1.19,2.36,2.36,0,0,1,1.65-.51h1.63Z"/><path class="cls-1" d="M252.33,143.27a3.84,3.84,0,0,0-3.8-.34,3.23,3.23,0,0,0-1.17,1v-5.8h-4v1.5l1.54.29v13.32H247l.19-1.3a3.29,3.29,0,0,0,1.2,1.12,3.54,3.54,0,0,0,1.71.39,3.65,3.65,0,0,0,2.18-.64A3.94,3.94,0,0,0,253.7,151a7,7,0,0,0,.48-2.69v-.2a8.24,8.24,0,0,0-.48-2.94A4.33,4.33,0,0,0,252.33,143.27Zm-.6,5.08a4.3,4.3,0,0,1-.54,2.33,1.93,1.93,0,0,1-1.75.85,2.36,2.36,0,0,1-1.24-.32,2.58,2.58,0,0,1-.84-.92v-4.48a2.65,2.65,0,0,1,.83-.95,2.17,2.17,0,0,1,1.26-.35,1.89,1.89,0,0,1,1.3.45,2.68,2.68,0,0,1,.74,1.27,6.8,6.8,0,0,1,.24,1.92Z"/><path class="cls-1" d="M267.07,142.77h-3.76v1.5l1.32.29v5.76a2.33,2.33,0,0,1-.89.9,2.81,2.81,0,0,1-1.35.31,1.58,1.58,0,0,1-1.33-.55,3.13,3.13,0,0,1-.43-1.9v-6.31H257v1.5l1.18.29v4.5a5,5,0,0,0,.94,3.33,3.34,3.34,0,0,0,2.63,1.07,3.52,3.52,0,0,0,1.73-.42,3.47,3.47,0,0,0,1.26-1.21l.16,1.42h3.4v-1.49l-1.24-.29Z"/><polygon class="cls-1" points="274.94 151.47 274.94 138.14 270.96 138.14 270.96 139.64 272.51 139.93 272.51 151.47 271.04 151.76 271.04 153.25 276.4 153.25 276.4 151.76 274.94 151.47"/><path class="cls-1" d="M187.48,61.86c.27-3.68.2-7.61.25-11.51V46.87l-.83.43h0l-.06,0-1.21.66a4.08,4.08,0,0,1-2.92.28c-1.54-.44-2.86-.86-4.4-1.29a12.64,12.64,0,0,0-2.13-.36l-.42.62C182.82,49.7,185.67,55.35,187.48,61.86Z"/><path class="cls-1" d="M147.88,79.49c-.28,3.67-.21,7.61-.26,11.51v3.47l.83-.43h0l0,0,1.21-.66a4.11,4.11,0,0,1,2.93-.29c1.54.45,2.86.86,4.4,1.3a14.8,14.8,0,0,0,2.13.36c.13-.21.27-.42.41-.63C152.54,91.65,149.69,86,147.88,79.49Z"/><path class="cls-1" d="M184.41,71.54c-3.26-3.11-7.27-5-11.43-6.6a87.8,87.8,0,0,1-11.44-5.09c-3.88-2.21-5.3-5.28-3.85-9,.48-1.23,1-2.52,2.55-2.94.33-.09.57-.55,1.25-1.26-4.87.89-8.66,2.63-11.52,5.83a11.84,11.84,0,0,0-2.31,12.35c1.13,3.31,3.71,5.57,6.64,7.2,3.56,2,7.32,3.64,11.06,5.28,3,1.33,6,2.81,8.89,4.41,4.21,2.3,4.68,9.32.16,11.59-.17.09-.2.48-.51,1.31A29.08,29.08,0,0,0,182,90.51c3.87-3,5.93-6.74,5.64-11.56A10.82,10.82,0,0,0,184.41,71.54Z"/><path class="cls-1" d="M227.47,46.63H216.3a1.21,1.21,0,0,0,.52.32c.18,0,.31.12.51.18,4.74,1.61,9.34,6.75,10.06,8.84a13.27,13.27,0,0,0,1.4,2.1V46.63Z"/><path class="cls-1" d="M218.23,63.44a12.37,12.37,0,0,1-9.54,6.68c1.94.89,4,1.33,5.67,2.69s2.53,3.34,4.13,5.32l.35.25V62.73A2.74,2.74,0,0,0,218.23,63.44Z"/><rect class="cls-1" x="191.12" y="46.63" width="13.45" height="48.02"/><rect class="cls-1" x="231.78" y="46.63" width="13.45" height="48.02"/><path class="cls-1" d="M273.19,89.85,256.09,66.5l13.39-15.86a9.49,9.49,0,0,1,7.49-3.3h.27v-.62H261.52v.62h.68a2,2,0,0,1,1.93,1,2.26,2.26,0,0,1,.2,1,2.06,2.06,0,0,1-.55,1.24L247.51,72.13q0,.28,12.29,17,4.33,5.72,14.77,5.7h5.63v-.68C277.63,94,275.3,92.6,273.19,89.85Z"/><polygon class="cls-1" points="79.8 46.63 100.55 94.64 110.12 80.98 95.44 46.63 79.8 46.63"/><path class="cls-1" d="M135.86,61.6c.34-.06.68-.11,1-.2a.42.42,0,0,0,.13-.33c0-.07-.15-.17-.24-.19a4.22,4.22,0,0,0-4.3,2.54c0,.12,0,.25-.06.37l.09.05a4.28,4.28,0,0,1,.52-.67,10.41,10.41,0,0,1,1.6-1.31A3.81,3.81,0,0,1,135.86,61.6Z"/><path class="cls-1" d="M137.44,62.91c-.19,0-.38-.09-.58-.12a2.62,2.62,0,0,0-2.6.85,13.79,13.79,0,0,1-1.17,1.12c.39.17.39.17.62-.11s.53-.64.76-.92a4.54,4.54,0,0,0,.59.78.68.68,0,0,0,.58,0c.53-.19.64-.73.28-1.56l1.5.08A.59.59,0,0,0,137.44,62.91ZM135.15,64a.34.34,0,0,1-.3-.07c0-.11,0-.25.06-.46.17.1.33.14.35.22A.36.36,0,0,1,135.15,64Z"/><path class="cls-1" d="M142.31,58.07a5.27,5.27,0,0,1,.71.12l.24.06a2,2,0,0,0-.36-.36,1.77,1.77,0,0,0-1.9-.2A2.51,2.51,0,0,0,139.7,59c0,.13.06.33.09.49a1.65,1.65,0,0,0,.46-.14.6.6,0,0,0,.21-.32A1.64,1.64,0,0,1,142.31,58.07Z"/><path class="cls-1" d="M143.41,59.29c-.53,0-1.06,0-1.58.08a.77.77,0,0,0-.47.35c-.25.39-.45.82-.66,1.23l.15.08c.17-.34.34-.68.54-1.06.3.75.62,1,1,.86s.37-.65,0-1.24c.34-.23.79.23,1.08-.19a.67.67,0,0,0,.06-.12Z"/><path class="cls-1" d="M142,54l.27.26a2.72,2.72,0,0,0,.51.42l.06,0c-.08-.37-.13-.75-.22-1.11a11,11,0,0,0-1.35-3.13,9.05,9.05,0,0,0-.83-1.1,8.93,8.93,0,0,0-6.84-2.81c-.75,0-1.5,0-2.24.09H108.14l20.74,48L138.46,81l-1.93-4.52.15-.53-.3,0h-.09l-5.63-13.16a25.48,25.48,0,0,1,2.05-4,34.18,34.18,0,0,1,4.1-5.48c.24-.25.51-.47.76-.71a1.6,1.6,0,0,1,1.82-.33,6.42,6.42,0,0,1,1.39.75A11.77,11.77,0,0,1,142,54Zm-13.4,3.9-.08-.19h0l-.14-.32h0l0-.09,1.37-2.7Z"/></svg>