<svg id="Layer_1" data-name="Layer 1" xmlns="http://www.w3.org/2000/svg" viewBox="0 0 360 200"><defs><style>.cls-1{fill:#f2f2f2;}</style></defs><path class="cls-1" d="M217,67.28c0,.35,0,.71,0,1.07a6.08,6.08,0,0,1-.79-.94,7.1,7.1,0,0,0-1.39-1.54A26.31,26.31,0,0,0,203,60.76c-8.48-1-16-.37-22.43,1.79l-.54.19-.54-.19c-6.4-2.16-14-2.76-22.43-1.79a26.31,26.31,0,0,0-11.81,5.11,7.1,7.1,0,0,0-1.39,1.54,5.64,5.64,0,0,1-.79.94c0-.36,0-.72,0-1.07a37,37,0,0,1,74,0Z"/><path class="cls-1" d="M198.61,169v.27h.13Zm.77.53a2.17,2.17,0,0,1-.12-.26h-.52c.1.21.18.37.23.46h.51Z"/><path class="cls-1" d="M231.59,105.94a11.52,11.52,0,0,0,.58,1.09,4,4,0,0,1,.8,2.25,1,1,0,0,1-.47.69,1.17,1.17,0,0,0-.4,1.63l.19.41a1.52,1.52,0,0,1-.09,2,2.64,2.64,0,0,1-.37.46c-.56.59-.76,1-.25,2.58a10.86,10.86,0,0,0,.58,1.38,4,4,0,0,1,.52,2.46v0c0,.27-.05.57-.09.9l0,.1a3.47,3.47,0,0,1-2.32,2,14.54,14.54,0,0,1-3.3.69h-.12c-.07,0-.66,0-1.61.1h0c-3.8.38-13.13,2.2-17.56,10.92-3.79,7.43-3.44,8-3.26,8.29a.57.57,0,0,0,.49.28l.62,0c6.4-.63,11.13.32,14.06,2.81.06,0,6,5.25,13,22.34H198.74l-.13-.27V151.09a37.58,37.58,0,0,1,2.09-12.42,34.19,34.19,0,0,0,1.91-11.29V124s0,0,0,0a6.08,6.08,0,0,1-2.88.75h-1.86a6.13,6.13,0,0,1-4.78-2.32h0a6.6,6.6,0,0,1-.69.71c-1.26,1-2.2,1.93-6.87,1.21a12.69,12.69,0,0,0,9.46-7.12c.22,1.39,1.46,4.26,2.91,4.26h1.86a2.89,2.89,0,0,0,2.83-2.28,8,8,0,0,0,5.3,0c3.61-1.43,5.22-4.93,4.66-10.13a6,6,0,0,1,1.57-4.38,3.91,3.91,0,0,0,1.1-2.58l0-.31a24.61,24.61,0,0,0-.38-2.55,12.48,12.48,0,0,0-1-2.82l-.19-.38a10.94,10.94,0,0,0-4.88-5.4A19.19,19.19,0,0,0,203,88.7a3.47,3.47,0,0,0-1.42.1,2.78,2.78,0,0,1-.56.09,2,2,0,0,1,0-.82c.21-1.28-1.24-9.8-8.18-17.09a32.21,32.21,0,0,0-11.45-7.71c6.17-2,13.39-2.52,21.46-1.59a25.17,25.17,0,0,1,11.36,4.93A6.35,6.35,0,0,1,215.42,68a5.36,5.36,0,0,0,1.15,1.25,3.33,3.33,0,0,1,.34.29c1.7,1.55,8.31,8.66,9.24,16.5a4.15,4.15,0,0,1-.23,1.36c-.29,1.09-.66,2.45.33,3.64.5.6,1.82,1.89,3.34,3.37,2,1.93,4.94,4.83,5.18,5.43a5.46,5.46,0,0,1-1.67,3.06c-.17.17-.35.33-.52.48C231.86,104,231,104.7,231.59,105.94Z"/><path class="cls-1" d="M160.74,169.24a2.17,2.17,0,0,1-.12.26l-.1.2H161c.05-.09.13-.25.23-.46Zm38.64.26a2.17,2.17,0,0,1-.12-.26h-.52c.1.21.18.37.23.46h.51Z"/><path class="cls-1" d="M198.61,169v.27h.13Zm-19.12-41.39a.81.81,0,0,0,.1.3v-.14A1.4,1.4,0,0,0,179.49,127.58Z"/><path class="cls-1" d="M156.34,61.8a27.12,27.12,0,0,0-10.56,4.81l11.35-4.93Zm57.9,40.4,0-.32a13.87,13.87,0,0,0-1.3-5l-.19-.4a10.11,10.11,0,0,0-4.66-5.07,18.22,18.22,0,0,0-5.25-1.76,2.71,2.71,0,0,0-1,.1c-.5.11-1,.23-1.4-.13s-.38-.79-.24-1.66c.19-1.15-1.34-9.37-7.94-16.3A31.49,31.49,0,0,0,180,63.75l-.72-.25-.68-.23h0c-6.17-2-13.39-2.52-21.46-1.59l-.79.12a25.84,25.84,0,0,0-10.56,4.81l-2.69,2.88c-1.71,1.56-8.31,8.67-9.24,16.5a4.15,4.15,0,0,0,.23,1.36c.29,1.09.66,2.45-.33,3.64-.5.6-1.82,1.89-3.34,3.37-2,1.93-4.94,4.83-5.18,5.43a5.46,5.46,0,0,0,1.67,3.06c.17.17.35.33.52.48.72.65,1.54,1.37,1,2.61a11.52,11.52,0,0,1-.58,1.09,4,4,0,0,0-.8,2.25,1,1,0,0,0,.47.69,1.17,1.17,0,0,1,.4,1.63l-.19.41a1.52,1.52,0,0,0,.09,2,2.64,2.64,0,0,0,.37.46c.56.59.76,1,.25,2.58a10.86,10.86,0,0,1-.58,1.38,4,4,0,0,0-.52,2.46v0a8.63,8.63,0,0,0,.09.89l0,.12h0c.6,1.88,3.75,2.46,5.62,2.65h.12c.07,0,.66,0,1.61.1h0c3.8.38,13.13,2.2,17.56,10.93,3.79,7.42,3.44,8,3.26,8.28a.57.57,0,0,1-.49.28l-.62,0c-6.4-.63-11.13.32-14.06,2.81-.06,0-6,5.25-13,22.34h43.58V153.77a11.77,11.77,0,0,0-.28-2.47c0-.22-.1-.45-.16-.67l-.18-.64a33.54,33.54,0,0,0-3.75-7.64,42,42,0,0,1-4.13-8.73c-.2-.61-.43-1.25-.72-2A88.08,88.08,0,0,1,158.16,119l-.09-.45c0-.15-.07-.3-.1-.45-.06-.3-.12-.6-.17-.9l0-.08a16.66,16.66,0,0,1-.26-2.11c-.13-2.43-.53-6.46,1.34-6.84a3.2,3.2,0,0,1,.87-.1H179a4.51,4.51,0,1,1,0,9H168.38a1.63,1.63,0,0,0-.83,3,29.18,29.18,0,0,1,4.58,3.63l.77.76.62.66a28.49,28.49,0,0,1,3.38,4.42,1.63,1.63,0,0,0,2.24.54l.18-.13a1.54,1.54,0,0,0,.36-.41,1.69,1.69,0,0,0,.23-.91v0a1.54,1.54,0,0,0-.24-.74l-.08-.13v.14a.81.81,0,0,1-.1-.3c-.51-.82-1.06-1.59-1.61-2.31l-.33-.42-.33-.42a35.18,35.18,0,0,0-3.95-4.07s0,0,0,0H179a7.76,7.76,0,0,0,2.17-.35h0a7.05,7.05,0,0,0,4.26,4.37,12.69,12.69,0,0,0,9.46-7.12V106.53a2.9,2.9,0,0,1,2.91-2.9h1.86a2.9,2.9,0,0,1,2.9,2.9v11.76a7.21,7.21,0,0,0,4.89,0c3.23-1.27,4.6-4.36,4.08-9.17a6.86,6.86,0,0,1,1.74-5C213.85,103.39,214.31,102.75,214.24,102.2Zm-44.4,2.59a0,0,0,0,1,0,0h-7.64a0,0,0,0,1,0,0v-.53a3.83,3.83,0,0,1,2.21-3.46,3.89,3.89,0,0,1,1.63-.36,3.85,3.85,0,0,1,3.53,2.31,3.77,3.77,0,0,1,.31,1.51Zm10.91.21a0,0,0,0,1,0,0,7.41,7.41,0,0,0-1.71-.21h-5.9l0,0v-2a4.05,4.05,0,0,1,4.13-4.18,3.8,3.8,0,0,1,3.52,3.83Zm10.93,12.67a3.84,3.84,0,0,1-4.62,3.76,3.9,3.9,0,0,1-2.94-3.06,7.62,7.62,0,0,0-.11-11.7h0v-1.38a3.74,3.74,0,0,1,.21-1.26,3.84,3.84,0,0,1,6.45-1.33,3.79,3.79,0,0,1,1,2.59Z"/><path class="cls-1" d="M179.49,127.58a.81.81,0,0,0,.1.3v-.14A1.4,1.4,0,0,0,179.49,127.58ZM198.61,169v.27h.13Zm.77.53a2.17,2.17,0,0,1-.12-.26h-.52c.1.21.18.37.23.46h.51Zm-19.89-41.92a.81.81,0,0,0,.1.3v-.14A1.4,1.4,0,0,0,179.49,127.58Z"/></svg>