<?xml version="1.0" encoding="utf-8"?>
<!-- Generator: Adobe Illustrator 26.0.1, SVG Export Plug-In . SVG Version: 6.00 Build 0)  -->
<svg version="1.1" id="Layer_1" xmlns="http://www.w3.org/2000/svg" xmlns:xlink="http://www.w3.org/1999/xlink" x="0px" y="0px"
	 viewBox="0 0 360 200" style="enable-background:new 0 0 360 200;" xml:space="preserve">
<style type="text/css">
	.st0{fill:#F2F2F2;}
</style>
<path class="st0" d="M232.1,48.1c0,0.6,0,1.5,0,1.9c0,3.4,0,5.8,0,9.3c0,0.2-0.1,0.4-0.3,0.5l-25.7,18.2l-0.3,0.2c0,0,0,0,0,0.1
	c0,0.1-0.1,0.1-0.2,0.2c-2.3,1.7-4.6,3.3-7,4.9c-0.1,0-0.1,0.1-0.2,0.1l0,0l-3.2,2.2l-22.5,15.8c-0.1,0.1-0.2,0.1-0.3,0.2
	c3.5-8.1,6.9-16.1,10.4-24.1h-0.1c-10.4,8.2-20.6,16-31,24.1l0,0c2-6.2,3.9-12,6-18.2v-0.1l-0.1,0.1c-0.1,0.1-0.2,0.1-0.3,0.2
	l-29.2,17.5c0,0-0.1,0-0.1,0.1l-0.8,0.5l0,0c0,0,0-0.1,0-0.1l0,0c3.8-2.9,7.9-6.1,11.6-9c1.4-1,2.8-2.1,4.1-3.2l0,0l0,0
	c0-0.2,0.2-0.2,0.3-0.3c1.9-1.4,3.8-2.9,5.8-4.3c1.7-1.3,3.5-2.6,5.1-4c0.2-0.2,0.4-0.4,0.6-0.5h0.1h0.1h0.1l0,0l8.9-6.9l1.8-1.5
	v12.2l27-19.8c-0.2,5.3-0.5,10.5-0.8,15.7l0,0l0,0L232.1,48.1z"/>
<path class="st0" d="M253.3,92.9c0.2,4.3-2.2,8.2-6.1,10c-1.9,1-4,1.7-6.1,2h-16.5c-2.7,0.1-5.4-0.6-7.8-1.8
	c-1.2-0.6-2.3-1.5-3.1-2.7c-0.1-0.1-0.1-0.2-0.2-0.2c-0.3-0.2-0.5-0.2-0.6,0.1c-0.2,0.3-0.3,0.7-0.3,1c-0.1,0.6-0.2,1.2-0.5,1.8
	c-1,1.9-2.3,3.5-3.8,5c-3.4,3.3-7.1,6.4-11,9.1c-3.8,2.7-7.8,5.1-12,7.3c-0.2,0.1-0.3,0.1-0.5,0.1h-18.7c-0.1,0-0.2,0-0.2-0.1
	l2.8-1.3c5.5-2.5,10.9-5.2,16.1-8.1c2.6-1.5,5.2-3.2,7.6-5c3.3-2.5,6.5-5.2,9.4-8.1c1.4-1.2,2.2-2.9,2.5-4.7c0.3-2,0-4.1-0.9-5.9
	c-0.5-1.1-1.1-2.1-1.8-3c-1-1.5-2-2.9-3-4.4c-0.1-0.1-0.1-0.2-0.2-0.3l0,0c0.8-0.6,1.6-1.2,2.4-1.7l5-3.5l0,0
	c2.2,3.6,4.4,7.2,6.6,10.7c2.8,4.6,7.7,7.4,13.1,7.4c4.7,0,9.3,0,14,0c1.2,0,2.3-0.4,3.3-1c1.1-0.8,1.7-2.1,1.5-3.5
	c-0.2-1.2-0.6-2.4-1.2-3.4c-1.5-2.6-3-5.1-4.7-7.6c-0.2-0.4-0.5-0.7-0.8-1c0-0.1,0.1-0.1,0.2-0.2c2.4-1.4,4.7-2.8,7-4.2
	c0.2-0.1,0.3-0.1,0.4,0.1c2.2,2.8,4.2,5.8,5.9,8.9C252.5,87.2,253.3,90,253.3,92.9z"/>
<path class="st0" d="M155.1,80.2L155.1,80.2L155.1,80.2C155.1,80.2,155.1,80.3,155.1,80.2l-0.1,0.2c-0.5,0.4-1,0.8-1.5,1.2
	c-2.6,2-5.2,4-7.9,6l-2.5,1.9l0,0l-15.8,0.1c-1.3,0-2.7,0-4,0c-3.8,0.1-7.5-1.1-10.6-3.4c-2.7-2.1-4.5-5-5.3-8.3
	c-0.5-1.8-0.7-3.6-0.7-5.4c0-10.8,0.1-21.7,0.1-32.5c0-2.7,0-5.5,0-8.2v-0.3H117v0.3c0,8.9,0,17.8-0.1,26.6c0,4.2,0,8.4,0,12.6
	c0,2,0.4,3.9,1.2,5.7c0.7,1.9,2.3,3.3,4.2,4c0.7,0.2,1.4,0.3,2.1,0.3h16.2c0.9,0,1.7-0.2,2.5-0.5c1.9-0.6,3-2.6,2.4-4.5
	c-0.2-1-0.6-1.9-1.1-2.7c-1.6-2.8-3.3-5.6-5-8.4c-0.1-0.2-0.1-0.3,0.1-0.5c2.3-1.4,4.6-2.8,6.9-4.2c0.2-0.1,0.3-0.1,0.4,0.1
	c2.3,3.5,4.7,7,6.7,10.7c1,1.7,1.6,3.7,1.6,5.7c0,0.8,0,1.5,0.1,2.3C155.4,79.5,155.3,79.9,155.1,80.2z"/>
<path class="st0" d="M193.1,61c0,0.2-0.1,0.2-0.3,0.2h-10c-0.2,0-0.3,0-0.3-0.3v-8.3c0-0.2,0.1-0.3,0.3-0.3h10.1
	c0.2,0,0.3,0.1,0.3,0.3L193.1,61z"/>
<path class="st0" d="M193.1,107.7c0,0.3-0.1,0.3-0.3,0.3h-9.9c-0.3,0-0.3-0.1-0.3-0.3v-8.2c0-0.3,0.1-0.3,0.4-0.3h9.9
	c0.3,0,0.3,0.1,0.3,0.3C193.1,102.2,193.1,105,193.1,107.7z"/>
<path class="st0" d="M246.4,121.9c0,0.2-0.1,0.3-0.3,0.3h-9.4c-0.2,0-0.3,0-0.3-0.3v-7.8c0-0.2,0.1-0.3,0.3-0.3h9.4
	c0.2,0,0.3,0.1,0.3,0.3C246.4,116.8,246.4,119.3,246.4,121.9z"/>
<path class="st0" d="M148.3,53.3c0,0.3-0.1,0.3-0.3,0.3h-9.1c-0.3,0-0.4-0.1-0.4-0.3v-7.5c0-0.3,0.1-0.3,0.3-0.3h9.1
	c0.2,0,0.3,0,0.3,0.3L148.3,53.3z"/>
<path class="st0" d="M118,146.1h-9.4c-0.9,0.2-1.8-0.5-2-1.4c0-0.2,0-0.3,0-0.5v-3.8h2v2.9c0,0.4,0.1,0.7,0.3,0.8
	c0.3,0.1,0.7,0.1,1,0.1h5v-3.8h2v3.8h1.1V146.1z M111.7,138.7c0,0.3-0.1,0.5-0.3,0.7c-0.4,0.4-1,0.4-1.3,0c-0.2-0.2-0.3-0.4-0.3-0.7
	c0-0.3,0.1-0.5,0.3-0.7c0.2-0.2,0.4-0.3,0.7-0.3C111.3,137.7,111.7,138.1,111.7,138.7C111.7,138.7,111.7,138.7,111.7,138.7
	L111.7,138.7z M113.9,138.7c0,0.3-0.1,0.5-0.3,0.7c-0.2,0.2-0.4,0.3-0.7,0.3c-0.3,0-0.5-0.1-0.7-0.3c-0.2-0.2-0.3-0.4-0.3-0.7
	c0-0.3,0.1-0.5,0.3-0.7c0.2-0.2,0.4-0.3,0.7-0.3c0.5,0,1,0.3,1,0.9c0,0,0,0,0,0L113.9,138.7z"/>
<path class="st0" d="M129.9,146.1h-12.5v-1.9h10.5v-1.6c0-0.4-0.1-0.7-0.3-0.8c-0.2-0.1-0.4-0.1-0.6-0.1h-5.6
	c-0.4,0-0.8-0.1-1.2-0.3c-0.3-0.3-0.4-0.7-0.4-1.1V136h10.1v2h-8.1v1.1c0,0.3,0,0.5,0.2,0.8c0.2,0.1,0.5,0.2,0.7,0.1h5.6
	c1,0,1.6,0.5,1.6,1.4L129.9,146.1L129.9,146.1z"/>
<path class="st0" d="M136.6,146.1h-1.2v2.1c0,0.5-0.1,1-0.5,1.4c-0.3,0.4-0.8,0.6-1.3,0.5h-2.7v-2h1.7c0.6,0,0.9-0.3,0.9-1v-6.7h2
	v3.8h1.2L136.6,146.1L136.6,146.1z"/>
<path class="st0" d="M147.7,144.2c0.1,0.9-0.6,1.8-1.5,1.9c-0.2,0-0.3,0-0.5,0h-9.6v-1.9h2.2v-3.8h2v3.8h1.7v-3.8h2v3.8h0.9
	c0.4,0.1,0.8-0.3,0.9-0.7c0-0.1,0-0.1,0-0.2v-2.9h2L147.7,144.2L147.7,144.2z M142.8,138.7c0,0.3-0.1,0.5-0.3,0.7
	c-0.2,0.2-0.4,0.3-0.7,0.3c-0.3,0-0.5-0.1-0.7-0.3c-0.2-0.2-0.3-0.4-0.3-0.7c0-0.3,0.1-0.5,0.3-0.7c0.2-0.2,0.4-0.3,0.7-0.3
	C142.4,137.7,142.8,138.1,142.8,138.7z M143.9,136.9c0,0.3-0.1,0.5-0.3,0.7c-0.2,0.2-0.4,0.3-0.7,0.3c-0.3,0-0.5-0.1-0.7-0.3
	c-0.2-0.2-0.3-0.4-0.3-0.7c0-0.3,0.1-0.5,0.3-0.7c0.2-0.2,0.5-0.3,0.7-0.2c0.3,0,0.5,0.1,0.7,0.3
	C143.9,136.4,143.9,136.7,143.9,136.9L143.9,136.9z M145,138.7c0,0.3-0.1,0.5-0.3,0.7c-0.2,0.2-0.4,0.3-0.7,0.3
	c-0.3,0-0.5-0.1-0.7-0.3c-0.2-0.2-0.3-0.4-0.3-0.7c0-0.3,0.1-0.5,0.3-0.7c0.2-0.2,0.4-0.3,0.7-0.3c0.3,0,0.5,0.1,0.7,0.3
	C144.9,138.2,145,138.4,145,138.7z"/>
<path class="st0" d="M155.4,146.1h-1.5c-0.9,0.1-1.8-0.5-1.9-1.4c0-0.2,0-0.3,0-0.5V136h1.9v7.3c0,0.6,0.3,0.9,1,0.9h0.5
	L155.4,146.1z"/>
<path class="st0" d="M160.2,146.1h-5.3v-1.9h2.2v-3.8h2v3.8h1.2L160.2,146.1L160.2,146.1z M158.9,138.6c0,0.3-0.1,0.5-0.3,0.7
	c-0.2,0.2-0.4,0.3-0.7,0.3c-0.3,0-0.5-0.1-0.7-0.3c-0.2-0.2-0.3-0.4-0.3-0.7c0-0.3,0.1-0.5,0.3-0.7c0.2-0.2,0.4-0.3,0.7-0.3
	c0.3,0,0.5,0.1,0.7,0.3C158.8,138.1,158.9,138.4,158.9,138.6z"/>
<path class="st0" d="M165.6,138.7c0,0.3,0.1,0.5,0.3,0.7c0.2,0.2,0.4,0.3,0.7,0.3c0.3,0,0.5-0.1,0.7-0.3c0.2-0.2,0.3-0.4,0.3-0.7
	c0-0.3-0.1-0.5-0.3-0.7c-0.2-0.2-0.4-0.3-0.7-0.3c-0.3,0-0.5,0.1-0.7,0.3C165.7,138.2,165.6,138.4,165.6,138.7z"/>
<path class="st0" d="M169.4,140.4v2.9c0.1,0.4-0.2,0.8-0.7,0.9c0,0,0,0,0,0h-1.1v-3.8h-2v3.8h-1.7v-3.8h-2v3.8h-2.2v1.9h9.6
	c0.9,0.2,1.8-0.5,2-1.4c0-0.2,0-0.3,0-0.5l0,0v-3.8H169.4z"/>
<path class="st0" d="M178.1,146.1h-1.2v2.1c0,0.5-0.1,1-0.5,1.4c-0.3,0.4-0.8,0.6-1.3,0.5h-2.7v-2h1.7c0.6,0,0.9-0.3,0.9-1v-6.7h2
	v3.8h1.2L178.1,146.1z"/>
<path class="st0" d="M180.8,147.1c-0.3,0-0.5,0.1-0.7,0.3c-0.2,0.2-0.3,0.4-0.3,0.7c0,0.2,0.1,0.5,0.3,0.7c0.4,0.4,1,0.4,1.4,0l0,0
	c0.2-0.2,0.3-0.4,0.3-0.7c0-0.3-0.1-0.5-0.3-0.7C181.3,147.2,181,147.1,180.8,147.1z"/>
<path class="st0" d="M166.5,147.1c-0.3,0-0.5,0.1-0.7,0.3c-0.2,0.2-0.3,0.4-0.3,0.7c0,0.3,0.1,0.5,0.3,0.7c0.4,0.4,1,0.4,1.4,0l0,0
	c0.2-0.2,0.3-0.4,0.3-0.7c0-0.3-0.1-0.5-0.3-0.7C167,147.2,166.7,147.1,166.5,147.1z"/>
<path class="st0" d="M179.8,140.4v2.9c0,0.4-0.1,0.7-0.4,0.8c-0.3,0.1-0.6,0.1-0.9,0.1h-1v1.9h2.2c0.9,0.2,1.8-0.5,2-1.4
	c0-0.2,0-0.3,0-0.5v-3.8H179.8z"/>
<path class="st0" d="M193.8,146.1c0,1-0.4,2-1.1,2.8c-0.7,0.8-1.7,1.2-2.7,1.2c-1,0-2-0.4-2.8-1.1c-0.8-0.7-1.2-1.7-1.1-2.7v-5.9h2
	v5.8c-0.2,1.1,0.5,2.1,1.5,2.4c1.1,0.2,2.1-0.5,2.4-1.5c0.1-0.3,0.1-0.6,0-0.8v-5.8h2v5.7L193.8,146.1z M190.9,138.6
	c0,0.3-0.1,0.5-0.3,0.7c-0.2,0.2-0.4,0.3-0.7,0.3c-0.3,0-0.5-0.1-0.7-0.3c-0.2-0.2-0.3-0.4-0.3-0.7c0-0.5,0.5-0.9,1-0.9
	c0.3,0,0.5,0.1,0.7,0.3C190.8,138.1,190.9,138.4,190.9,138.6L190.9,138.6z"/>
<path class="st0" d="M198.8,146.1h-1.5c-0.9,0.1-1.8-0.5-1.9-1.4c0-0.2,0-0.3,0-0.5V136h1.9v7.3c0,0.6,0.3,0.9,1,0.9h0.5
	L198.8,146.1z"/>
<path class="st0" d="M203.7,146.1h-5.3v-1.9h2.2v-3.8h2v3.8h1.2L203.7,146.1L203.7,146.1z M201.4,138.7c0,0.2-0.1,0.5-0.3,0.7
	c-0.2,0.2-0.4,0.3-0.7,0.3c-0.3,0-0.5-0.1-0.7-0.3c-0.2-0.2-0.3-0.4-0.3-0.7c0-0.3,0.1-0.5,0.3-0.7c0.2-0.2,0.4-0.3,0.7-0.3
	c0.3,0,0.5,0.1,0.7,0.3C201.3,138.2,201.4,138.4,201.4,138.7L201.4,138.7z M203.7,138.7c0,0.3-0.1,0.5-0.3,0.7
	c-0.2,0.2-0.4,0.3-0.7,0.3c-0.5,0-1-0.5-0.9-1c0-0.2,0.1-0.5,0.2-0.6c0.4-0.4,1-0.3,1.4,0.1C203.5,138.2,203.6,138.4,203.7,138.7
	C203.7,138.6,203.7,138.6,203.7,138.7z"/>
<path class="st0" d="M216,146.1h-12.9v-1.9h2.3v-3.8h2v3.8h1.8v-3.8h1.9v3.8h1.8v-3.8h2v3.8h1.2L216,146.1z"/>
<path class="st0" d="M219.7,144.2c0.1,1-0.6,1.8-1.5,1.9c-0.2,0-0.3,0-0.5,0h-2.2v-1.9h1c0.3,0,0.6,0,0.9-0.1
	c0.2-0.1,0.4-0.4,0.4-0.8v-2.9h1.9V144.2z M219.6,138.6c0,0.3-0.1,0.5-0.3,0.7c-0.3,0.4-0.9,0.4-1.3,0.1c0,0,0,0-0.1-0.1
	c-0.2-0.2-0.3-0.4-0.3-0.7c0-0.3,0.1-0.5,0.3-0.7c0.2-0.2,0.4-0.3,0.7-0.3c0.2,0,0.5,0.1,0.7,0.3
	C219.5,138.1,219.6,138.4,219.6,138.6L219.6,138.6z"/>
<path class="st0" d="M224.7,146.1h-1.5c-1.3,0-2-0.6-2-1.9V136h2v7.3c0,0.6,0.3,0.9,1,0.9h0.5L224.7,146.1z"/>
<path class="st0" d="M232.2,146.1h-8.2v-1.9h3.2l-1.2-1.4c-0.2-0.3-0.4-0.6-0.4-0.9c0-0.4,0.2-0.8,0.5-1c0.3-0.3,0.7-0.4,1.1-0.4
	h2.6c0.4,0,0.8,0.1,1.1,0.4c0.3,0.2,0.5,0.6,0.5,1c0,0.4-0.2,0.7-0.4,0.9l-1.2,1.4h2.4L232.2,146.1L232.2,146.1z M229.5,138.7
	c0,0.3-0.1,0.5-0.3,0.7c-0.2,0.2-0.4,0.3-0.7,0.3c-0.6,0-1-0.4-1-1c0-0.3,0.1-0.5,0.3-0.7c0.2-0.2,0.4-0.3,0.7-0.3
	c0.2,0,0.5,0.1,0.7,0.3C229.3,138.1,229.5,138.4,229.5,138.7z M229.3,142.2h-1.5l0.7,1.1L229.3,142.2z"/>
<path class="st0" d="M239.9,144.7c0,1-0.5,1.4-1.6,1.4h-6.6v-1.9h2.2v-2.4c0-0.9,0.5-1.4,1.6-1.4h2.9c1.1,0,1.6,0.5,1.6,1.4V144.7z
	 M237.8,138.7c0,0.3-0.1,0.5-0.3,0.7c-0.2,0.2-0.4,0.3-0.7,0.3c-0.3,0-0.5-0.1-0.7-0.3c-0.2-0.2-0.3-0.4-0.3-0.7
	c0-0.5,0.5-0.9,1-0.9c0.3,0,0.5,0.1,0.7,0.3C237.7,138.2,237.8,138.4,237.8,138.7L237.8,138.7z M237.9,143.8v-0.9
	c0-0.3-0.2-0.5-0.5-0.5h-1c-0.3,0-0.5,0.2-0.5,0.5v0.9c0,0.3,0.2,0.5,0.5,0.5h1C237.7,144.2,237.9,144.1,237.9,143.8z"/>
<path class="st0" d="M243.4,146.1h-1.9V136h2L243.4,146.1z"/>
<path class="st0" d="M253.3,146.1h-5.6v-1.9h3.6v-1.1c0.1-0.4-0.2-0.8-0.6-0.9c-0.1,0-0.1,0-0.2,0h-2.7v-1.9h4.1
	c1.1,0,1.6,0.5,1.6,1.4L253.3,146.1L253.3,146.1z"/>
<path class="st0" d="M136.4,163.7c-0.2,0-0.5,0-0.7-0.1c-0.3-0.1-0.5-0.3-0.6-0.5c-0.1,0.1-0.2,0.2-0.3,0.3
	c-0.1,0.1-0.3,0.2-0.4,0.2c-0.2,0-0.3,0.1-0.5,0.1h-0.5h-5.4c-0.4,0-0.8,0-1.2-0.1c-0.3-0.1-0.6-0.2-0.8-0.3
	c-0.2-0.2-0.3-0.4-0.4-0.6c-0.1-0.3-0.1-0.6-0.1-0.9v-2h1.6v1.8c0,0.1,0,0.3,0.1,0.4c0,0.1,0.1,0.2,0.2,0.2c0.1,0.1,0.3,0.1,0.4,0.1
	h0.7h4.7c0.2,0,0.4,0,0.6-0.1c0.1-0.1,0.2-0.3,0.2-0.6v-2.8h1.6v2.6c0,0.2,0,0.5,0.2,0.6c0.2,0.2,0.5,0.2,0.8,0.2c0.1,0,0.1,0,0.2,0
	c0.1,0,0.1,0,0.2,0.1c0.1,0.1,0.1,0.1,0.1,0.2c0,0.1,0,0.2,0,0.4c0,0.2,0,0.4-0.1,0.6C136.7,163.6,136.6,163.6,136.4,163.7z
	 M128.4,157.3c0-0.5,0.4-0.9,0.9-0.9c0.2,0,0.4,0.1,0.6,0.2l0,0c0.3,0.4,0.3,0.9-0.1,1.2c-0.3,0.3-0.8,0.3-1.1,0
	C128.6,157.7,128.5,157.5,128.4,157.3L128.4,157.3z M130.4,157.3c0-0.5,0.4-0.9,0.9-0.9c0,0,0,0,0,0c0.2,0,0.4,0.1,0.6,0.2
	c0.3,0.3,0.3,0.9,0,1.2c-0.3,0.3-0.9,0.3-1.2,0c0,0,0,0,0,0l0,0C130.5,157.8,130.4,157.5,130.4,157.3L130.4,157.3z"/>
<path class="st0" d="M137,162.2h0.4c0.1,0,0.2,0,0.3-0.1c0.1,0,0.1-0.1,0.2-0.2c0-0.1,0.1-0.2,0.1-0.3v-2.4h1.6v2.1
	c0,0.2,0.1,0.5,0.2,0.6c0.2,0.2,0.4,0.2,0.7,0.2c0.2,0,0.4,0,0.6-0.1c0.2-0.1,0.3-0.3,0.2-0.5v-2.4h1.6v2.1c0,0.6,0.2,0.9,0.7,0.9
	h0.8v-3.5h1.6v4.9h-1.9c-0.3,0-0.7,0-1-0.2c-0.2-0.1-0.4-0.3-0.6-0.5c-0.1,0.1-0.2,0.3-0.4,0.4c-0.1,0.1-0.3,0.1-0.4,0.2
	c-0.1,0-0.3,0.1-0.4,0.1h-0.4c-0.4,0-0.7-0.1-1.1-0.2c-0.2-0.1-0.4-0.3-0.6-0.4c-0.2,0.3-0.5,0.5-0.9,0.5c-0.4,0.1-0.9,0.1-1.3,0.1
	h-0.5c-0.1,0-0.1,0-0.2,0c-0.1,0-0.1,0-0.1-0.1c-0.1-0.1-0.1-0.1-0.1-0.2c0-0.1,0-0.2,0-0.4c0-0.2,0-0.4,0.1-0.6
	c0.1-0.1,0.2-0.2,0.4-0.2H137z"/>
<path class="st0" d="M150.6,162.9c0,0.2,0,0.4-0.1,0.6c-0.1,0.1-0.2,0.2-0.4,0.2h-0.5c-0.3,0-0.5,0-0.8-0.1
	c-0.2-0.1-0.4-0.2-0.6-0.3c-0.2-0.2-0.3-0.3-0.4-0.6c-0.1-0.3-0.1-0.6-0.1-0.9v-7h1.6v6.7c0,0.3,0.1,0.5,0.1,0.6
	c0.1,0.1,0.3,0.1,0.4,0.1h0.2c0.1,0,0.1,0,0.2,0c0.1,0,0.1,0,0.1,0.1c0,0.1,0.1,0.1,0.1,0.2C150.6,162.6,150.6,162.8,150.6,162.9z"
	/>
<path class="st0" d="M150.1,163.7c-0.1,0-0.1,0-0.2,0c-0.1,0-0.1,0-0.2-0.1c-0.1-0.1-0.1-0.1-0.1-0.2c0-0.1,0-0.2,0-0.4
	c0-0.2,0-0.4,0.1-0.6c0.1-0.1,0.2-0.2,0.4-0.2h2.3v-3.5h1.6v4.9L150.1,163.7z M150.2,165.7c0-0.2,0.1-0.5,0.3-0.6
	c0.2-0.2,0.4-0.3,0.6-0.3c0.5,0,0.9,0.4,0.9,0.9c0,0.2-0.1,0.4-0.3,0.6c-0.2,0.2-0.4,0.3-0.6,0.3
	C150.6,166.6,150.2,166.2,150.2,165.7C150.2,165.7,150.2,165.7,150.2,165.7L150.2,165.7z M152.2,165.7c0-0.2,0.1-0.5,0.3-0.6
	c0.2-0.2,0.4-0.3,0.6-0.3c0.5,0,0.9,0.4,0.9,0.9c0,0.5-0.4,0.9-0.9,0.9C152.6,166.6,152.2,166.2,152.2,165.7L152.2,165.7z"/>
<path class="st0" d="M156.8,159.3h1.6v3.7c0,0.5,0,1-0.1,1.5c-0.1,0.4-0.2,0.7-0.5,1c-0.3,0.3-0.6,0.5-0.9,0.6
	c-0.5,0.1-1,0.2-1.5,0.2v-1.5c0.3,0,0.5,0,0.8-0.1c0.2-0.1,0.3-0.2,0.4-0.3c0.1-0.2,0.2-0.3,0.2-0.5c0-0.3,0-0.5,0.1-0.8
	L156.8,159.3z"/>
<path class="st0" d="M167.4,163.7c0,0.8-0.4,1.5-1.1,2c-0.9,0.5-1.8,0.7-2.8,0.6h-0.4v-1.5h0.3c0.4,0,0.7,0,1.1-0.1
	c0.2,0,0.5-0.1,0.7-0.2c0.2-0.1,0.3-0.2,0.4-0.3c0.1-0.1,0.2-0.3,0.2-0.4H165c-0.3,0-0.7,0-1-0.1c-0.3-0.1-0.6-0.2-0.8-0.4
	c-0.2-0.2-0.4-0.4-0.5-0.7c-0.1-0.3-0.2-0.7-0.2-1.1c0-0.3,0-0.7,0.2-1c0.1-0.3,0.3-0.6,0.5-0.9c0.2-0.3,0.5-0.5,0.8-0.6
	c0.3-0.2,0.7-0.2,1.1-0.2c0.4,0,0.8,0.1,1.1,0.2c0.3,0.2,0.6,0.4,0.8,0.7c0.2,0.3,0.3,0.6,0.4,1c0.1,0.4,0.1,0.9,0.1,1.3v0.4h0.9
	c0.1,0,0.1,0,0.2,0c0.1,0,0.1,0,0.1,0.1c0.1,0.1,0.1,0.1,0.1,0.2c0,0.1,0,0.3,0,0.4c0,0.2,0,0.4-0.1,0.6c-0.1,0.1-0.2,0.2-0.4,0.2
	L167.4,163.7z M164,161.2c0,0.3,0.1,0.6,0.2,0.8c0.2,0.1,0.4,0.2,0.7,0.2h0.8v-0.7c0-0.3-0.1-0.7-0.2-1c-0.1-0.3-0.4-0.4-0.7-0.4
	c-0.3,0-0.5,0.1-0.7,0.3C164.1,160.6,164,160.9,164,161.2z"/>
<path class="st0" d="M172.8,163.7c-0.1,0-0.3,0-0.4,0c-0.1,0-0.3,0-0.4-0.1c-0.1,0-0.2-0.1-0.4-0.2c-0.1-0.1-0.2-0.2-0.3-0.3
	c-0.1,0.1-0.2,0.2-0.4,0.3c-0.1,0.1-0.3,0.2-0.4,0.2c-0.2,0-0.3,0.1-0.5,0.1h-0.5h-1.3h-0.2c-0.1,0-0.1-0.1-0.2-0.1
	c-0.1-0.1-0.1-0.1-0.1-0.2c0-0.1,0-0.2,0-0.4c0-0.2,0-0.4,0.1-0.6c0.1-0.1,0.2-0.2,0.4-0.2h1c0.2,0,0.4,0,0.6-0.1
	c0.1-0.2,0.2-0.4,0.2-0.6v-2.8h1.6v2.6c0,0.2,0.1,0.5,0.2,0.6c0.2,0.2,0.5,0.2,0.8,0.2h0.2c0.1,0,0.1,0,0.1,0.1
	c0.1,0.1,0.1,0.1,0.1,0.2c0,0.1,0,0.2,0,0.4c0,0.2,0,0.4-0.1,0.6C173,163.6,172.9,163.7,172.8,163.7z M168.6,165.7
	c0-0.2,0.1-0.5,0.2-0.6c0.2-0.2,0.4-0.3,0.6-0.3c0.5,0,0.9,0.4,0.9,0.9c0,0.5-0.4,0.9-0.9,0.9C169,166.6,168.6,166.2,168.6,165.7
	L168.6,165.7z M170.6,165.7c0-0.5,0.4-0.9,0.9-0.9c0,0,0,0,0,0c0.2,0,0.5,0.1,0.6,0.3c0.2,0.2,0.3,0.4,0.3,0.6
	c0,0.5-0.4,0.9-0.9,0.9C171,166.6,170.7,166.2,170.6,165.7L170.6,165.7z"/>
<path class="st0" d="M173.5,162.2c0.2,0,0.4,0,0.6-0.1c0.1-0.2,0.2-0.4,0.2-0.6v-2.8h1.6v2.6c0,0.2,0,0.5,0.2,0.6
	c0.2,0.2,0.5,0.2,0.8,0.2c0.1,0,0.1,0,0.2,0c0.1,0,0.1,0,0.1,0.1c0,0.1,0.1,0.1,0.1,0.2c0,0.1,0,0.2,0,0.4c0,0.2,0,0.4-0.1,0.6
	c-0.1,0.1-0.2,0.2-0.4,0.2c-0.2,0-0.5,0-0.7-0.1c-0.2-0.1-0.4-0.3-0.6-0.5c-0.1,0.1-0.2,0.2-0.4,0.3c-0.1,0.1-0.3,0.2-0.4,0.2
	c-0.2,0-0.3,0.1-0.5,0.1h-0.5h-1h-0.2c-0.1,0-0.1,0-0.1-0.1c-0.1-0.1-0.1-0.1-0.1-0.2c0-0.1,0-0.2,0-0.4c0-0.2,0-0.4,0.1-0.6
	c0.1-0.1,0.2-0.2,0.4-0.2L173.5,162.2z M174.2,156.6c0-0.5,0.4-0.9,0.9-0.9c0.2,0,0.5,0.1,0.6,0.3c0.2,0.2,0.3,0.4,0.3,0.6
	c0,0.5-0.4,0.9-0.9,0.9c0,0,0,0,0,0c-0.2,0-0.5-0.1-0.6-0.3C174.3,157,174.2,156.8,174.2,156.6L174.2,156.6z"/>
<path class="st0" d="M181.2,162.2c0-0.3-0.1-0.6-0.2-0.9c-0.1-0.3-0.2-0.5-0.4-0.7c-0.2-0.2-0.4-0.4-0.6-0.5c-0.3-0.1-0.7-0.2-1-0.2
	c-0.2,0-0.4,0-0.6,0.1c-0.3,0-0.6,0.1-0.9,0.2v-1.4c0.2-0.1,0.5-0.2,0.8-0.2c0.3-0.1,0.7-0.1,1-0.1c0.6,0,1.1,0.1,1.6,0.3
	c0.4,0.2,0.8,0.5,1.1,0.9c0.3,0.4,0.5,0.8,0.6,1.3c0.1,0.5,0.2,1,0.2,1.5v1.1h-6h-0.2c-0.1,0-0.1,0-0.2-0.1
	c-0.1-0.1-0.1-0.1-0.1-0.2c0-0.1,0-0.2,0-0.4c0-0.2,0-0.4,0.1-0.6c0.1-0.1,0.2-0.2,0.4-0.2L181.2,162.2z M177.7,165.7
	c0-0.2,0.1-0.5,0.3-0.6c0.2-0.2,0.4-0.3,0.6-0.3c0.5-0.1,0.9,0.3,1,0.8c0.1,0.5-0.3,0.9-0.8,1c-0.1,0-0.1,0-0.2,0
	c-0.2,0-0.5-0.1-0.6-0.3C177.8,166.2,177.7,166,177.7,165.7L177.7,165.7z M178.7,167.5c0-0.5,0.4-0.9,0.9-0.9c0.5,0,0.9,0.4,0.9,0.9
	c0,0.5-0.4,0.9-0.9,0.9c-0.2,0-0.5-0.1-0.6-0.3C178.8,168,178.7,167.8,178.7,167.5L178.7,167.5z M179.7,165.7c0-0.5,0.4-0.9,0.9-0.9
	c0.2,0,0.5,0.1,0.6,0.3c0.3,0.3,0.3,0.9,0,1.2c0,0,0,0,0,0c-0.2,0.2-0.4,0.3-0.6,0.3C180.1,166.6,179.7,166.2,179.7,165.7
	L179.7,165.7z"/>
<path class="st0" d="M186.9,163.7c-0.1,0-0.3,0-0.4-0.1c-0.2,0-0.4-0.2-0.5-0.3c0,0.5-0.1,1-0.2,1.4c-0.2,0.7-0.8,1.2-1.5,1.4
	c-0.4,0.1-0.9,0.2-1.4,0.2v-1.5c0.3,0,0.5,0,0.8-0.1c0.2-0.1,0.3-0.2,0.4-0.3c0.1-0.2,0.2-0.3,0.2-0.5c0-0.3,0-0.5,0-0.8v-3.7h1.7
	v2.1c0,0.1,0,0.3,0.1,0.4c0,0.1,0.1,0.2,0.2,0.3c0.1,0.1,0.2,0.1,0.3,0.1c0.1,0,0.2,0,0.3,0h1c0.1,0,0.2,0,0.3-0.1
	c0.1,0,0.1-0.1,0.2-0.2c0-0.1,0-0.2,0-0.3v-2.4h1.6v2.1c0,0.2,0.1,0.5,0.2,0.6c0.2,0.2,0.4,0.2,0.7,0.2c0.2,0,0.4,0,0.6-0.1
	c0.2-0.1,0.3-0.3,0.2-0.5v-2.4h1.6v2.1c0,0.6,0.2,0.9,0.7,0.9h0.8v-3.5h1.6v4.9h-1.9c-0.3,0-0.7,0-1-0.2c-0.2-0.1-0.4-0.3-0.6-0.5
	c-0.1,0.1-0.2,0.3-0.4,0.4c-0.1,0.1-0.3,0.1-0.4,0.2c-0.1,0-0.3,0.1-0.4,0.1h-0.4c-0.4,0-0.7-0.1-1.1-0.2c-0.2-0.1-0.4-0.3-0.6-0.4
	c-0.2,0.3-0.5,0.5-0.9,0.5c-0.4,0.1-0.9,0.1-1.4,0.1L186.9,163.7z"/>
<path class="st0" d="M201.2,162.5c0,0.2,0,0.4,0.1,0.6c0.1,0.2,0.2,0.4,0.4,0.5c0.2,0.2,0.5,0.3,0.7,0.3c0.4,0.1,0.8,0.1,1.2,0.1
	c0.5,0,0.9,0,1.4-0.1c0.3-0.1,0.6-0.2,0.8-0.3c0.2-0.1,0.3-0.2,0.4-0.4c0.1-0.1,0.1-0.2,0.1-0.4c0-0.1-0.1-0.2-0.1-0.3
	c-0.1-0.1-0.3-0.2-0.5-0.3c-0.2-0.1-0.5-0.2-0.7-0.4c-0.2-0.1-0.4-0.3-0.6-0.4c-0.1-0.2-0.3-0.4-0.4-0.6c-0.1-0.2-0.1-0.5-0.1-0.8
	c0-0.3,0.1-0.7,0.2-1c0.1-0.3,0.3-0.6,0.5-0.9c0.2-0.3,0.5-0.5,0.9-0.6c0.4-0.2,0.8-0.3,1.2-0.2c0.3,0,0.5,0,0.8,0.1l0.5,0.2v1.4
	c-0.2-0.1-0.5-0.1-0.8-0.1c-0.2,0-0.4,0-0.5,0c-0.2,0-0.4,0-0.6,0.1c-0.1,0.1-0.3,0.1-0.4,0.2c-0.1,0.1-0.2,0.2-0.2,0.3
	c0,0.1-0.1,0.2-0.1,0.4c0,0.2,0.1,0.4,0.3,0.5c0.2,0.1,0.4,0.3,0.6,0.4c0.3,0.1,0.5,0.3,0.7,0.4c0.2,0.1,0.3,0.2,0.4,0.4
	c0.1,0.1,0.2,0.3,0.2,0.4c0,0.2,0.1,0.3,0.1,0.5c0,0.4-0.1,0.7-0.2,1.1c-0.2,0.4-0.4,0.7-0.7,1c-0.4,0.3-0.9,0.6-1.4,0.7
	c-1.3,0.4-2.7,0.4-4,0.1c-0.5-0.1-0.9-0.3-1.2-0.6c-0.3-0.3-0.5-0.6-0.7-1c-0.1-0.4-0.2-0.8-0.2-1.2v-2h1.6L201.2,162.5z"/>
<path class="st0" d="M212.6,163.7c-0.1,0-0.3,0-0.4-0.1c-0.2,0-0.4-0.2-0.5-0.3c0,0.5-0.1,1-0.2,1.4c-0.2,0.7-0.8,1.2-1.5,1.4
	c-0.4,0.1-0.9,0.2-1.4,0.2v-1.5c0.3,0,0.5,0,0.8-0.1c0.2-0.1,0.3-0.2,0.4-0.3c0.1-0.2,0.2-0.3,0.2-0.5c0-0.3,0.1-0.5,0.1-0.8v-3.7
	h1.6v2.1c0,0.1,0,0.3,0.1,0.4c0,0.1,0.1,0.2,0.2,0.3c0.1,0.1,0.2,0.1,0.3,0.1c0.1,0,0.2,0,0.3,0h0.9c0.1,0,0.2,0,0.3-0.1
	c0.1,0,0.1-0.1,0.2-0.1c0-0.1,0-0.2,0-0.3v-2.4h1.6v2.1c-0.1,0.4,0.2,0.8,0.7,0.9c0.1,0,0.2,0,0.2,0c0.2,0,0.4,0,0.6-0.1
	c0.2-0.1,0.3-0.3,0.3-0.5v-2.4h1.6v2.1c-0.1,0.4,0.2,0.8,0.6,0.8c0.1,0,0.2,0,0.3,0c0.2,0,0.4,0,0.6-0.1c0.1-0.1,0.2-0.2,0.2-0.5
	v-2.9h1.6v2.6c0,0.2,0.1,0.5,0.2,0.6c0.2,0.2,0.5,0.2,0.8,0.2c0.1,0,0.1,0,0.2,0c0.1,0,0.1,0,0.2,0.1c0.1,0.1,0.1,0.1,0.1,0.2
	c0,0.1,0,0.2,0,0.4c0,0.2,0,0.4-0.1,0.6c-0.1,0.1-0.2,0.2-0.4,0.2c-0.2,0-0.5,0-0.7-0.1c-0.2-0.1-0.5-0.3-0.6-0.5
	c-0.2,0.3-0.5,0.5-0.8,0.6c-0.3,0.1-0.6,0.1-0.9,0.1c-0.3,0-0.5-0.1-0.8-0.1c-0.3-0.1-0.6-0.3-0.8-0.5c-0.2,0.2-0.5,0.4-0.8,0.5
	c-0.3,0.1-0.6,0.1-0.9,0.1c-0.6,0.1-1.3-0.2-1.7-0.6c-0.2,0.3-0.5,0.5-0.9,0.5c-0.5,0.1-0.9,0.1-1.4,0.1L212.6,163.7z M216.3,156.6
	c0-0.5,0.4-0.9,0.9-0.9c0.5,0,0.9,0.4,0.9,0.9c0,0.5-0.4,0.9-0.9,0.9l0,0C216.7,157.5,216.3,157.1,216.3,156.6L216.3,156.6z
	 M217.3,154.8c0-0.5,0.4-0.9,0.9-0.9c0,0,0,0,0,0c0.2,0,0.5,0.1,0.6,0.3c0.3,0.3,0.3,0.9,0,1.2c0,0,0,0,0,0
	c-0.2,0.2-0.4,0.3-0.6,0.3C217.7,155.7,217.3,155.3,217.3,154.8L217.3,154.8z M218.3,156.6c0-0.5,0.4-0.9,0.9-0.9
	c0.5,0,0.9,0.4,0.9,0.9c0,0.5-0.4,0.9-0.9,0.9l0,0C218.7,157.5,218.3,157.1,218.3,156.6L218.3,156.6z"/>
<path class="st0" d="M224.5,162.2v-3.5h1.6v4.9h-3H223c-0.1,0-0.2-0.2-0.3-0.3c0-0.1,0-0.2,0-0.4c0-0.2,0-0.4,0.1-0.6
	c0.1-0.1,0.2-0.2,0.4-0.2L224.5,162.2z M224.4,165.7c0-0.5,0.4-0.9,0.9-0.9c0.5,0,0.9,0.4,0.9,0.9c0,0.5-0.4,0.9-0.9,0.9
	c-0.2,0-0.5-0.1-0.6-0.3C224.5,166.2,224.4,165.9,224.4,165.7z"/>
<path class="st0" d="M234.6,162.1c0,0.2,0,0.4-0.1,0.6c-0.1,0.2-0.2,0.4-0.3,0.5c-0.2,0.2-0.3,0.3-0.5,0.3c-0.3,0.1-0.5,0.1-0.8,0.1
	h-3v-1.4h2.4c0.1,0,0.3,0,0.4,0c0.1,0,0.2-0.1,0.2-0.2c0,0,0-0.1,0-0.1c0-0.1,0-0.1-0.1-0.2l-0.2-0.3c-0.1-0.1-0.2-0.3-0.4-0.6
	l-1-1.5l0.7-0.5l0.8-0.5l1.1,1.8c0.2,0.4,0.4,0.8,0.6,1.2C234.5,161.5,234.6,161.8,234.6,162.1z"/>
</svg>
