<svg id="Layer_1" data-name="Layer 1" xmlns="http://www.w3.org/2000/svg" viewBox="0 0 360 200"><defs><style>.cls-1{fill:#f2f2f2;}</style></defs><polygon class="cls-1" points="197.6 103.74 197.61 84.32 197.61 103.75 197.6 103.74"/><polygon class="cls-1" points="212.28 71.48 212.28 104.72 209.34 104.72 205.71 100.24 205.71 84.32 210.13 84.32 205.71 77.94 201.57 71.95 197.61 77.68 197.61 77.68 197.61 53.59 205.71 63.47 212.28 71.48"/><polygon class="cls-1" points="165.65 90.84 165.65 99.78 161.82 94.25 157.67 88.25 153.72 93.95 153.71 93.96 153.72 75.59 161.82 85.95 165.65 90.84"/><polygon class="cls-1" points="153.71 93.96 149.11 100.61 153.71 100.61 153.71 102.96 153.72 102.97 153.72 118.22 117.94 118.22 117.94 118.22 117.94 92.41 153.72 75.59 153.72 93.95 153.71 93.96"/><polygon class="cls-1" points="241.5 31.59 241.5 118.22 205.71 118.22 205.71 84.32 210.13 84.32 205.71 77.94 205.71 48.41 241.5 31.59"/><rect class="cls-1" x="197.61" y="103.75" height="14.47"/><path class="cls-1" d="M197.61,53.59,161.82,70.41V94.25L163.74,97l1.91,2.76h0l.58.84h-4.41v17.6h35.79V103.75h0V84.32H193l4.6-6.64h0V53.59Zm-7.35,43.23a6.06,6.06,0,0,1-6.29,5.59H172a1.08,1.08,0,0,0-.08-.19L179,95.1c1.94-1.94,3.9-3.88,5.84-5.83a3.52,3.52,0,0,0,.86-4A3.47,3.47,0,0,0,182.35,83c-2.67,0-5.34,0-8.09,0V93.58l4.87-5-.95-1.07,5.59-1.87c-.64,1.94-1.24,3.73-1.86,5.6l-.93-.81-9,9.15-.19-.12V80.6c.26,0,.49-.06.72-.06h9.78A6.07,6.07,0,0,1,186.6,91l-8.16,8.17c-.23.22-.44.45-.8.83h1.8c1.47,0,2.94,0,4.41,0a3.74,3.74,0,0,0,3.83-2.66,3.68,3.68,0,0,0-1.88-4.26,2,2,0,0,1-.15-.15l1.82-1.62C189.12,92,190.51,94.65,190.26,96.82Z"/><path class="cls-1" d="M119.15,159.85v2.82h3.71v.66h-3.71v3h-.76V159.2h4.92v.65Z"/><path class="cls-1" d="M125.07,159.28a.52.52,0,0,1,.53-.51.52.52,0,0,1,.54.5.54.54,0,0,1-1.07,0Zm.16,1.7H126v5.39h-.73Z"/><path class="cls-1" d="M133.57,163.24v3.13h-.73v-3.05a1.51,1.51,0,0,0-1.62-1.72,1.76,1.76,0,0,0-1.89,1.94v2.83h-.72V161h.69v1a2.28,2.28,0,0,1,2-1A2.07,2.07,0,0,1,133.57,163.24Z"/><path class="cls-1" d="M140.23,163v3.34h-.7v-.84a2,2,0,0,1-1.85.89c-1.22,0-2-.63-2-1.57s.53-1.52,2.08-1.52h1.71V163c0-.92-.52-1.43-1.53-1.43a2.75,2.75,0,0,0-1.79.64l-.33-.54a3.44,3.44,0,0,1,2.19-.73A1.92,1.92,0,0,1,140.23,163Zm-.73,1.72v-.88h-1.69c-1.05,0-1.38.41-1.38,1s.5,1,1.36,1A1.72,1.72,0,0,0,139.5,164.75Z"/><path class="cls-1" d="M147.78,163.24v3.13h-.73v-3.05a1.5,1.5,0,0,0-1.62-1.72,1.76,1.76,0,0,0-1.88,1.94v2.83h-.73V161h.7v1a2.27,2.27,0,0,1,2-1A2.06,2.06,0,0,1,147.78,163.24Z"/><path class="cls-1" d="M149.85,163.68a2.66,2.66,0,0,1,2.78-2.74,2.35,2.35,0,0,1,2.11,1.07l-.54.36a1.85,1.85,0,0,0-1.57-.8,2.11,2.11,0,0,0,0,4.21,1.84,1.84,0,0,0,1.57-.79l.54.37a2.39,2.39,0,0,1-2.11,1.06A2.66,2.66,0,0,1,149.85,163.68Z"/><path class="cls-1" d="M156.62,159.28a.52.52,0,0,1,.53-.51.51.51,0,0,1,.53.5.53.53,0,0,1-1.06,0Zm.16,1.7h.73v5.39h-.73Z"/><path class="cls-1" d="M164.22,163v3.34h-.7v-.84a2,2,0,0,1-1.85.89c-1.22,0-2-.63-2-1.57s.53-1.52,2.08-1.52h1.71V163c0-.92-.52-1.43-1.53-1.43a2.75,2.75,0,0,0-1.79.64l-.33-.54a3.47,3.47,0,0,1,2.2-.73A1.92,1.92,0,0,1,164.22,163Zm-.73,1.72v-.88H161.8c-1,0-1.38.41-1.38,1s.5,1,1.36,1A1.72,1.72,0,0,0,163.49,164.75Z"/><path class="cls-1" d="M166.81,158.77h.73v7.6h-.73Z"/><path class="cls-1" d="M173,162.78a3.6,3.6,0,0,1,3.76-3.64,3.47,3.47,0,0,1,2.63,1l-.49.48a2.85,2.85,0,0,0-2.12-.85,3,3,0,1,0,0,5.95,2.79,2.79,0,0,0,2.12-.87l.49.49a3.52,3.52,0,0,1-2.64,1.05A3.6,3.6,0,0,1,173,162.78Z"/><path class="cls-1" d="M180.69,163.68a2.74,2.74,0,1,1,2.74,2.74A2.65,2.65,0,0,1,180.69,163.68Zm4.74,0a2,2,0,1,0-2,2.1A2,2,0,0,0,185.43,163.68Z"/><path class="cls-1" d="M193.23,163.24v3.13h-.73v-3.05a1.5,1.5,0,0,0-1.61-1.72,1.76,1.76,0,0,0-1.89,1.94v2.83h-.73V161h.7v1a2.28,2.28,0,0,1,2.05-1A2.06,2.06,0,0,1,193.23,163.24Z"/><path class="cls-1" d="M195.08,165.76l.33-.58a3.22,3.22,0,0,0,1.91.61c1,0,1.45-.35,1.45-.88,0-1.41-3.5-.3-3.5-2.43,0-.88.76-1.54,2.13-1.54a3.63,3.63,0,0,1,1.91.5L199,162a2.74,2.74,0,0,0-1.59-.47c-1,0-1.4.38-1.4.9,0,1.45,3.49.35,3.49,2.42,0,.94-.82,1.54-2.22,1.54A3.65,3.65,0,0,1,195.08,165.76Z"/><path class="cls-1" d="M206.31,161v5.39h-.7v-1a2.14,2.14,0,0,1-1.93,1,2.09,2.09,0,0,1-2.28-2.31V161h.73V164c0,1.15.59,1.74,1.62,1.74a1.76,1.76,0,0,0,1.83-2V161Z"/><path class="cls-1" d="M209,158.77h.73v7.6H209Z"/><path class="cls-1" d="M215.19,166a1.68,1.68,0,0,1-1.13.38,1.43,1.43,0,0,1-1.58-1.57V161.6h-1V161h1V159.8h.73V161h1.64v.62h-1.64v3.21c0,.64.32,1,.93,1a1.24,1.24,0,0,0,.8-.28Z"/><path class="cls-1" d="M221.2,163v3.34h-.7v-.84a2,2,0,0,1-1.85.89c-1.22,0-2-.63-2-1.57s.53-1.52,2.08-1.52h1.71V163a1.32,1.32,0,0,0-1.52-1.43,2.76,2.76,0,0,0-1.8.64l-.33-.54a3.47,3.47,0,0,1,2.2-.73A1.92,1.92,0,0,1,221.2,163Zm-.73,1.72v-.88h-1.69c-1,0-1.38.41-1.38,1s.5,1,1.36,1A1.72,1.72,0,0,0,220.47,164.75Z"/><path class="cls-1" d="M228.75,163.24v3.13H228v-3.05a1.51,1.51,0,0,0-1.62-1.72,1.76,1.76,0,0,0-1.89,1.94v2.83h-.73V161h.7v1a2.28,2.28,0,0,1,2-1A2.06,2.06,0,0,1,228.75,163.24Z"/><path class="cls-1" d="M230.82,163.68a2.66,2.66,0,0,1,2.78-2.74,2.35,2.35,0,0,1,2.11,1.07l-.54.36a1.84,1.84,0,0,0-1.57-.8,2.11,2.11,0,0,0,0,4.21,1.83,1.83,0,0,0,1.57-.79l.54.37a2.39,2.39,0,0,1-2.11,1.06A2.66,2.66,0,0,1,230.82,163.68Z"/><path class="cls-1" d="M242.2,161l-2.7,6c-.45,1-1,1.39-1.79,1.39a1.84,1.84,0,0,1-1.31-.49l.34-.55a1.31,1.31,0,0,0,1,.41c.48,0,.81-.22,1.12-.9l.23-.52-2.4-5.38h.75l2,4.58,2-4.58Z"/><path class="cls-1" d="M106.24,132.28h8.39c4.64,0,6.4,2.42,6.4,4.91a4.39,4.39,0,0,1-2.44,4.17,4.58,4.58,0,0,1,3,4.38c0,3.29-2.58,5.75-6.67,5.75h-8.67Zm7.91,7.58c2,0,2.79-.89,2.79-2.24s-1.07-2.13-2.67-2.13h-4v4.37Zm-3.84,8.42h3.75c2.25,0,3.26-.94,3.26-2.68,0-1.55-1-2.53-3.28-2.53h-3.73Z"/><path class="cls-1" d="M136.85,147.76a33.69,33.69,0,0,0,.19,3.73h-3.81a5.71,5.71,0,0,1-.2-1.41c-.53.81-1.51,1.74-4.06,1.74-3.48,0-4.94-2.28-4.94-4.52,0-3.28,2.63-4.8,6.86-4.8H133v-.88c0-1-.37-2-2.22-2-1.69,0-2,.72-2.24,1.77h-3.8c.22-2.57,1.81-4.64,6.19-4.62,3.87,0,6,1.54,6,5ZM133,144.92h-1.63c-2.41,0-3.3.74-3.3,2.13a1.85,1.85,0,0,0,2.08,1.92c2.53,0,2.85-1.76,2.85-3.67Z"/><path class="cls-1" d="M140.49,151.49V131.15h4v20.34Z"/><path class="cls-1" d="M152.2,131.15v7.62a4.64,4.64,0,0,1,4.13-2c2.69,0,4.84,1.59,4.84,5.51v9.25h-4v-8.66c0-1.87-.67-2.87-2.34-2.87-2.22,0-2.66,1.65-2.66,3.88v7.65h-4V131.15Z"/><path class="cls-1" d="M176.58,147.76a33,33,0,0,0,.2,3.73H173a6.23,6.23,0,0,1-.2-1.41c-.52.81-1.5,1.74-4,1.74-3.48,0-5-2.28-5-4.52,0-3.28,2.64-4.8,6.87-4.8h2.06v-.88c0-1-.37-2-2.22-2-1.69,0-2.06.72-2.24,1.77h-3.8c.22-2.57,1.8-4.64,6.19-4.62,3.86,0,6,1.54,6,5Zm-3.89-2.84h-1.62c-2.41,0-3.3.74-3.3,2.13a1.85,1.85,0,0,0,2.07,1.92c2.54,0,2.85-1.76,2.85-3.67Z"/><path class="cls-1" d="M180.31,141c0-1.43,0-2.71,0-3.91h3.92c.05.32.1,1.75.1,2.53a4.64,4.64,0,0,1,4.63-2.87v3.81c-2.9-.07-4.63.71-4.63,4.66v6.29h-4Z"/><path class="cls-1" d="M202.81,147.76a33.69,33.69,0,0,0,.19,3.73h-3.81a6.22,6.22,0,0,1-.21-1.41c-.52.81-1.5,1.74-4,1.74-3.48,0-4.94-2.28-4.94-4.52,0-3.28,2.63-4.8,6.86-4.8h2.06v-.88c0-1-.37-2-2.22-2-1.69,0-2.05.72-2.24,1.77h-3.8c.22-2.57,1.81-4.64,6.19-4.62,3.86,0,6,1.54,6,5Zm-3.9-2.84h-1.62c-2.41,0-3.3.74-3.3,2.13a1.85,1.85,0,0,0,2.08,1.92c2.53,0,2.84-1.76,2.84-3.67Z"/><path class="cls-1" d="M217.26,147.05l-1.5,4.44h-4.08l6.52-19.21h5.22l6.81,19.21h-4.37l-1.58-4.44Zm6.13-3.4c-1.37-4.06-2.24-6.65-2.7-8.37h0c-.47,1.89-1.43,4.9-2.53,8.37Z"/><path class="cls-1" d="M232.92,131.15h4v3.56h-4Zm0,5.92h4v14.42h-4Z"/><path class="cls-1" d="M253.74,131.15v16.38c0,1.31,0,2.64,0,4h-3.84c-.08-.43-.15-1.18-.18-1.51-.69,1.14-1.94,1.84-4.09,1.84-3.65,0-6-2.92-6-7.42s2.47-7.67,6.55-7.67c2.08,0,3.19.73,3.51,1.38v-7Zm-10,13.14c0,2.81,1.1,4.34,3.05,4.34,2.75,0,3.07-2.29,3.07-4.37,0-2.46-.35-4.33-3-4.33C244.84,139.93,243.78,141.57,243.78,144.29Z"/></svg>