<svg id="Layer_1" data-name="Layer 1" xmlns="http://www.w3.org/2000/svg" viewBox="0 0 360 200"><defs><style>.cls-1{fill:#f2f2f2;}</style></defs><polygon class="cls-1" points="105.55 120.25 105.55 122.73 105.55 147.31 132.85 147.31 132.85 122.73 132.85 120.25 105.55 120.25"/><polygon class="cls-1" points="137.82 120.25 135.33 120.25 135.33 122.73 135.33 147.31 137.82 147.31 162.63 147.31 162.63 122.73 162.63 120.25 137.82 120.25"/><polygon class="cls-1" points="167.61 120.25 165.12 120.25 165.12 122.73 165.12 147.31 167.61 147.31 192.42 147.31 192.42 122.73 192.42 120.25 167.61 120.25"/><polygon class="cls-1" points="197.39 120.25 194.9 120.25 194.9 122.73 194.9 147.31 197.39 147.31 222.2 147.31 222.2 122.73 222.2 120.25 197.39 120.25"/><polygon class="cls-1" points="227.18 120.25 224.69 120.25 224.69 122.73 224.69 147.31 227.18 147.31 254.47 147.31 254.47 122.73 254.47 120.25 227.18 120.25"/><path class="cls-1" d="M127.79,89.5v8.14h-9.73V89.5h-2.2v18.81h2.2V99.75h9.73v8.56H130V89.5Z"/><path class="cls-1" d="M144.76,89.5h-2.52l-7.12,18.81h2.44l1.89-5.17h8.12l1.89,5.17h2.45ZM140.22,101l2.49-6.78.74-2h.1l.76,2,2.5,6.78Z"/><path class="cls-1" d="M164.65,100.51l.06-.08a5.87,5.87,0,0,0,2.29-1,5.21,5.21,0,0,0,1.63-1.89,5.09,5.09,0,0,0,.59-2.44,5.25,5.25,0,0,0-.8-2.88,5.51,5.51,0,0,0-2.14-2,6,6,0,0,0-2.89-.71H157v18.81h2.21v-7.67h3l5.12,7.67H170v-.1Zm-5.41-2V91.63h4.18a3.35,3.35,0,0,1,1.85.5,3.64,3.64,0,0,1,1.25,1.28,3.39,3.39,0,0,1-.07,3.46,3.56,3.56,0,0,1-1.36,1.25,4,4,0,0,1-1.83.44Z"/><path class="cls-1" d="M183,89.5h-2.52l-7.12,18.81h2.44l1.9-5.17h8.12l1.89,5.17h2.44ZM178.45,101l2.49-6.78.74-2h.11l.76,2L185,101Z"/><path class="cls-1" d="M202,97.64l7-8v-.1h-2.87l-8.48,9.9h-.11V89.5h-2.21v18.81h2.21v-5.52l3-3.44,6.25,9h2.71v-.1Z"/><path class="cls-1" d="M222.25,89.5h-2.52l-7.12,18.81h2.44l1.89-5.17h8.12l1.9,5.17h2.44ZM217.7,101l2.5-6.78.74-2h.1l.76,2,2.5,6.78Z"/><path class="cls-1" d="M231.39,89.5v2.13h5.29v16.68h2.23V91.63h5.26V89.5Z"/><path class="cls-1" d="M107.83,153.38a1,1,0,0,0-.45-.32v0a.88.88,0,0,0,.36-.3.84.84,0,0,0,.14-.47.89.89,0,0,0-.15-.5.92.92,0,0,0-.38-.35,1,1,0,0,0-.52-.13h-1.31v3.65h1.38a1.15,1.15,0,0,0,.55-.14,1,1,0,0,0,.4-.37.94.94,0,0,0,.15-.53A.85.85,0,0,0,107.83,153.38ZM106,151.7h.9a.57.57,0,0,1,.32.09.63.63,0,0,1,.21.22.54.54,0,0,1,.07.27.57.57,0,0,1-.08.28.56.56,0,0,1-.21.22.6.6,0,0,1-.33.09H106Zm1.53,2.5a.6.6,0,0,1-.22.23.63.63,0,0,1-.33.09h-1v-1.24h1a.64.64,0,0,1,.34.09.57.57,0,0,1,.23.23.6.6,0,0,1,0,.6Z"/><path class="cls-1" d="M113.26,151.7v-.41h-2.1v3.65h2.1v-.42h-1.68v-1.2h1.52v-.41h-1.52V151.7Z"/><path class="cls-1" d="M116.23,151.29v.41h1v3.24h.44V151.7h1v-.41Z"/><path class="cls-1" d="M121.52,151.29v.41h1v3.24H123V151.7h1v-.41Z"/><path class="cls-1" d="M129.19,151.7v-.41h-2.11v3.65h2.11v-.42h-1.68v-1.2H129v-.41h-1.52V151.7Z"/><path class="cls-1" d="M133.91,153.42h0a1.3,1.3,0,0,0,.45-.2,1,1,0,0,0,.31-.37.94.94,0,0,0,.12-.47,1.06,1.06,0,0,0-.57-.94,1.22,1.22,0,0,0-.56-.14h-1.24v3.65h.43v-1.49h.58l1,1.49h.51v0Zm-1-.37V151.7h.81a.69.69,0,0,1,.36.1.82.82,0,0,1,.24.25.62.62,0,0,1,.09.32.6.6,0,0,1-.1.35.7.7,0,0,1-.27.24.68.68,0,0,1-.35.09Z"/><path class="cls-1" d="M144,153.38a.87.87,0,0,0-.45-.32v0a.91.91,0,0,0,.37-.3.83.83,0,0,0,.13-.47,1,1,0,0,0-.14-.5.94.94,0,0,0-.39-.35,1,1,0,0,0-.51-.13h-1.31v3.65h1.38a1.14,1.14,0,0,0,.54-.14,1,1,0,0,0,.4-.37.94.94,0,0,0,.15-.53A.79.79,0,0,0,144,153.38Zm-1.87-1.68h.9a.54.54,0,0,1,.31.09.63.63,0,0,1,.21.22.54.54,0,0,1,.07.27.55.55,0,0,1-.07.28.58.58,0,0,1-.22.22.57.57,0,0,1-.32.09h-.88Zm1.53,2.5a.72.72,0,0,1-.23.23.58.58,0,0,1-.33.09h-1v-1.24h.95a.62.62,0,0,1,.34.09.57.57,0,0,1,.23.23.58.58,0,0,1,.09.3A.67.67,0,0,1,143.65,154.2Z"/><path class="cls-1" d="M149.5,151.29v2.32a1.13,1.13,0,0,1-.23.72.87.87,0,0,1-.68.27.85.85,0,0,1-.67-.27,1.07,1.07,0,0,1-.23-.72v-2.32h-.44v2.3a1.58,1.58,0,0,0,.17.74,1.18,1.18,0,0,0,.48.51,1.31,1.31,0,0,0,.69.18,1.37,1.37,0,0,0,.72-.18,1.23,1.23,0,0,0,.46-.5,1.65,1.65,0,0,0,.16-.75v-2.3Z"/><path class="cls-1" d="M155.14,153.28a1.9,1.9,0,0,0-.72-.42l-.24-.08a1.72,1.72,0,0,1-.51-.25.44.44,0,0,1-.17-.35.51.51,0,0,1,.2-.4.75.75,0,0,1,.48-.16.68.68,0,0,1,.48.16.63.63,0,0,1,.23.34l.41-.18a1.17,1.17,0,0,0-.2-.33,1.28,1.28,0,0,0-1.49-.27,1,1,0,0,0-.4.36.8.8,0,0,0-.14.48.81.81,0,0,0,.24.62,1.83,1.83,0,0,0,.63.36l.23.08a1.89,1.89,0,0,1,.61.31.58.58,0,0,1,0,.88.83.83,0,0,1-.54.17.8.8,0,0,1-.55-.2,1.13,1.13,0,0,1-.32-.54l-.41.17a1.31,1.31,0,0,0,.49.73,1.33,1.33,0,0,0,.78.26,1.65,1.65,0,0,0,.57-.11,1.19,1.19,0,0,0,.45-.35,1,1,0,0,0,.18-.6A.89.89,0,0,0,155.14,153.28Z"/><path class="cls-1" d="M158.59,151.29v3.65H159v-3.65Z"/><path class="cls-1" d="M164.73,151.29v2.2l0,.7h0l-1.83-2.9h-.53v3.65h.43V152.6l0-.7h0l1.92,3h.44v-3.65Z"/><path class="cls-1" d="M170.63,151.7v-.41h-2.11v3.65h2.11v-.42H169v-1.2h1.52v-.41H169V151.7Z"/><path class="cls-1" d="M175.83,153.28a1.9,1.9,0,0,0-.72-.42l-.24-.08a1.72,1.72,0,0,1-.51-.25.44.44,0,0,1-.17-.35.51.51,0,0,1,.2-.4.71.71,0,0,1,.48-.16.68.68,0,0,1,.48.16.69.69,0,0,1,.23.34l.41-.18a1.17,1.17,0,0,0-.2-.33,1.2,1.2,0,0,0-.37-.28,1.22,1.22,0,0,0-.56-.12,1.18,1.18,0,0,0-.56.13,1,1,0,0,0-.4.36.8.8,0,0,0-.14.48.81.81,0,0,0,.24.62,1.74,1.74,0,0,0,.63.36l.23.08a2,2,0,0,1,.61.31.59.59,0,0,1,0,.88.83.83,0,0,1-.54.17.8.8,0,0,1-.55-.2,1.06,1.06,0,0,1-.32-.54l-.41.17a1.32,1.32,0,0,0,1.27,1,1.65,1.65,0,0,0,.57-.11,1.19,1.19,0,0,0,.45-.35,1,1,0,0,0,.18-.6A.89.89,0,0,0,175.83,153.28Z"/><path class="cls-1" d="M181.23,153.28a1.9,1.9,0,0,0-.72-.42l-.24-.08a1.72,1.72,0,0,1-.51-.25.44.44,0,0,1-.17-.35.51.51,0,0,1,.2-.4.75.75,0,0,1,.48-.16.68.68,0,0,1,.48.16.63.63,0,0,1,.23.34l.41-.18a1.17,1.17,0,0,0-.2-.33,1.28,1.28,0,0,0-1.49-.27,1,1,0,0,0-.4.36.8.8,0,0,0-.14.48.81.81,0,0,0,.24.62,1.74,1.74,0,0,0,.63.36l.23.08a1.89,1.89,0,0,1,.61.31.58.58,0,0,1,0,.88.83.83,0,0,1-.54.17.8.8,0,0,1-.55-.2,1.13,1.13,0,0,1-.32-.54L179,154a1.31,1.31,0,0,0,.49.73,1.33,1.33,0,0,0,.78.26,1.6,1.6,0,0,0,.57-.11,1.19,1.19,0,0,0,.45-.35,1,1,0,0,0,.18-.6A.89.89,0,0,0,181.23,153.28Z"/><path class="cls-1" d="M190.7,153.38a.87.87,0,0,0-.45-.32v0a.85.85,0,0,0,.37-.3.83.83,0,0,0,.13-.47.88.88,0,0,0-.14-.5.92.92,0,0,0-.38-.35,1.06,1.06,0,0,0-.52-.13H188.4v3.65h1.38a1.11,1.11,0,0,0,.54-.14,1,1,0,0,0,.41-.37.94.94,0,0,0,.15-.53A.8.8,0,0,0,190.7,153.38Zm-1.87-1.68h.9a.54.54,0,0,1,.31.09.63.63,0,0,1,.21.22.56.56,0,0,1,.08.27.57.57,0,0,1-.08.28.52.52,0,0,1-.22.22.57.57,0,0,1-.32.09h-.88Zm1.53,2.5a.69.69,0,0,1-.22.23.63.63,0,0,1-.33.09h-1v-1.24h1a.67.67,0,0,1,.34.09.72.72,0,0,1,.23.23.6.6,0,0,1,0,.6Z"/><path class="cls-1" d="M196.14,151.7v-.41H194v3.65h2.11v-.42h-1.68v-1.2H196v-.41h-1.52V151.7Z"/><path class="cls-1" d="M199.11,151.29v.41h1v3.24h.43V151.7h1v-.41Z"/><path class="cls-1" d="M204.4,151.29v.41h1v3.24h.43V151.7h1v-.41Z"/><path class="cls-1" d="M212.07,151.7v-.41H210v3.65h2.11v-.42h-1.68v-1.2h1.52v-.41h-1.52V151.7Z"/><path class="cls-1" d="M216.79,153.42h0a1.17,1.17,0,0,0,.44-.2,1,1,0,0,0,.32-.37.93.93,0,0,0,.11-.47,1.07,1.07,0,0,0-.15-.56,1.1,1.1,0,0,0-.42-.38,1.19,1.19,0,0,0-.56-.14h-1.23v3.65h.43v-1.49h.57l1,1.49h.51v0Zm-1-.37V151.7h.81a.75.75,0,0,1,.36.1.82.82,0,0,1,.24.25.62.62,0,0,1,.09.32.68.68,0,0,1-.1.35.78.78,0,0,1-.27.24.73.73,0,0,1-.35.09Z"/><path class="cls-1" d="M226.67,151.7v-.41h-2.1v3.65H225v-1.58h1.52V153H225V151.7Z"/><path class="cls-1" d="M232,151.29v2.32a1.08,1.08,0,0,1-.24.72,1,1,0,0,1-1.35,0,1.13,1.13,0,0,1-.23-.72v-2.32h-.43v2.3a1.47,1.47,0,0,0,.17.74,1.22,1.22,0,0,0,.47.51,1.47,1.47,0,0,0,1.41,0,1.26,1.26,0,0,0,.47-.5,1.8,1.8,0,0,0,.16-.75v-2.3Z"/><path class="cls-1" d="M235.4,151.29v.41h1v3.24h.43V151.7h1v-.41Z"/><path class="cls-1" d="M243.15,151.29v2.32a1.08,1.08,0,0,1-.24.72.83.83,0,0,1-.67.27.85.85,0,0,1-.67-.27,1.08,1.08,0,0,1-.24-.72v-2.32h-.43v2.3a1.58,1.58,0,0,0,.17.74,1.22,1.22,0,0,0,.47.51,1.38,1.38,0,0,0,.7.18,1.43,1.43,0,0,0,.72-.18,1.23,1.23,0,0,0,.46-.5,1.65,1.65,0,0,0,.16-.75v-2.3Z"/><path class="cls-1" d="M248.31,153.42h0a1.17,1.17,0,0,0,.44-.2,1,1,0,0,0,.32-.37.93.93,0,0,0,.11-.47,1.07,1.07,0,0,0-.15-.56,1,1,0,0,0-.42-.38,1.19,1.19,0,0,0-.56-.14h-1.23v3.65h.43v-1.49h.57l1,1.49h.51v0Zm-1.05-.37V151.7h.81a.75.75,0,0,1,.36.1.82.82,0,0,1,.24.25.62.62,0,0,1,.09.32.68.68,0,0,1-.1.35.78.78,0,0,1-.27.24.73.73,0,0,1-.35.09Z"/><path class="cls-1" d="M254.47,151.7v-.41h-2.11v3.65h2.11v-.42h-1.68v-1.2h1.52v-.41h-1.52V151.7Z"/><path class="cls-1" d="M151.9,61.38c0-.2,0-.32,0-.44,0-1.16,0-2.33,0-3.49a13.35,13.35,0,0,0-.34-3,9,9,0,0,0-.32-1,2.87,2.87,0,0,0-.85-1.16l-.29-.29,2.17-2.36a3.42,3.42,0,0,1,.32.27,5.14,5.14,0,0,1,1.27,2.64,12.65,12.65,0,0,1,.22,2.46c0,1.56,0,3.12,0,4.68a8,8,0,0,0,0,1.54l.36.06h30.87a3.67,3.67,0,0,0,0-.47,15.54,15.54,0,0,0-3.58-7.44,13.8,13.8,0,0,0-7-4.2,20.91,20.91,0,0,0-4.45-.61l-.58,0c0-.14-.07-.26-.09-.38a21.63,21.63,0,0,1-.22-5.68,13.11,13.11,0,0,1,1.05-4,10.27,10.27,0,0,1,4.38-4.76,15.16,15.16,0,0,1,4.31-1.61,25.15,25.15,0,0,1,5.47-.56l.33,0a.79.79,0,0,1,.08.23v3.23a.76.76,0,0,1-.06.21,2.2,2.2,0,0,1-.36,0,29.78,29.78,0,0,0-3.54.24,15.49,15.49,0,0,0-3.74.91A8.31,8.31,0,0,0,172,42.75a13.49,13.49,0,0,0-.32,2.83c0,.12,0,.25,0,.37.22.16.46.09.69.1a18,18,0,0,1,5,.82,13.45,13.45,0,0,1,8.24,7.21,20.16,20.16,0,0,1,1.73,5.47,26.52,26.52,0,0,1,.4,5.49c0,.18,0,.37,0,.56a1.46,1.46,0,0,1-.09.22l-.61,0h-7q-12.84,0-25.66,0H124.69a8.94,8.94,0,0,1-7.26-3.51A7.26,7.26,0,0,1,116,58.74,8.88,8.88,0,0,1,117.05,53a14,14,0,0,1,2.84-3.55.78.78,0,0,1,.15-.1c.12.08,0,.15,0,.22-.24.47-.49.93-.71,1.41a10.18,10.18,0,0,0-.88,2.63,7.19,7.19,0,0,0,.94,5.24,5.12,5.12,0,0,0,4.42,2.52H151.9Z"/><path class="cls-1" d="M200.12,52.86a1.28,1.28,0,0,1,.41.62,23.55,23.55,0,0,1,1,3.66,22.88,22.88,0,0,1,.41,3.78c0,.12,0,.24,0,.41l.37.05h30l.84,0c-.11-.17-.15-.25-.2-.31a26.27,26.27,0,0,0-4.25-4.5,12.22,12.22,0,0,0-2-1.35,6.76,6.76,0,0,0-2.72-.77,11.27,11.27,0,0,0-2.9.11,5.85,5.85,0,0,0-2.16.85,1.93,1.93,0,0,1-.31.13,2.08,2.08,0,0,1,.15-.85,4.3,4.3,0,0,1,1.36-1.87,5.85,5.85,0,0,1,5.73-1,12.7,12.7,0,0,1,2.75,1.27,32.25,32.25,0,0,1,3.46,2.45c1.29,1,2.56,2.07,3.86,3.09a19.67,19.67,0,0,0,2.61,1.78,6.56,6.56,0,0,0,2,.84,5.69,5.69,0,0,0,1,.12c.63,0,1.26,0,1.9,0l.58,0a1.63,1.63,0,0,1,.07.33c0,1.24,0,2.49,0,3.73a2.11,2.11,0,0,1,0,.33,3.21,3.21,0,0,1-.39,0H201.65l-.26.66A18.71,18.71,0,0,1,198.25,72a13.34,13.34,0,0,1-4.29,3.5,11.92,11.92,0,0,1-4.61,1.23,30.21,30.21,0,0,1-3.29.1,21,21,0,0,1-5.62-.88,11.55,11.55,0,0,1-2.43-1c-.22-.12-.42-.26-.63-.4.08-.21.23-.12.33-.1l1.81.29a24.37,24.37,0,0,0,6.44.19,15.32,15.32,0,0,0,6.64-2.29c.7-.46,1.41-.92,2.09-1.42a9.51,9.51,0,0,0,3.88-6.71,22.58,22.58,0,0,0,.21-3.28A11.74,11.74,0,0,0,197,55a1.65,1.65,0,0,1-.27-1.12Z"/><path class="cls-1" d="M134.5,50.21l1.72,1.69c.34-.28.6-.57.89-.85s.53-.54.8-.8A24.16,24.16,0,0,1,140.75,53a.56.56,0,0,1-.11.2l-2.46,2.46a1.37,1.37,0,0,1-.24.17l-1.67-1.65a2.57,2.57,0,0,0-.63.55c-.18.17-.35.36-.54.53a3.41,3.41,0,0,1-.59.55,34.46,34.46,0,0,1-2.79-2.76s0,0,0-.06a.09.09,0,0,1,0-.06q1.22-1.23,2.46-2.46A2.92,2.92,0,0,1,134.5,50.21Z"/><path class="cls-1" d="M191.16,161.55l-.52.52.52.53.51-.53Zm-1.2,0-.52.52.52.53.5-.53Zm2.4,3.16h-.31c-.56,0-.87-.34-1-1,0-.09,0-.13-.12-.13s-.12,0-.12.13c-.08.67-.39,1-.94,1h-.74a1,1,0,0,1-.35-.09,1.32,1.32,0,0,1-.4-.26,5.23,5.23,0,0,1-.44-.48l-.34.7a1.49,1.49,0,0,1,.64,1,2,2,0,0,1-.85,1.35,3.56,3.56,0,0,1-1.4.8c-.21.05-.31.1-.31.13s.49.13,1.48.13c.24,0,.53-.26.87-.77a2.91,2.91,0,0,0,.56-1.54,1.43,1.43,0,0,0,0-.43,1.69,1.69,0,0,0,.58.14h.2a3.11,3.11,0,0,0,1-.13.55.55,0,0,1,1.09,0,1.9,1.9,0,0,0,.77.12h.12q.09,0,.09-.18v-.39C192.45,164.77,192.42,164.71,192.36,164.71Z"/><path class="cls-1" d="M196.46,164.71h-.36a1.21,1.21,0,0,0-.94.46,1.8,1.8,0,0,0-.45,1.26,1.41,1.41,0,0,0,.06.35,2.21,2.21,0,0,1-.77-.56,1.62,1.62,0,0,1-.4-.82q1.38-.09,1.38-1.32a3.77,3.77,0,0,0-.84-2.06,4.3,4.3,0,0,0-1,2.69h-.81c-.12,0-.18.06-.18.17v.39a.16.16,0,0,0,.18.18h.85a3.12,3.12,0,0,0,2.34,2.46l.25-.7a1.25,1.25,0,0,1-.74-1.08.57.57,0,0,1,.37-.52,2,2,0,0,1,.79-.14h.27c.06,0,.08-.06.08-.18v-.39C196.54,164.77,196.52,164.71,196.46,164.71Zm-3-.22A2.35,2.35,0,0,1,194,163a2.87,2.87,0,0,1,.62,1.34c0,.1-.1.18-.3.25a1.91,1.91,0,0,1-.54.1l-.37,0Z"/><path class="cls-1" d="M197.58,166.22l-.52.52.52.53.51-.53Zm.26-3.49-.33.75a1.54,1.54,0,0,1,.42.88c0,.23-.47.35-1.41.35h-.12a.15.15,0,0,0-.17.17v.39c0,.12.05.18.17.18h.21a2.23,2.23,0,0,0,1.28-.28,1.24,1.24,0,0,0,.43-1.07A2.33,2.33,0,0,0,197.84,162.73Z"/><path class="cls-1" d="M203.49,163.31a3.65,3.65,0,0,0-1.05-.88,3,3,0,0,0-1.13,2.16.88.88,0,0,0,.29.69,1.07,1.07,0,0,0,.72.23,1.49,1.49,0,0,0,1-.35,1.32,1.32,0,0,0,.4-1A1.43,1.43,0,0,0,203.49,163.31Zm-.41,1.33a1.59,1.59,0,0,1-.6.13.86.86,0,0,1-.53-.15.47.47,0,0,1-.2-.39,1.79,1.79,0,0,1,.48-1.07,2.25,2.25,0,0,1,.74.49c.31.29.47.52.47.7S203.32,164.55,203.08,164.64Z"/><path class="cls-1" d="M208.94,164.71h-.26c-.25-.05-.46-.27-.61-.65q-.69-1.86-1-2.73l-.36.66a8.35,8.35,0,0,0,.4,1,6.25,6.25,0,0,1,.39,1.11q0,.57-1.47.57c-.66,0-1-.18-1-.55,0,0,0-.1,0-.18s0-.14,0-.16,0-.12-.09-.12-.12.06-.18.2a1.37,1.37,0,0,0-.1.58c0,.64.41,1,1.23,1a3.1,3.1,0,0,0,1.11-.16,1.06,1.06,0,0,0,.63-.66,2.08,2.08,0,0,0,.52.64,1,1,0,0,0,.61.18h.12c.05,0,.08-.06.08-.18v-.39C209,164.77,209,164.71,208.94,164.71Z"/><path class="cls-1" d="M210.41,160.94l-.52.52.52.53.5-.53Zm1.61,3.77h-.32c-.55,0-.86-.34-.94-1,0-.09,0-.13-.12-.13s-.12,0-.12.13c-.08.67-.39,1-1,1h-.68c-.12,0-.18.06-.18.17v.39a.16.16,0,0,0,.18.18H209a3.13,3.13,0,0,0,1-.13.54.54,0,0,1,1.08,0,2,2,0,0,0,.78.12H212s.08-.06.08-.18v-.39C212.1,164.77,212.07,164.71,212,164.71Z"/><path class="cls-1" d="M213.83,166.25l-.5.5.51.52.5-.52Zm-1.21,0-.49.5.5.52.5-.52Zm.78-3.52-.34.75a1.5,1.5,0,0,1,.43.88c0,.23-.47.35-1.41.35H212a.15.15,0,0,0-.17.17v.39c0,.12.06.18.17.18h.21a2.23,2.23,0,0,0,1.28-.28,1.24,1.24,0,0,0,.43-1.07A2.33,2.33,0,0,0,213.4,162.73Z"/><path class="cls-1" d="M215.79,159.27l-.62.6.29,4.85a3.92,3.92,0,0,0,.1.93c.05,0,.11-.13.2-.41a3.19,3.19,0,0,0,.13-.89Zm.7-1a.76.76,0,0,0-.21,0,4,4,0,0,1-.89.07,2.41,2.41,0,0,1-.39,0,2.51,2.51,0,0,0-.4,0c-.07,0-.15.1-.22.31a.64.64,0,0,0-.11.32c0,.09,0,.13.07.13s.1-.06.17-.15.14-.15.19-.15l.29,0a1.8,1.8,0,0,0,.29,0,1.77,1.77,0,0,0,1.11-.35.68.68,0,0,0,.14-.18Z"/><path class="cls-1" d="M223.93,161.55l-.52.52.52.53.51-.53Zm-1.2,0-.52.52.52.53.51-.53Zm2.4,3.16h-.31c-.55,0-.86-.34-.94-1,0-.09,0-.13-.12-.13s-.12,0-.12.13c-.08.67-.39,1-.95,1H222a1,1,0,0,1-.35-.09,1.21,1.21,0,0,1-.4-.26,4.11,4.11,0,0,1-.44-.48l-.34.7a1.52,1.52,0,0,1,.64,1,2,2,0,0,1-.85,1.35,3.53,3.53,0,0,1-1.41.8c-.2.05-.31.1-.31.13s.5.13,1.49.13c.24,0,.53-.26.87-.77a3,3,0,0,0,.56-1.54,2.63,2.63,0,0,0,0-.43,1.69,1.69,0,0,0,.58.14h.19a3.23,3.23,0,0,0,1-.13.93.93,0,0,0,.6-.51,1,1,0,0,0,.48.52,2,2,0,0,0,.78.12h.11q.09,0,.09-.18v-.39C225.22,164.77,225.19,164.71,225.13,164.71Z"/><path class="cls-1" d="M229.23,164.71h-.36a1.2,1.2,0,0,0-.93.46,1.8,1.8,0,0,0-.45,1.26,1.93,1.93,0,0,0,0,.35,2.18,2.18,0,0,1-.76-.56,1.72,1.72,0,0,1-.41-.82c.93-.06,1.39-.5,1.39-1.32a3.72,3.72,0,0,0-.85-2.06,4.29,4.29,0,0,0-1,2.69h-.82a.15.15,0,0,0-.17.17v.39c0,.12.06.18.17.18H226a3.15,3.15,0,0,0,2.34,2.46l.26-.7a1.26,1.26,0,0,1-.75-1.08.58.58,0,0,1,.37-.52,2,2,0,0,1,.79-.14h.27q.09,0,.09-.18v-.39C229.32,164.77,229.29,164.71,229.23,164.71Zm-3-.22a2.34,2.34,0,0,1,.58-1.53,2.92,2.92,0,0,1,.63,1.34c0,.1-.1.18-.3.25a2,2,0,0,1-.55.1l-.36,0Z"/><path class="cls-1" d="M230.36,166.22l-.52.52.52.53.51-.53Zm.26-3.49-.34.75a1.54,1.54,0,0,1,.42.88c0,.23-.47.35-1.41.35h-.11c-.12,0-.18.06-.18.17v.39a.16.16,0,0,0,.18.18h.2a2.21,2.21,0,0,0,1.28-.28,1.21,1.21,0,0,0,.43-1.07A2.32,2.32,0,0,0,230.62,162.73Z"/><path class="cls-1" d="M235.47,161.57l-.19.78a6.8,6.8,0,0,1,1.15,1,1.52,1.52,0,0,1,.51.83c0,.36-.53.54-1.58.54-.66,0-1-.18-1-.55,0,0,0-.1,0-.18s0-.14,0-.16,0-.12-.09-.12-.13.06-.18.2a1.37,1.37,0,0,0-.1.58c0,.64.41,1,1.23,1a2.81,2.81,0,0,0,1.53-.32,1.18,1.18,0,0,0,.47-1C237.27,163.27,236.67,162.43,235.47,161.57Z"/><path class="cls-1" d="M240.13,164.71h-.29a.92.92,0,0,1-.47-.14.56.56,0,0,1-.33-.51c0-2.29,0-3.89-.13-4.79l-.53.51c.12,1.34.19,2.83.21,4.46a1.13,1.13,0,0,0,.4.91,1.51,1.51,0,0,0,1,.3h.16c.05,0,.08-.06.08-.18v-.39C240.21,164.77,240.18,164.71,240.13,164.71Z"/><path class="cls-1" d="M246.81,164.71h-.54a2.5,2.5,0,0,0-.4,0,1.78,1.78,0,0,0,.45-1A1,1,0,0,0,246,163a1,1,0,0,0-.74-.28,2.33,2.33,0,0,0-1.3.44,15.89,15.89,0,0,0-1.71,1.51.64.64,0,0,1-.43-.26.88.88,0,0,1-.16-.59c0-.08,0-.13-.12-.13a.12.12,0,0,0-.13.13c0,.59-.37.89-1.12.89h-.25c-.12,0-.18.06-.18.17v.39a.16.16,0,0,0,.18.18h.11a1.66,1.66,0,0,0,1.4-.59.85.85,0,0,0,.5.47,3.79,3.79,0,0,0,1.17.12,6.2,6.2,0,0,0,1.05-.09l.57-.09a4.1,4.1,0,0,1,.66.07,6,6,0,0,0,1.15.11h.12c.06,0,.08-.06.08-.18v-.39C246.89,164.77,246.87,164.71,246.81,164.71Zm-3.66,0q-.33,0-.33-.06a4.83,4.83,0,0,1,.61-.53,2.68,2.68,0,0,1,1.49-.73,1.15,1.15,0,0,1,.67.2.58.58,0,0,1,.29.45C245.88,164.49,245,164.71,243.15,164.71Z"/><path class="cls-1" d="M248.68,160.94l-.5.49.51.52.5-.52Zm-1.2,0-.5.49.51.52.5-.52Zm2.41,3.77h-.32c-.55,0-.86-.34-.94-1,0-.09,0-.13-.12-.13a.12.12,0,0,0-.13.13c-.07.67-.38,1-.94,1h-.69c-.12,0-.18.06-.18.17v.39a.16.16,0,0,0,.18.18h.12a3.13,3.13,0,0,0,1-.13,1,1,0,0,0,.61-.51.93.93,0,0,0,.47.52,1.92,1.92,0,0,0,.78.12h.12c.05,0,.08-.06.08-.18v-.39C250,164.77,249.94,164.71,249.89,164.71Z"/><path class="cls-1" d="M251.93,159.47l-.5.5.51.52.5-.52Zm-1.2,0-.5.5.51.52.5-.52Zm1.59,2.68a1,1,0,0,0-.92-.7c-.32,0-.58.23-.76.68a2.6,2.6,0,0,0-.23,1q0,.72.93.72a2,2,0,0,0,.89-.13.48.48,0,0,1,.06.26c0,.47-.63.7-1.9.7h-.56c-.12,0-.18.06-.18.17v.39a.16.16,0,0,0,.18.18H250a4.08,4.08,0,0,0,2-.38,1.38,1.38,0,0,0,.61-1.28A4,4,0,0,0,252.32,162.15Zm-.86,1q-.66,0-.66-.45a.49.49,0,0,1,.15-.35.51.51,0,0,1,.36-.15.67.67,0,0,1,.53.29,1.06,1.06,0,0,1,.27.55A1.49,1.49,0,0,1,251.46,163.14Z"/><path class="cls-1" d="M254.37,159.27l-.61.6.29,4.85a5.52,5.52,0,0,0,.09.93c.05,0,.12-.13.2-.41a2.6,2.6,0,0,0,.13-.89Z"/><path class="cls-1" d="M111.76,164.71h-.12a10.32,10.32,0,0,0-1.81.1,1.72,1.72,0,0,0-.86.51,1.19,1.19,0,0,0-.41.83c0,.21.17.38.52.49a9.18,9.18,0,0,0,1,.19c.34,0,.52.11.52.17s-.22.31-.66.45a6,6,0,0,1-1.74.22,3.32,3.32,0,0,1-1.58-.28,1.15,1.15,0,0,1-.58-1.09,1.86,1.86,0,0,1,.17-.8c.11-.26.17-.38.17-.38s0-.1-.11-.1-.27.17-.42.51a3,3,0,0,0-.26,1.21,1.46,1.46,0,0,0,.65,1.29,2.57,2.57,0,0,0,1.46.38c2.16,0,3.26-.56,3.29-1.67a.45.45,0,0,0-.15-.4,2.66,2.66,0,0,0-.87-.21c-.62-.08-.92-.17-.92-.27,0-.28.71-.41,2.13-.41h.62c.06,0,.08-.06.08-.18v-.39C111.84,164.77,111.82,164.71,111.76,164.71Z"/><path class="cls-1" d="M116.44,164.75s0,0-.07,0h-.07a1.56,1.56,0,0,1-.4-.05,1.33,1.33,0,0,1-.32-.11,1.14,1.14,0,0,1-.25-.18,1.45,1.45,0,0,1-.22-.21l-1-1.17-.72-.8-.46-.52-.25-.29a1.1,1.1,0,0,0-.12-.14l-.05-.07,3.2-1.16.23-.74-3.55,1.32a.31.31,0,0,0-.18.16,1.31,1.31,0,0,0-.09.28,1.57,1.57,0,0,0,0,.3,2.11,2.11,0,0,0,0,.23s0,.1.14.2.2.22.34.35l.44.44a6.39,6.39,0,0,1,.44.48,3.35,3.35,0,0,1,.34.49.87.87,0,0,1,.14.44.51.51,0,0,1-.19.4,1.22,1.22,0,0,1-.47.23,3.92,3.92,0,0,1-.65.09l-.71,0h-.12c-.06,0-.09.06-.09.17v.39q0,.18.09.18h.12a6.08,6.08,0,0,0,1-.07,1.8,1.8,0,0,0,.72-.24,1.06,1.06,0,0,0,.44-.45,1.58,1.58,0,0,0,.16-.73l.61.71a2.87,2.87,0,0,0,.48.46,1.62,1.62,0,0,0,.46.25,2.14,2.14,0,0,0,.54.07h.12a.07.07,0,0,0,.07,0,.45.45,0,0,0,0-.13v-.39A.45.45,0,0,0,116.44,164.75Z"/><path class="cls-1" d="M117.63,160.47l-.52.53.52.53.5-.53Zm.12,2.26-.33.75a1.54,1.54,0,0,1,.42.88c0,.23-.47.35-1.41.35h-.12a.15.15,0,0,0-.17.17v.39c0,.12.06.18.17.18h.21a2.23,2.23,0,0,0,1.28-.28,1.24,1.24,0,0,0,.43-1.07A2.33,2.33,0,0,0,117.75,162.73Z"/><path class="cls-1" d="M122,164.71h-.7a3,3,0,0,0-.34-1.23.88.88,0,0,0-.77-.54c-.3,0-.56.2-.77.6a2.45,2.45,0,0,0-.26,1.08.73.73,0,0,0,.26.64,1.65,1.65,0,0,0,.9.19,4.85,4.85,0,0,0,.63,0v.08a1.18,1.18,0,0,1-.17.49,3.17,3.17,0,0,1-.61.79,3.69,3.69,0,0,1-1.66.93c-.1,0-.14.06-.14.1s.16.07.48.1.57.05.81.05a.79.79,0,0,0,.49-.14,2.5,2.5,0,0,0,.58-.75,3.18,3.18,0,0,0,.56-1.62H122q.09,0,.09-.18v-.39C122.06,164.77,122,164.71,122,164.71Zm-1.67,0c-.53,0-.79-.16-.79-.47a.58.58,0,0,1,.16-.4.54.54,0,0,1,.4-.17.67.67,0,0,1,.52.36,1.51,1.51,0,0,1,.24.68Z"/><path class="cls-1" d="M124.52,164.71h-.12a1.11,1.11,0,0,1-.65-.18.64.64,0,0,1-.27-.51l-.09-4.75-.49.51.11,4.08c0,.46-.14.73-.48.79a2.41,2.41,0,0,1-.49.06h-.12c-.12,0-.18.06-.18.17v.39a.16.16,0,0,0,.18.18H122a1.23,1.23,0,0,0,1.13-.59,1.33,1.33,0,0,0,1.23.59h.12c.06,0,.08-.06.08-.18v-.39C124.6,164.77,124.58,164.71,124.52,164.71Z"/><path class="cls-1" d="M126.37,160.62l-.5.5.5.51.5-.51Zm-1.2,0-.51.5.51.51.5-.51Zm.73,2.11-.34.75a1.54,1.54,0,0,1,.42.88c0,.23-.47.35-1.4.35h-.12c-.12,0-.18.06-.18.17v.39a.16.16,0,0,0,.18.18h.2a2.18,2.18,0,0,0,1.28-.28,1.21,1.21,0,0,0,.43-1.07A2.32,2.32,0,0,0,125.9,162.73Z"/><path class="cls-1" d="M128.31,159.27l-.62.6.3,4.85a5.52,5.52,0,0,0,.09.93s.12-.13.2-.41a2.86,2.86,0,0,0,.13-.89Z"/><path class="cls-1" d="M131.16,164.59a4.25,4.25,0,0,0-.51-.84,2.23,2.23,0,0,0-.31.73,2,2,0,0,1,.68,1.15,2,2,0,0,1-.85,1.35,3.56,3.56,0,0,1-1.4.8c-.21.05-.31.1-.31.13s.49.13,1.48.13c.25,0,.54-.26.88-.77a2.73,2.73,0,0,0,.55-1.54A2.9,2.9,0,0,0,131.16,164.59Z"/><path class="cls-1" d="M137.63,164.71h-.18a.51.51,0,0,1-.41-.16,1.45,1.45,0,0,1-.25-.65l-.51-2.41-.41.47.14.6a8.16,8.16,0,0,0-1.23.72,1.14,1.14,0,0,0-.36.49,1.39,1.39,0,0,0-.16.61c0,.36.37.53,1.1.53a4,4,0,0,0,.52,0l.55-.48a1.61,1.61,0,0,0,.3.77,1,1,0,0,0,.78.27h.12c.06,0,.08-.06.08-.18v-.39C137.71,164.77,137.69,164.71,137.63,164.71Zm-1.91-.47c-.71,0-1.07-.11-1.07-.33q0-.09.36-.33a4.15,4.15,0,0,1,1.1-.49l.26,1.09A2.81,2.81,0,0,1,135.72,164.24Z"/><path class="cls-1" d="M141,161l-.52.53.51.53.52-.53Zm0,5.22-.51.52.51.53.51-.53Zm1.62-3.49-.35.75a1.46,1.46,0,0,1,.43.88q0,.13-.24.24a1.75,1.75,0,0,1-.64.11.62.62,0,0,1-.56-.32,1.15,1.15,0,0,1-.14-.57c0-.08,0-.13-.12-.13s-.12.05-.12.13c0,.59-.26.89-.8.89s-.82-.3-.82-.89c0-.08,0-.13-.12-.13s-.12.05-.12.13c0,.59-.37.89-1.13.89h-.24c-.12,0-.18.06-.18.17v.39a.16.16,0,0,0,.18.18h.11a1.63,1.63,0,0,0,1.39-.59,1,1,0,0,0,.83.59,1.11,1.11,0,0,0,1-.59.93.93,0,0,0,.86.59,1.15,1.15,0,0,0,.93-.38,1.46,1.46,0,0,0,.3-1A2.37,2.37,0,0,0,142.56,162.73Z"/><path class="cls-1" d="M147.4,161.57l-.18.78a7.68,7.68,0,0,1,1.15,1,1.55,1.55,0,0,1,.5.83c0,.36-.53.54-1.57.54-.67,0-1-.18-1-.55,0,0,0-.1,0-.18a.69.69,0,0,0,0-.16q0-.12-.09-.12c-.06,0-.12.06-.18.2a1.55,1.55,0,0,0-.1.58c0,.64.41,1,1.23,1a2.83,2.83,0,0,0,1.54-.32,1.2,1.2,0,0,0,.46-1C149.2,163.27,148.6,162.43,147.4,161.57Z"/><path class="cls-1" d="M152.06,164.71h-.29a.94.94,0,0,1-.47-.14.55.55,0,0,1-.32-.51c0-2.29-.06-3.89-.13-4.79l-.54.51c.12,1.34.19,2.83.21,4.46a1.16,1.16,0,0,0,.4.91,1.53,1.53,0,0,0,1,.3h.16c.06,0,.08-.06.08-.18v-.39C152.14,164.77,152.12,164.71,152.06,164.71Z"/><path class="cls-1" d="M158.75,164.71h-.55a2.5,2.5,0,0,0-.4,0,1.78,1.78,0,0,0,.45-1A1,1,0,0,0,158,163a1,1,0,0,0-.74-.28,2.36,2.36,0,0,0-1.3.44,15.89,15.89,0,0,0-1.71,1.51.6.6,0,0,1-.42-.26.83.83,0,0,1-.17-.59c0-.08,0-.13-.12-.13s-.12.05-.12.13c0,.59-.38.89-1.13.89H152c-.12,0-.18.06-.18.17v.39a.16.16,0,0,0,.18.18h.11a1.65,1.65,0,0,0,1.4-.59.85.85,0,0,0,.5.47,3.79,3.79,0,0,0,1.17.12,6.41,6.41,0,0,0,1.06-.09l.56-.09a4.1,4.1,0,0,1,.66.07,6,6,0,0,0,1.15.11h.13c.05,0,.07-.06.07-.18v-.39C158.82,164.77,158.8,164.71,158.75,164.71Zm-3.67,0q-.33,0-.33-.06a4.83,4.83,0,0,1,.61-.53,2.67,2.67,0,0,1,1.5-.73,1.14,1.14,0,0,1,.66.2.58.58,0,0,1,.29.45C157.81,164.49,156.9,164.71,155.08,164.71Z"/><path class="cls-1" d="M160.61,160.94l-.5.49.51.52.5-.52Zm-1.19,0-.51.49.51.52.5-.52Zm2.4,3.77h-.32c-.55,0-.86-.34-.94-1,0-.09,0-.13-.12-.13s-.12,0-.12.13c-.08.67-.39,1-.94,1h-.69c-.12,0-.18.06-.18.17v.39a.16.16,0,0,0,.18.18h.11a3.13,3.13,0,0,0,1-.13,1,1,0,0,0,.61-.51,1,1,0,0,0,.47.52,2,2,0,0,0,.78.12h.12c.06,0,.08-.06.08-.18v-.39C161.9,164.77,161.88,164.71,161.82,164.71Z"/><path class="cls-1" d="M163.86,159.47l-.5.5.51.52.5-.52Zm-1.2,0-.5.5.51.52.5-.52Zm1.59,2.68a1,1,0,0,0-.91-.7c-.33,0-.58.23-.77.68a2.58,2.58,0,0,0-.22,1c0,.48.3.72.92.72a2,2,0,0,0,.89-.13.48.48,0,0,1,.06.26c0,.47-.63.7-1.9.7h-.56a.15.15,0,0,0-.17.17v.39c0,.12.06.18.17.18h.12a4.12,4.12,0,0,0,2.05-.38,1.4,1.4,0,0,0,.61-1.28A4,4,0,0,0,164.25,162.15Zm-.85,1c-.45,0-.67-.15-.67-.45a.49.49,0,0,1,.15-.35.53.53,0,0,1,.36-.15.7.7,0,0,1,.54.29,1.12,1.12,0,0,1,.26.55A1.47,1.47,0,0,1,163.4,163.14Z"/><path class="cls-1" d="M166.31,159.27l-.62.6.29,4.85a5.52,5.52,0,0,0,.09.93c.05,0,.12-.13.2-.41a2.89,2.89,0,0,0,.14-.89Z"/><path class="cls-1" d="M172.9,164.71h-.18a.51.51,0,0,1-.41-.16,1.58,1.58,0,0,1-.25-.65l-.51-2.41-.41.47.14.6a7.69,7.69,0,0,0-1.23.72,1.14,1.14,0,0,0-.36.49,1.39,1.39,0,0,0-.16.61c0,.36.37.53,1.1.53a4,4,0,0,0,.52,0l.55-.48a1.61,1.61,0,0,0,.3.77,1,1,0,0,0,.78.27h.12q.09,0,.09-.18v-.39C173,164.77,173,164.71,172.9,164.71Zm-1.91-.47c-.71,0-1.07-.11-1.07-.33q0-.09.36-.33a4.15,4.15,0,0,1,1.1-.49l.26,1.09A2.87,2.87,0,0,1,171,164.24Z"/><path class="cls-1" d="M176.24,161l-.52.53.51.53.52-.53Zm0,5.22-.51.52.51.53.51-.53Zm1.62-3.49-.35.75a1.44,1.44,0,0,1,.42.88c0,.09-.07.17-.23.24a1.75,1.75,0,0,1-.64.11.62.62,0,0,1-.56-.32,1.15,1.15,0,0,1-.14-.57c0-.08,0-.13-.12-.13s-.11.05-.11.13c0,.59-.28.89-.81.89s-.82-.3-.82-.89c0-.08,0-.13-.12-.13s-.12.05-.12.13c0,.59-.38.89-1.12.89h-.25c-.12,0-.18.06-.18.17v.39a.16.16,0,0,0,.18.18H173a1.63,1.63,0,0,0,1.39-.59,1,1,0,0,0,.83.59,1.11,1.11,0,0,0,1-.59.93.93,0,0,0,.86.59,1.15,1.15,0,0,0,.93-.38,1.46,1.46,0,0,0,.3-1A2.37,2.37,0,0,0,177.83,162.73Z"/><path class="cls-1" d="M183.44,159.25,182,166h.53l1.47-6.72Z"/></svg>