<?xml version="1.0" encoding="utf-8"?>
<!-- Generator: Adobe Illustrator 26.0.1, SVG Export Plug-In . SVG Version: 6.00 Build 0)  -->
<svg version="1.1" id="Layer_1" xmlns="http://www.w3.org/2000/svg" xmlns:xlink="http://www.w3.org/1999/xlink" x="0px" y="0px"
	 viewBox="0 0 360 200" style="enable-background:new 0 0 360 200;" xml:space="preserve">
<style type="text/css">
	.st0{fill:#F2F2F2;}
</style>
<path class="st0" d="M77.2,149h-3.8v-23.9h3.8v10.3h4.3v-10.3h3.8V149h-3.8v-10.3h-4.3V149z"/>
<path class="st0" d="M102.2,149h-3.8l-0.7-4.3h-4.6l-0.6,4.3H89l3.8-23.9h5.5L102.2,149z M93.6,141.4h3.6l-1.8-12.1L93.6,141.4z"/>
<path class="st0" d="M113.9,142.1l2.6-17h5.2V149h-3.6v-17.2l-2.6,17.2H112l-2.8-16.9V149h-3.3v-23.9h5.2L113.9,142.1z"/>
<path class="st0" d="M126.5,125.1h3.8V149h-3.8V125.1z"/>
<path class="st0" d="M135,125.1h6c3.8,0,5.6,2.1,5.6,5.9v12.1c0,3.8-1.8,5.9-5.6,5.9h-6V125.1z M138.8,128.5v17.1h2.1
	c1.2,0,1.9-0.6,1.9-2.3v-12.4c0-1.7-0.7-2.3-1.9-2.3L138.8,128.5z"/>
<path class="st0" d="M163.4,124.8c3.6,0,5.5,2.2,5.5,6v0.8h-3.6v-1c0-1.7-0.7-2.4-1.9-2.4s-1.9,0.6-1.9,2.4c0,4.9,7.3,5.8,7.3,12.7
	c0,3.8-1.9,6-5.6,6s-5.6-2.2-5.6-6v-1.5h3.6v1.7c0,1.7,0.8,2.3,1.9,2.3s1.9-0.6,1.9-2.3c0-4.9-7.3-5.8-7.3-12.7
	C157.9,127,159.8,124.8,163.4,124.8z"/>
<path class="st0" d="M173.2,125.1h3.8V149h-3.8V125.1z"/>
<path class="st0" d="M185.1,131.7V149h-3.4v-23.9h4.7l3.9,14.3v-14.3h3.4V149h-3.9L185.1,131.7z"/>
<path class="st0" d="M210.5,149h-3.8l-0.6-4.3h-4.6l-0.6,4.3h-3.4l3.8-23.9h5.5L210.5,149z M201.9,141.4h3.6l-1.8-12.1L201.9,141.4z
	"/>
<path class="st0" d="M217.6,131.7V149h-3.4v-23.9h4.7l3.9,14.3v-14.3h3.3V149h-3.9L217.6,131.7z"/>
<path class="st0" d="M243.3,124.8c3.6,0,5.5,2.2,5.5,6v0.8h-3.6v-1c0-1.7-0.7-2.4-1.9-2.4s-1.9,0.6-1.9,2.4c0,4.9,7.3,5.8,7.3,12.7
	c0,3.8-1.9,6-5.6,6s-5.6-2.2-5.6-6v-1.5h3.6v1.7c0,1.7,0.8,2.3,1.9,2.3s2-0.6,2-2.3c0-4.9-7.3-5.8-7.3-12.7
	C237.8,127,239.7,124.8,243.3,124.8z"/>
<path class="st0" d="M265.3,149h-3.8l-0.6-4.3h-4.6l-0.6,4.3h-3.4l3.8-23.9h5.5L265.3,149z M256.7,141.4h3.6l-1.8-12.1L256.7,141.4z
	"/>
<path class="st0" d="M272.8,135.7h4.9v3.4h-4.9v9.9h-3.8v-23.9h9.9v3.4h-6.2V135.7z"/>
<path class="st0" d="M282.9,125.1h3.8V149h-3.8V125.1z"/>
<path class="st0" d="M89.3,164.5l0.2,0.1l-0.8,2.6h-7.4v-0.3h0.4c0.3,0,0.7-0.1,0.9-0.4c0.1-0.3,0.2-0.7,0.2-1v-6.1
	c0-0.4,0-0.8-0.2-1.1c-0.2-0.2-0.5-0.3-0.8-0.3h-0.4v-0.3h4.3v0.3c-0.4,0-0.7,0-1.1,0.1c-0.2,0.1-0.3,0.2-0.4,0.4
	c-0.1,0.3-0.1,0.7-0.1,1.1v5.9c0,0.3,0,0.5,0.1,0.8c0.1,0.1,0.2,0.2,0.3,0.2c0.4,0.1,0.7,0.1,1.1,0.1h0.7c0.5,0,1,0,1.5-0.2
	c0.3-0.1,0.6-0.3,0.8-0.6C88.9,165.5,89.1,165,89.3,164.5z"/>
<path class="st0" d="M99,157.5c1.2,0,2.4,0.5,3.2,1.4c0.9,0.9,1.4,2.2,1.4,3.5c0.1,1.3-0.4,2.7-1.4,3.6c-1.7,1.8-4.6,1.9-6.4,0.2
	c-0.1-0.1-0.1-0.1-0.2-0.2c-0.9-1-1.4-2.3-1.3-3.6c0-1.4,0.5-2.7,1.5-3.7C96.7,157.9,97.8,157.4,99,157.5z M98.9,158
	c-0.8,0-1.5,0.3-2,0.9c-0.7,1-1.1,2.2-1,3.4c-0.1,1.3,0.3,2.5,1,3.6c0.5,0.6,1.2,1,2,0.9c0.9,0,1.7-0.3,2.2-1c0.7-1,1-2.1,0.9-3.3
	c0.1-1.3-0.3-2.6-1-3.6C100.4,158.3,99.7,158,98.9,158L98.9,158z"/>
<path class="st0" d="M116.8,157.5l0.2,3h-0.2c-0.2-0.6-0.5-1.2-1-1.7c-0.6-0.6-1.4-0.8-2.2-0.8c-1.1-0.1-2.2,0.5-2.8,1.4
	c-0.5,0.9-0.8,1.9-0.8,2.9c0,0.9,0.2,1.7,0.5,2.5c0.3,0.7,0.8,1.2,1.4,1.6c0.5,0.3,1.1,0.5,1.8,0.5c0.3,0,0.7,0,1-0.1
	c0.3-0.1,0.7-0.2,1-0.4v-2.7c0-0.3,0-0.6-0.1-0.9c-0.1-0.1-0.2-0.3-0.3-0.3c-0.3-0.1-0.5-0.1-0.8-0.1V162h3.7v0.3H118
	c-0.3,0-0.6,0.1-0.8,0.4c-0.1,0.3-0.2,0.7-0.1,1v2.9c-0.5,0.3-1,0.5-1.6,0.6c-0.6,0.1-1.2,0.2-1.7,0.2c-1.6,0.1-3.1-0.5-4.2-1.8
	c-0.7-0.9-1.1-1.9-1.1-3.1c0-1.8,1-3.5,2.6-4.5c0.8-0.4,1.6-0.6,2.5-0.6c0.3,0,0.6,0,0.9,0.1c0.4,0.1,0.8,0.2,1.2,0.4
	c0.2,0.1,0.3,0.1,0.5,0.1c0.1,0,0.2,0,0.2-0.1c0.1-0.1,0.1-0.3,0.1-0.5L116.8,157.5z"/>
<path class="st0" d="M126.8,166.9v0.3h-4.1v-0.3h0.3c0.3,0,0.6-0.1,0.8-0.3c0.1-0.3,0.2-0.7,0.2-1.1v-6.1c0-0.3,0-0.6-0.1-0.9
	c-0.1-0.1-0.2-0.2-0.3-0.3c-0.2-0.1-0.4-0.2-0.6-0.2h-0.3v-0.3h4.1v0.3h-0.3c-0.3,0-0.6,0.1-0.8,0.3c-0.2,0.3-0.2,0.7-0.2,1.1v6.1
	c0,0.3,0,0.7,0.1,1c0.1,0.1,0.2,0.2,0.3,0.3c0.2,0.1,0.4,0.2,0.6,0.2L126.8,166.9z"/>
<path class="st0" d="M137.6,157.5v3.3h-0.3c0-0.5-0.2-1-0.4-1.5c-0.2-0.4-0.5-0.7-0.9-0.9c-0.4-0.2-0.8-0.3-1.2-0.3
	c-0.4,0-0.9,0.1-1.2,0.4c-0.3,0.2-0.5,0.6-0.5,1c0,0.3,0.1,0.6,0.3,0.8c0.6,0.6,1.3,1,2.1,1.4c0.6,0.3,1.2,0.7,1.8,1.1
	c0.3,0.2,0.6,0.5,0.8,0.9c0.2,0.3,0.3,0.7,0.3,1.1c0,0.7-0.3,1.4-0.8,1.9c-0.6,0.5-1.4,0.8-2.1,0.8c-0.3,0-0.5,0-0.8-0.1
	c-0.3-0.1-0.6-0.2-0.9-0.2c-0.3-0.1-0.6-0.2-0.9-0.2c-0.1,0-0.2,0-0.3,0.1c-0.1,0.1-0.1,0.3-0.1,0.4H132v-3.3h0.3
	c0.1,0.5,0.2,1.1,0.5,1.5c0.2,0.4,0.6,0.7,0.9,0.9c0.4,0.2,0.9,0.3,1.4,0.3c0.5,0,1-0.1,1.4-0.5c0.3-0.3,0.5-0.7,0.5-1.1
	c0-0.2-0.1-0.5-0.2-0.7c-0.1-0.3-0.4-0.5-0.6-0.7c-0.5-0.3-1-0.6-1.5-0.9c-0.6-0.3-1.2-0.7-1.7-1.1c-0.3-0.2-0.6-0.5-0.8-0.9
	c-0.1-0.3-0.2-0.7-0.2-1c0-0.7,0.3-1.3,0.8-1.8c0.5-0.5,1.3-0.8,2-0.7c0.6,0,1.1,0.1,1.6,0.4c0.2,0.1,0.4,0.2,0.6,0.2
	c0.1,0,0.2,0,0.3-0.1c0.1-0.1,0.2-0.3,0.2-0.4L137.6,157.5z"/>
<path class="st0" d="M151.2,157.7l0.1,2.2h-0.3c0-0.3-0.1-0.6-0.2-0.8c-0.1-0.3-0.3-0.5-0.6-0.6c-0.3-0.1-0.6-0.2-0.9-0.2H148v7.2
	c0,0.4,0,0.8,0.2,1.1c0.2,0.2,0.5,0.3,0.8,0.3h0.3v0.3h-4v-0.3h0.3c0.3,0,0.6-0.1,0.9-0.4c0.1-0.3,0.2-0.7,0.2-1v-7.2h-1.1
	c-0.3,0-0.6,0-0.9,0.1c-0.3,0.1-0.5,0.3-0.6,0.5c-0.2,0.3-0.3,0.6-0.3,1h-0.3l0.1-2.2L151.2,157.7z"/>
<path class="st0" d="M160.1,166.9v0.3H156v-0.3h0.3c0.3,0,0.6-0.1,0.9-0.3c0.1-0.3,0.2-0.7,0.2-1.1v-6.1c0-0.3,0-0.6-0.1-0.9
	c-0.1-0.1-0.2-0.2-0.3-0.3c-0.2-0.1-0.4-0.2-0.6-0.2H156v-0.3h4.1v0.3h-0.3c-0.3,0-0.6,0.1-0.9,0.3c-0.1,0.3-0.2,0.7-0.2,1.1v6.1
	c0,0.3,0,0.7,0.1,1c0.1,0.1,0.2,0.2,0.3,0.3c0.2,0.1,0.4,0.2,0.6,0.2L160.1,166.9z"/>
<path class="st0" d="M173,157.5l0.2,3.2H173c-0.2-0.8-0.6-1.5-1.2-2.1c-0.6-0.4-1.2-0.7-1.9-0.6c-1.3,0-2.5,0.8-2.9,2
	c-0.3,0.8-0.5,1.7-0.4,2.6c0,0.8,0.1,1.5,0.4,2.2c0.3,0.6,0.7,1.1,1.2,1.4c0.6,0.3,1.2,0.5,1.9,0.5c0.6,0,1.1-0.1,1.6-0.4
	c0.6-0.4,1.1-0.9,1.6-1.6l0.2,0.1c-0.4,0.7-1,1.4-1.7,1.9c-2,1.1-4.5,0.6-5.9-1.2c-0.7-0.9-1-2-1-3.1c0-0.9,0.2-1.8,0.6-2.6
	c0.4-0.8,1-1.4,1.8-1.9c0.7-0.4,1.6-0.7,2.4-0.6c0.7,0,1.4,0.2,2,0.5c0.1,0.1,0.3,0.1,0.4,0.2c0.1,0,0.2,0,0.3-0.1
	c0.1-0.1,0.2-0.3,0.3-0.5L173,157.5z"/>
<path class="st0" d="M193.5,157.5l0.2,3.2h-0.2c-0.2-0.8-0.6-1.5-1.2-2.1c-0.5-0.4-1.2-0.7-1.9-0.6c-0.6,0-1.2,0.2-1.7,0.5
	c-0.6,0.4-1,0.9-1.2,1.5c-0.3,0.8-0.5,1.7-0.4,2.6c0,0.8,0.1,1.5,0.4,2.2c0.3,0.6,0.7,1.1,1.2,1.4c0.6,0.3,1.2,0.5,1.9,0.5
	c0.6,0,1.1-0.1,1.6-0.4c0.6-0.4,1.1-0.9,1.6-1.6l0.2,0.1c-0.4,0.7-1,1.4-1.7,1.9c-2,1.1-4.5,0.6-5.9-1.2c-0.7-0.9-1-2-1-3.1
	c0-0.9,0.2-1.8,0.6-2.6c0.4-0.8,1-1.4,1.8-1.9c0.7-0.4,1.6-0.7,2.4-0.6c0.7,0,1.4,0.2,2,0.5c0.1,0.1,0.3,0.1,0.4,0.2
	c0.1,0,0.3-0.1,0.4-0.2c0.1-0.1,0.2-0.3,0.3-0.5L193.5,157.5z"/>
<path class="st0" d="M203.6,157.5c1.2,0,2.4,0.5,3.2,1.4c0.9,0.9,1.4,2.2,1.4,3.5c0.1,1.3-0.4,2.7-1.4,3.6c-1.7,1.8-4.6,1.9-6.4,0.2
	c-0.1-0.1-0.1-0.1-0.2-0.2c-0.9-1-1.4-2.3-1.3-3.6c0-1.4,0.5-2.7,1.5-3.7C201.3,157.9,202.4,157.4,203.6,157.5z M203.5,158
	c-0.8,0-1.5,0.3-2,0.9c-0.7,1-1.1,2.2-1,3.4c-0.1,1.3,0.3,2.5,1,3.6c0.5,0.6,1.2,1,2,0.9c0.9,0,1.7-0.3,2.2-1c0.7-1,1-2.1,0.9-3.3
	c0.1-1.3-0.3-2.6-1-3.6C205.1,158.3,204.3,158,203.5,158L203.5,158z"/>
<path class="st0" d="M218.5,167.2l-3.7-8v6.3c0,0.4,0,0.8,0.2,1.1c0.2,0.2,0.5,0.3,0.8,0.3h0.3v0.3h-3.3v-0.3h0.3
	c0.3,0,0.6-0.1,0.9-0.4c0.1-0.3,0.2-0.7,0.2-1v-6.2c0-0.3,0-0.6-0.1-0.9c-0.1-0.1-0.2-0.3-0.4-0.3c-0.3-0.1-0.6-0.1-0.9-0.1v-0.3
	h2.7l3.4,7.4l3.4-7.4h2.7v0.3h-0.3c-0.3,0-0.7,0.1-0.9,0.4c-0.1,0.3-0.2,0.7-0.1,1v6.2c0,0.4,0,0.8,0.2,1.1c0.2,0.2,0.5,0.3,0.8,0.3
	h0.3v0.3h-4v-0.3h0.3c0.3,0,0.6-0.1,0.9-0.4c0.1-0.3,0.2-0.7,0.1-1v-6.3l-3.6,8L218.5,167.2z"/>
<path class="st0" d="M232.3,162.7v2.8c-0.1,0.4,0,0.8,0.2,1.1c0.2,0.2,0.5,0.3,0.8,0.3h0.4v0.3h-4.1v-0.3h0.4c0.3,0,0.7-0.1,0.9-0.4
	c0.1-0.3,0.2-0.7,0.1-1v-6.1c0-0.4,0-0.8-0.2-1.1c-0.2-0.2-0.5-0.3-0.8-0.3h-0.4v-0.3h3.5c0.7,0,1.4,0.1,2,0.3
	c0.5,0.2,0.9,0.5,1.2,0.9c0.3,0.4,0.5,0.9,0.5,1.5c0,0.7-0.2,1.4-0.8,1.9c-0.6,0.5-1.4,0.8-2.2,0.7c-0.2,0-0.5,0-0.7,0L232.3,162.7z
	 M232.3,162.3l0.7,0.1h0.5c0.5,0,0.9-0.2,1.2-0.6c0.4-0.4,0.6-0.9,0.5-1.5c0-0.4-0.1-0.8-0.2-1.1c-0.2-0.3-0.4-0.6-0.7-0.8
	c-0.3-0.2-0.7-0.3-1-0.3c-0.3,0-0.6,0.1-0.9,0.1L232.3,162.3z"/>
<path class="st0" d="M241.1,157.7h2.6l5.8,7.1v-5.5c0-0.4,0-0.8-0.2-1.1c-0.2-0.2-0.5-0.3-0.8-0.3h-0.3v-0.3h3.3v0.3H251
	c-0.3,0-0.6,0.1-0.9,0.4c-0.1,0.3-0.2,0.7-0.1,1v8h-0.3l-6.2-7.6v5.8c0,0.4,0,0.8,0.2,1.1c0.2,0.2,0.5,0.3,0.8,0.3h0.3v0.3h-3.3
	v-0.3h0.3c0.3,0,0.7-0.1,0.9-0.4c0.1-0.3,0.2-0.7,0.2-1v-6.6c-0.2-0.2-0.4-0.4-0.6-0.6c-0.4-0.2-0.8-0.4-1.2-0.3L241.1,157.7z"/>
<path class="st0" d="M262.1,164h-3.7l-0.6,1.5c-0.1,0.3-0.2,0.5-0.2,0.8c0,0.2,0.1,0.3,0.2,0.4c0.3,0.1,0.6,0.2,0.9,0.2v0.3h-3v-0.3
	c0.3,0,0.5-0.1,0.8-0.3c0.3-0.4,0.6-0.9,0.8-1.4l3.3-7.8h0.2l3.3,7.9c0.2,0.5,0.4,0.9,0.7,1.2c0.3,0.2,0.6,0.3,0.9,0.3v0.3H262v-0.3
	c0.3,0,0.5-0.1,0.8-0.2c0.1-0.1,0.2-0.2,0.2-0.4c0-0.3-0.1-0.7-0.3-1L262.1,164z M261.9,163.5l-1.6-3.8l-1.6,3.8H261.9z"/>
<path class="st0" d="M275.3,157.7h3.3v0.3h-0.2c-0.2,0-0.4,0.1-0.5,0.2c-0.2,0.1-0.5,0.3-0.6,0.5c-0.3,0.3-0.5,0.6-0.7,1l-2.3,3.6
	v2.4c0,0.4,0,0.8,0.2,1.1c0.2,0.2,0.5,0.3,0.8,0.3h0.3v0.3h-4v-0.3h0.3c0.3,0,0.7-0.1,0.9-0.4c0.1-0.3,0.2-0.7,0.1-1v-2.2l-2.6-4
	c-0.2-0.3-0.4-0.6-0.6-0.9c-0.2-0.2-0.5-0.3-0.7-0.4c-0.1-0.1-0.3-0.1-0.4-0.1v-0.3h4v0.3h-0.2c-0.2,0-0.4,0-0.6,0.1
	c-0.2,0.1-0.3,0.3-0.3,0.5c0.1,0.3,0.2,0.6,0.4,0.9l2,3.1l1.9-2.9c0.2-0.3,0.4-0.6,0.4-1c0-0.1,0-0.2-0.1-0.4
	c-0.1-0.1-0.2-0.2-0.3-0.2c-0.2-0.1-0.4-0.1-0.6-0.1L275.3,157.7z"/>
<polygon class="st0" points="234.7,50.7 250.6,32.6 214.7,32.6 198.8,50.7 "/>
<path class="st0" d="M240.1,88.7l-20-3c-0.3-0.1-0.6,0.2-0.7,0.5c0,0.2,0,0.4,0.2,0.5l3.9,4.6c-38,20.4-89.4,6.3-104,1.6
	c-0.3,0-0.6,0.2-0.7,0.5c0,0.2,0,0.4,0.2,0.5c11.8,7.5,52,28.3,108.5,6.8l0.4,4.6c0,0.3,0.3,0.5,0.7,0.5c0.1,0,0.2-0.1,0.3-0.2
	l11.5-16c0.2-0.3,0.1-0.6-0.1-0.8C240.2,88.8,240.2,88.7,240.1,88.7z"/>
<path class="st0" d="M216.1,89.7L216.1,89.7c-1.9-2.2-1.6-5.5,0.6-7.4c1-0.8,2.2-1.3,3.4-1.3h0.6l14,1.5V53h-35.9v42.1
	C204.7,93.9,210.5,92.1,216.1,89.7z"/>
<path class="st0" d="M181.8,32.6h-72.3l5.3,6.7h61.1l2.1,2.3h-61.4l5.3,6.7h60l2.1,2.3h-60.2v38.5c9.8,3,29.9,8.1,51.8,8.1
	c6.9,0,13.8-0.5,20.6-1.7v-45L181.8,32.6z M148.9,85.2h-3.8V73.8h-5.2v11.4h-3.8V59.7h3.8v10.5h5.2V59.7h3.8V85.2z M166.2,67.8h-3.8
	v-4.8h-4.7v4.6l7.6,7.2c0.6,0.5,0.9,1.3,0.8,2.1v6.1c0.2,1.1-0.6,2.2-1.7,2.3c-0.2,0-0.4,0-0.6,0h-7.7c-1.1,0.2-2.1-0.6-2.3-1.6
	c0-0.2,0-0.5,0-0.7v-6.1h3.8V82h4.7v-5l-7.6-7.2c-0.5-0.5-0.8-1.2-0.8-2v-5.7c-0.2-1.1,0.6-2.2,1.7-2.3c0.2,0,0.4,0,0.6,0h7.7
	c1.1-0.2,2.1,0.6,2.3,1.6c0,0.2,0,0.4,0,0.6L166.2,67.8z M183.4,67.8h-3.8v-4.8H175v4.6l7.6,7.2c0.6,0.5,0.9,1.3,0.8,2.1v6.1
	c0.2,1.1-0.6,2.2-1.8,2.3c-0.2,0-0.4,0-0.6,0h-7.7c-1.1,0.2-2.1-0.6-2.3-1.7c0-0.2,0-0.5,0-0.7v-6.1h3.8V82h4.7v-5l-7.7-7.2
	c-0.5-0.5-0.8-1.2-0.8-2v-5.7c-0.2-1.1,0.5-2.1,1.6-2.3c0.2,0,0.5,0,0.7,0h7.7c1.1-0.2,2.1,0.6,2.3,1.6c0,0.2,0,0.4,0,0.6
	L183.4,67.8z"/>
<path class="st0" d="M240.1,88.7l-20-3c-0.3-0.1-0.6,0.2-0.7,0.5c0,0.2,0,0.4,0.2,0.5l3.9,4.6c-38,20.4-89.4,6.3-104,1.6
	c-0.3,0-0.6,0.2-0.7,0.5c0,0.2,0,0.4,0.2,0.5c11.8,7.5,52,28.3,108.5,6.8l0.4,4.6c0,0.3,0.3,0.5,0.7,0.5c0.1,0,0.2-0.1,0.3-0.2
	l11.5-16c0.2-0.3,0.1-0.6-0.1-0.8C240.2,88.8,240.2,88.7,240.1,88.7z"/>
</svg>
