<svg id="Layer_1" data-name="Layer 1" xmlns="http://www.w3.org/2000/svg" xmlns:xlink="http://www.w3.org/1999/xlink" viewBox="0 0 246.57 230.21"><defs><style>.cls-1{fill:url(#linear-gradient);}.cls-2{fill:url(#linear-gradient-2);}.cls-3{fill:#0e1e2d;}.cls-4{fill:#ff4114;}</style><linearGradient id="linear-gradient" x1="123.47" y1="75.12" x2="183.65" y2="75.12" gradientUnits="userSpaceOnUse"><stop offset="0" stop-color="#26527b"/><stop offset="0.01" stop-color="#244e75"/><stop offset="0.08" stop-color="#1c3c5a"/><stop offset="0.17" stop-color="#162d44"/><stop offset="0.26" stop-color="#123"/><stop offset="0.38" stop-color="#0e1a28"/><stop offset="0.54" stop-color="#0c1521"/><stop offset="1" stop-color="#0b141f"/></linearGradient><linearGradient id="linear-gradient-2" x1="123.47" y1="166.57" x2="174.71" y2="166.57" xlink:href="#linear-gradient"/></defs><path class="cls-1" d="M183.65,111.4a112.13,112.13,0,0,0-29.83-13.2,78.48,78.48,0,0,0-24.68-41.81c-1.81-1.61-3.71-3.14-5.67-4.57a78.13,78.13,0,0,1,28.05-13l1,1q2.43,2.43,4.68,5A105.57,105.57,0,0,1,183.65,111.4Z"/><path class="cls-2" d="M174.71,158.08a105.5,105.5,0,0,1-17.5,27.31c-1.49,1.7-3.06,3.37-4.68,5l-1,1a78.13,78.13,0,0,1-28.05-13q3-2.16,5.68-4.57A78.64,78.64,0,0,0,151,141.75,71.73,71.73,0,0,1,174.71,158.08Z"/><path class="cls-3" d="M151.52,38.84a78.13,78.13,0,0,0-28.05,13c-2,1.43-3.85,3-5.67,4.57a78.46,78.46,0,0,0-24.65,41.7,112,112,0,0,0-29.84,13.08A105.54,105.54,0,0,1,89.73,44.82q2.25-2.55,4.68-5l1-1a106.22,106.22,0,0,1,28.05-19.69A106.22,106.22,0,0,1,151.52,38.84Z"/><path class="cls-3" d="M151.52,191.38a106.64,106.64,0,0,1-28,19.69h0a106.64,106.64,0,0,1-28-19.69l-1-1q-2.43-2.43-4.68-5a106.25,106.25,0,0,1-17.62-27.58,71.47,71.47,0,0,1,23.79-16.2,78.68,78.68,0,0,0,21.9,32.21c1.82,1.61,3.71,3.14,5.67,4.57A78.13,78.13,0,0,0,151.52,191.38Z"/><path class="cls-4" d="M229.74,207.53q0,1.77-.06,3.54H201.6c.05-1.17.08-2.36.08-3.54a78.22,78.22,0,0,0-2.53-19.78c-.59-2.28-1.29-4.53-2.09-6.73a78.79,78.79,0,0,0-44-46q-3.24-1.34-6.62-2.39a78.54,78.54,0,0,0-46-.11c-2.26.69-4.47,1.47-6.64,2.36a78.68,78.68,0,0,0-24.51,15.84,77.57,77.57,0,0,0-5.38,5.65,78.57,78.57,0,0,0-14.38,24.51c-.8,2.2-1.49,4.44-2.09,6.72a78.37,78.37,0,0,0-2.57,19.92c0,1.18,0,2.37.08,3.54H16.89q-.06-1.77-.06-3.54c0-1.56,0-3.12.11-4.68A106,106,0,0,1,23,171.64c.85-2.4,1.8-4.76,2.82-7.08a107.53,107.53,0,0,1,30.77-40q3.28-2.64,6.73-5a104.66,104.66,0,0,1,28.52-13.76c2.42-.75,4.87-1.4,7.35-2a107.81,107.81,0,0,1,48.56.1q3.72.85,7.35,2a104.78,104.78,0,0,1,28.5,13.89c2.3,1.58,4.53,3.26,6.71,5a108.54,108.54,0,0,1,8.24,7.43,106.07,106.07,0,0,1,22.29,32.57c1,2.32,2,4.69,2.8,7.09a105.77,105.77,0,0,1,6,31.18C229.71,204.57,229.74,206.05,229.74,207.53Z"/></svg>