<svg id="Layer_1" data-name="Layer 1" xmlns="http://www.w3.org/2000/svg" xmlns:xlink="http://www.w3.org/1999/xlink" viewBox="0 0 1080 263.86"><defs><style>.cls-1{fill:url(#linear-gradient);}.cls-2{fill:url(#linear-gradient-2);}.cls-3{fill:#fff;}.cls-4{fill:#ff4114;}</style><linearGradient id="linear-gradient" x1="140.69" y1="96.59" x2="193.36" y2="96.59" gradientUnits="userSpaceOnUse"><stop offset="0" stop-color="#6d6e71"/><stop offset="0.03" stop-color="#7b7c7f"/><stop offset="0.11" stop-color="#9e9fa1"/><stop offset="0.19" stop-color="#bdbdbe"/><stop offset="0.29" stop-color="#d5d5d6"/><stop offset="0.4" stop-color="#e8e8e8"/><stop offset="0.52" stop-color="#f5f5f5"/><stop offset="0.68" stop-color="#fdfdfd"/><stop offset="1" stop-color="#fff"/></linearGradient><linearGradient id="linear-gradient-2" x1="140.69" y1="176.63" x2="185.54" y2="176.63" xlink:href="#linear-gradient"/></defs><path class="cls-1" d="M193.36,128.35a98.25,98.25,0,0,0-26.11-11.56,68.63,68.63,0,0,0-21.6-36.59c-1.58-1.41-3.24-2.75-5-4a68.37,68.37,0,0,1,24.55-11.36l.89.87c1.41,1.42,2.78,2.88,4.09,4.37A92.33,92.33,0,0,1,193.36,128.35Z"/><path class="cls-2" d="M185.54,169.2a92.14,92.14,0,0,1-15.32,23.9q-2,2.24-4.09,4.37l-.89.87A68.37,68.37,0,0,1,140.69,187q2.58-1.89,5-4a68.89,68.89,0,0,0,19.12-28.07A62.76,62.76,0,0,1,185.54,169.2Z"/><path class="cls-3" d="M165.24,64.84A68.37,68.37,0,0,0,140.69,76.2c-1.71,1.25-3.36,2.59-5,4a68.63,68.63,0,0,0-21.57,36.5A97.8,97.8,0,0,0,88,128.14a92.37,92.37,0,0,1,23.12-58.07c1.32-1.49,2.68-2.94,4.1-4.36l.89-.87a92.81,92.81,0,0,1,24.54-17.23A93,93,0,0,1,165.24,64.84Z"/><path class="cls-3" d="M165.24,198.34a93,93,0,0,1-24.54,17.23h0a92.93,92.93,0,0,1-24.55-17.23l-.88-.87q-2.13-2.13-4.1-4.36A92.92,92.92,0,0,1,95.74,169a62.92,62.92,0,0,1,20.82-14.18A69,69,0,0,0,135.73,183c1.59,1.4,3.25,2.74,5,4A68.37,68.37,0,0,0,165.24,198.34Z"/><path class="cls-4" d="M233.7,212.48q0,1.54-.06,3.09H209.07c.05-1,.07-2.06.07-3.09a68.61,68.61,0,0,0-2.21-17.31c-.52-2-1.13-4-1.83-5.89A68.34,68.34,0,0,0,192.7,168q-2.22-2.59-4.69-5a68.91,68.91,0,0,0-21.4-14q-2.84-1.17-5.79-2.09a68.74,68.74,0,0,0-40.27-.09c-2,.6-3.91,1.29-5.81,2.06a68.76,68.76,0,0,0-21.45,13.87c-1.65,1.57-3.22,3.21-4.71,4.94A68.51,68.51,0,0,0,76,189.17q-1.05,2.88-1.83,5.88a68.15,68.15,0,0,0-2.25,17.43c0,1,0,2.07.07,3.09H47.42q-.06-1.55-.06-3.09c0-1.37,0-2.74.09-4.09a92.64,92.64,0,0,1,5.32-27.32c.74-2.1,1.57-4.17,2.47-6.2a94.14,94.14,0,0,1,26.93-35q2.86-2.31,5.88-4.38a92.22,92.22,0,0,1,25-12q3.18-1,6.44-1.72a94.51,94.51,0,0,1,42.5.08c2.17.5,4.32,1.09,6.44,1.75a92,92,0,0,1,24.94,12.16c2,1.38,4,2.85,5.87,4.41a93.79,93.79,0,0,1,26.72,35q1.35,3,2.45,6.2a93.14,93.14,0,0,1,5.25,27.29C233.67,209.89,233.7,211.18,233.7,212.48Z"/><path class="cls-3" d="M307.09,86.13v8h-9.38V85.63c0-8-3.16-12.8-10.38-12.8s-10.39,4.82-10.39,12.8V132.5c0,8,3.29,12.79,10.39,12.79s10.38-4.82,10.38-12.79V121h9.38v11c0,13.42-6.34,22.29-20,22.29s-19.88-8.87-19.88-22.29V86.13c0-13.42,6.33-22.29,19.88-22.29S307.09,72.71,307.09,86.13Z"/><path class="cls-3" d="M353.57,64.73c13.94,0,19.76,7.09,19.76,20.26v7.22c0,9.76-3.42,15.84-11,18.24,8.11,2.41,11.15,9,11.15,18.5v13.81c0,3.92.13,7.6,1.77,10.63h-10c-1.14-2.53-1.65-4.81-1.65-10.76V128.7c0-10-4.69-13.18-12.92-13.18h-7v37.87h-9.88V64.73ZM351,106.53c7.85,0,12.54-2.54,12.54-12.16V85.88c0-8-2.91-12.16-10.26-12.16h-9.63v32.81Z"/><path class="cls-3" d="M433,104v8.87H411.33V144.4h26.6v9H401.45V64.73h36.48v9h-26.6V104Z"/><path class="cls-3" d="M474.79,135.53l-3.42,17.86h-9.12l17-88.66h14.31l17,88.66h-9.88l-3.42-17.86Zm1.27-8.48h19.76l-10-51.18Z"/><path class="cls-3" d="M548.9,153.39V73.72H532.55v-9h42.57v9H558.78v79.67Z"/><path class="cls-3" d="M609.57,64.73v88.66h-9.88V64.73Z"/><path class="cls-3" d="M644.91,64.73l14.44,77.14,14.31-77.14h9.12l-16.59,88.66H651.62L634.9,64.73Z"/><path class="cls-3" d="M739.66,104v8.87H718V144.4h26.6v9H708.12V64.73H744.6v9H718V104Z"/><path class="cls-4" d="M834.78,64.73v88.66H821.35V92.59l-12.53,60.8h-9.38L786.9,92.59v60.8H773.73V64.73h19l11.65,56.62,11.15-56.62Z"/><path class="cls-4" d="M867.21,64.73h13.43v88.66H867.21Z"/><path class="cls-4" d="M913.06,64.73h14.82L945,124.26V64.73h13.18v88.66H944L926.24,96.65v56.74H913.06Z"/><path class="cls-4" d="M990.58,64.73h21c12.79,0,21,8.36,21,21.15v46.36c0,12.79-8.24,21.15-21,21.15h-21Zm20.4,76c5.19,0,8.23-3,8.23-8.23V85.63c0-5.2-3-8.24-8.23-8.24h-7v63.34Z"/><path class="cls-4" d="M295.43,202.93v13H292.2V187h3.23v13h7.12V187h3.22v29h-3.22v-13Z"/><path class="cls-4" d="M375.19,210.13,374.07,216h-3l5.55-29h4.67l5.54,29h-3.22l-1.12-5.83Zm.41-2.77h6.45l-3.26-16.71Z"/><path class="cls-4" d="M458.67,187c4.55,0,6.45,2.32,6.45,6.62V196c0,3.18-1.12,5.16-3.6,5.95,2.65.79,3.64,2.94,3.64,6v4.51a7.2,7.2,0,0,0,.58,3.47h-3.27a7.6,7.6,0,0,1-.54-3.51V207.9c0-3.27-1.53-4.31-4.21-4.31h-2.28V216h-3.23V187Zm-.83,13.65c2.56,0,4.09-.83,4.09-4v-2.77c0-2.61-.95-4-3.34-4h-3.15v10.71Z"/><path class="cls-4" d="M531.1,194c0-4.42,2.19-7.28,6.62-7.28s6.66,2.86,6.66,7.28v15c0,4.38-2.19,7.28-6.66,7.28s-6.62-2.9-6.62-7.28Zm3.19,15.14c0,2.64,1.11,4.17,3.43,4.17s3.43-1.53,3.43-4.17V193.83c0-2.6-1.07-4.17-3.43-4.17s-3.43,1.57-3.43,4.17Z"/><path class="cls-4" d="M610,194c0-4.42,2.19-7.28,6.62-7.28s6.66,2.86,6.66,7.28v15c0,4.38-2.19,7.28-6.66,7.28S610,213.35,610,209Zm3.19,15.14c0,2.64,1.11,4.17,3.43,4.17s3.43-1.53,3.43-4.17V193.83c0-2.6-1.07-4.17-3.43-4.17s-3.43,1.57-3.43,4.17Z"/><path class="cls-4" d="M692.06,216h-2.89V187h4.09l6.7,20.93V187h2.86v29h-3.35l-7.41-23.41Z"/><path class="cls-3" d="M781.5,194v.79h-3.06v-1c0-2.6-1-4.13-3.31-4.13s-3.31,1.53-3.31,4.09c0,6.5,9.72,7.12,9.72,15.26,0,4.39-2.11,7.24-6.53,7.24s-6.5-2.85-6.5-7.24v-1.65h3v1.82c0,2.6,1.08,4.13,3.39,4.13s3.39-1.53,3.39-4.13c0-6.45-9.67-7.07-9.67-15.22,0-4.47,2.06-7.24,6.41-7.24S781.5,189.58,781.5,194Z"/><path class="cls-3" d="M850.46,210.13,849.34,216h-3l5.54-29h4.67l5.54,29H858.9l-1.12-5.83Zm.41-2.77h6.46l-3.27-16.71Z"/><path class="cls-3" d="M937.37,200.49v2.94h-6.66V216h-3.22V187H939V190h-8.28v10.54Z"/><path class="cls-3" d="M1007.62,187v29h-3.23V187Z"/></svg>